SplineFontDB: 3.0
FontName: ElaineSans-Bold
FullName: Elaine Sans Bold
FamilyName: Elaine Sans
Weight: Bold
Copyright: Copyright (c) 2015 by Wei Huang. All rights reserved.
Version: 1.030;PS 001.030;hotconv 1.0.70;makeotf.lib2.5.58329
ItalicAngle: 0
UnderlinePosition: -250
UnderlineWidth: 50
Ascent: 760
Descent: 240
InvalidEm: 0
sfntRevision: 0x000107ae
LayerCount: 2
Layer: 0 1 "Back" 1
Layer: 1 1 "Fore" 0
XUID: [1021 288 1899785369 12409]
StyleMap: 0x0020
FSType: 4
OS2Version: 3
OS2_WeightWidthSlopeOnly: 0
OS2_UseTypoMetrics: 0
CreationTime: 1436215488
ModificationTime: 1543784632
PfmFamily: 81
TTFWeight: 700
TTFWidth: 5
LineGap: 0
VLineGap: 0
Panose: 0 0 8 0 0 0 0 0 0 0
OS2TypoAscent: 760
OS2TypoAOffset: 0
OS2TypoDescent: -240
OS2TypoDOffset: 0
OS2TypoLinegap: 173
OS2WinAscent: 930
OS2WinAOffset: 0
OS2WinDescent: 243
OS2WinDOffset: 0
HheadAscent: 930
HheadAOffset: 0
HheadDescent: -243
HheadDOffset: 0
OS2SubXSize: 650
OS2SubYSize: 600
OS2SubXOff: 0
OS2SubYOff: 75
OS2SupXSize: 650
OS2SupYSize: 600
OS2SupXOff: 0
OS2SupYOff: 350
OS2StrikeYSize: 50
OS2StrikeYPos: 300
OS2CapHeight: 660
OS2XHeight: 500
OS2Vendor: 'UKWN'
OS2CodePages: 20000093.00000000
OS2UnicodeRanges: 00000007.00000001.00000000.00000000
Lookup: 1 0 0 "'aalt' Access All Alternates lookup 0" { "'aalt' Access All Alternates lookup 0 subtable"  } ['aalt' ('DFLT' <'dflt' > 'grek' <'dflt' > 'latn' <'CAT ' 'MOL ' 'NLD ' 'ROM ' 'TRK ' 'dflt' > ) ]
Lookup: 3 0 0 "'aalt' Access All Alternates lookup 1" { "'aalt' Access All Alternates lookup 1 subtable"  } ['aalt' ('DFLT' <'dflt' > 'grek' <'dflt' > 'latn' <'CAT ' 'MOL ' 'NLD ' 'ROM ' 'TRK ' 'dflt' > ) ]
Lookup: 1 0 0 "'locl' Localized Forms in Latin lookup 2" { "'locl' Localized Forms in Latin lookup 2 subtable"  } ['locl' ('latn' <'TRK ' > ) ]
Lookup: 1 0 0 "'locl' Localized Forms in Latin lookup 3" { "'locl' Localized Forms in Latin lookup 3 subtable"  } ['locl' ('latn' <'TAT ' > ) ]

StartChar: .notdef
Encoding: 65536 -1 0
Width: 500
Flags: W
LayerCount: 2
Fore
SplineSet
50 0 m 1,0,-1
 50 660 l 1,1,-1
 450 660 l 1,2,-1
 450 0 l 1,3,-1
 50 0 l 1,0,-1
130 80 m 1,4,-1
 370 80 l 1,5,-1
 370 580 l 1,6,-1
 130 580 l 1,7,-1
 130 80 l 1,4,-1
EndSplineSet
EndChar

StartChar: exclam
Encoding: 33 33 4
Width: 301
GlyphClass: 2
Flags: W
LayerCount: 2
Fore
SplineSet
239 660 m 1,0,-1
 239 447 l 1,1,-1
 220 215 l 1,2,-1
 81 215 l 1,3,-1
 62 447 l 1,4,-1
 62 660 l 1,5,-1
 239 660 l 1,0,-1
150 159 m 128,-1,7
 195 159 195 159 221 137 c 128,-1,8
 247 115 247 115 247 75 c 0,9,10
 247 36 247 36 221 14 c 128,-1,11
 195 -8 195 -8 150 -8 c 128,-1,12
 105 -8 105 -8 79.5 14 c 128,-1,13
 54 36 54 36 54 75 c 0,14,15
 54 115 54 115 79.5 137 c 128,-1,6
 105 159 105 159 150 159 c 128,-1,7
EndSplineSet
Substitution2: "'smcp' Lowercase to Small Capitals lookup 12 subtable" exclam.sc
Substitution2: "'c2sc' Capitals to Small Capitals lookup 11 subtable" exclam.sc
Substitution2: "'aalt' Access All Alternates lookup 0 subtable" exclam.sc
EndChar

StartChar: quotedbl
Encoding: 34 34 5
Width: 447
GlyphClass: 2
Flags: W
LayerCount: 2
Fore
SplineSet
205 678 m 1,0,-1
 176 401 l 1,1,-1
 63 401 l 1,2,-1
 63 678 l 1,3,-1
 205 678 l 1,0,-1
403 678 m 1,4,-1
 374 401 l 1,5,-1
 261 401 l 1,6,-1
 261 678 l 1,7,-1
 403 678 l 1,4,-1
EndSplineSet
Substitution2: "'smcp' Lowercase to Small Capitals lookup 12 subtable" quotedbl.sc
Substitution2: "'c2sc' Capitals to Small Capitals lookup 11 subtable" quotedbl.sc
Substitution2: "'aalt' Access All Alternates lookup 0 subtable" quotedbl.sc
EndChar

StartChar: numbersign
Encoding: 35 35 6
Width: 604
GlyphClass: 2
Flags: W
LayerCount: 2
Fore
SplineSet
589 400 m 1,0,-1
 482 400 l 1,1,-1
 460 262 l 1,2,-1
 556 262 l 1,3,-1
 556 160 l 1,4,-1
 445 160 l 1,5,-1
 420 0 l 1,6,-1
 321 0 l 1,7,-1
 346 160 l 1,8,-1
 212 160 l 1,9,-1
 188 0 l 1,10,-1
 89 0 l 1,11,-1
 114 160 l 1,12,-1
 14 160 l 1,13,-1
 14 262 l 1,14,-1
 129 262 l 1,15,-1
 151 400 l 1,16,-1
 47 400 l 1,17,-1
 47 502 l 1,18,-1
 166 502 l 1,19,-1
 191 660 l 1,20,-1
 290 660 l 1,21,-1
 265 502 l 1,22,-1
 399 502 l 1,23,-1
 423 660 l 1,24,-1
 522 660 l 1,25,-1
 498 502 l 1,26,-1
 589 502 l 1,27,-1
 589 400 l 1,0,-1
362 262 m 1,28,-1
 383 400 l 1,29,-1
 249 400 l 1,30,-1
 228 262 l 1,31,-1
 362 262 l 1,28,-1
EndSplineSet
Substitution2: "'tnum' Tabular Numbers lookup 26 subtable" numbersign.tf
Substitution2: "'aalt' Access All Alternates lookup 0 subtable" numbersign.tf
EndChar

StartChar: dollar
Encoding: 36 36 7
Width: 604
GlyphClass: 2
Flags: W
LayerCount: 2
Fore
SplineSet
360 383 m 1,0,1
 396 375 396 375 421 367.5 c 128,-1,2
 446 360 446 360 476.5 344.5 c 128,-1,3
 507 329 507 329 525 310 c 128,-1,4
 543 291 543 291 556 260.5 c 128,-1,5
 569 230 569 230 569 191 c 0,6,7
 569 112 569 112 511.5 62.5 c 128,-1,8
 454 13 454 13 360 3 c 1,9,-1
 360 -88 l 1,10,-1
 263 -88 l 1,11,-1
 263 2 l 1,12,13
 103 14 103 14 26 126 c 1,14,-1
 118 225 l 1,15,16
 134 184 134 184 174 157 c 128,-1,17
 214 130 214 130 263 120 c 1,18,-1
 263 271 l 1,19,20
 217 281 217 281 186.5 291.5 c 128,-1,21
 156 302 156 302 122 322 c 128,-1,22
 88 342 88 342 70.5 376.5 c 128,-1,23
 53 411 53 411 53 458 c 0,24,25
 53 537 53 537 109 591.5 c 128,-1,26
 165 646 165 646 263 657 c 1,27,-1
 263 748 l 1,28,-1
 360 748 l 1,29,-1
 360 658 l 1,30,31
 434 651 434 651 481 622.5 c 128,-1,32
 528 594 528 594 577 539 c 1,33,-1
 490 443 l 1,34,35
 450 525 450 525 360 541 c 1,36,-1
 360 383 l 1,0,1
197 468 m 0,37,38
 197 428 197 428 263 406 c 1,39,-1
 263 539 l 1,40,41
 197 523 197 523 197 468 c 0,37,38
360 119 m 1,42,43
 426 132 426 132 426 184 c 0,44,45
 426 226 426 226 360 248 c 1,46,-1
 360 119 l 1,42,43
EndSplineSet
Substitution2: "'tnum' Tabular Numbers lookup 26 subtable" dollar.tf
Substitution2: "'aalt' Access All Alternates lookup 0 subtable" dollar.tf
EndChar

StartChar: percent
Encoding: 37 37 8
Width: 938
GlyphClass: 2
Flags: W
LayerCount: 2
Fore
SplineSet
216 670 m 128,-1,1
 300 670 300 670 351 618.5 c 128,-1,2
 402 567 402 567 402 482 c 128,-1,3
 402 397 402 397 351 345.5 c 128,-1,4
 300 294 300 294 216 294 c 128,-1,5
 132 294 132 294 81 345.5 c 128,-1,6
 30 397 30 397 30 482 c 128,-1,7
 30 567 30 567 81 618.5 c 128,-1,0
 132 670 132 670 216 670 c 128,-1,1
175 0 m 1,8,-1
 634 661 l 1,9,-1
 764 661 l 1,10,-1
 305 0 l 1,11,-1
 175 0 l 1,8,-1
216 556 m 0,12,13
 157 556 157 556 157 482 c 128,-1,14
 157 408 157 408 216 408 c 0,15,16
 276 408 276 408 276 482 c 128,-1,17
 276 556 276 556 216 556 c 0,12,13
721 366 m 128,-1,19
 805 366 805 366 856 314.5 c 128,-1,20
 907 263 907 263 907 178 c 128,-1,21
 907 93 907 93 856 41.5 c 128,-1,22
 805 -10 805 -10 721 -10 c 128,-1,23
 637 -10 637 -10 586 41.5 c 128,-1,24
 535 93 535 93 535 178 c 128,-1,25
 535 263 535 263 586 314.5 c 128,-1,18
 637 366 637 366 721 366 c 128,-1,19
721 252 m 0,26,27
 692 252 692 252 676.5 232.5 c 128,-1,28
 661 213 661 213 661 178 c 128,-1,29
 661 143 661 143 676.5 123.5 c 128,-1,30
 692 104 692 104 721 104 c 0,31,32
 781 104 781 104 781 178 c 128,-1,33
 781 252 781 252 721 252 c 0,26,27
EndSplineSet
EndChar

StartChar: ampersand
Encoding: 38 38 9
Width: 646
GlyphClass: 2
Flags: W
LayerCount: 2
Fore
SplineSet
642 109 m 1,0,-1
 627 -10 l 1,1,2
 571 -10 571 -10 532.5 2 c 128,-1,3
 494 14 494 14 447 52 c 1,4,5
 375 -10 375 -10 257 -10 c 0,6,7
 153 -10 153 -10 89.5 37 c 128,-1,8
 26 84 26 84 25 169 c 0,9,10
 25 223 25 223 56 271.5 c 128,-1,11
 87 320 87 320 160 347 c 1,12,13
 120 395 120 395 106 428.5 c 128,-1,14
 92 462 92 462 92 502 c 0,15,16
 92 570 92 570 144 620 c 128,-1,17
 196 670 196 670 293 670 c 0,18,19
 388 670 388 670 439.5 626 c 128,-1,20
 491 582 491 582 491 514 c 0,21,22
 491 391 491 391 348 333 c 1,23,24
 379 299 379 299 395 281 c 2,25,-1
 462 209 l 1,26,27
 488 265 488 265 485 339 c 1,28,-1
 598 336 l 1,29,30
 598 219 598 219 534 140 c 1,31,32
 583 102 583 102 642 109 c 1,0,-1
297 558 m 0,33,34
 269 558 269 558 253 541.5 c 128,-1,35
 237 525 237 525 237 496 c 0,36,37
 237 476 237 476 247.5 456 c 128,-1,38
 258 436 258 436 290 398 c 1,39,40
 330 426 330 426 343 450 c 128,-1,41
 356 474 356 474 356 504 c 0,42,43
 356 558 356 558 297 558 c 0,33,34
274 102 m 0,44,45
 326 102 326 102 371 122 c 1,46,47
 355 138 355 138 313 182 c 0,48,49
 253 244 253 244 226 273 c 1,50,51
 194 249 194 249 182.5 228.5 c 128,-1,52
 171 208 171 208 171 181 c 0,53,54
 171 146 171 146 199.5 124 c 128,-1,55
 228 102 228 102 274 102 c 0,44,45
EndSplineSet
Substitution2: "'smcp' Lowercase to Small Capitals lookup 12 subtable" ampersand.sc
Substitution2: "'c2sc' Capitals to Small Capitals lookup 11 subtable" ampersand.sc
Substitution2: "'aalt' Access All Alternates lookup 0 subtable" ampersand.sc
EndChar

StartChar: quotesingle
Encoding: 39 39 10
Width: 250
GlyphClass: 2
Flags: W
LayerCount: 2
Fore
SplineSet
205 678 m 1,0,-1
 176 401 l 1,1,-1
 63 401 l 1,2,-1
 63 678 l 1,3,-1
 205 678 l 1,0,-1
EndSplineSet
Substitution2: "'smcp' Lowercase to Small Capitals lookup 12 subtable" quotesingle.sc
Substitution2: "'c2sc' Capitals to Small Capitals lookup 11 subtable" quotesingle.sc
Substitution2: "'aalt' Access All Alternates lookup 0 subtable" quotesingle.sc
EndChar

StartChar: parenleft
Encoding: 40 40 11
Width: 391
GlyphClass: 2
Flags: W
LayerCount: 2
Fore
SplineSet
301 736 m 1,0,-1
 381 658 l 1,1,2
 295 581 295 581 257.5 492 c 128,-1,3
 220 403 220 403 220 273 c 0,4,5
 220 142 220 142 257.5 53 c 128,-1,6
 295 -36 295 -36 381 -113 c 1,7,-1
 301 -191 l 1,8,9
 67 -35 67 -35 67 273 c 0,10,11
 67 580 67 580 301 736 c 1,0,-1
EndSplineSet
Substitution2: "'case' Case-Sensitive Forms lookup 29 subtable" parenleft.case
Substitution2: "'sups' Superscript lookup 15 subtable" uni207D
Substitution2: "'subs' Subscript lookup 14 subtable" uni208D
Substitution2: "'sinf' Scientific Inferiors lookup 13 subtable" uni208D
AlternateSubs2: "'aalt' Access All Alternates lookup 1 subtable" uni208D uni207D parenleft.case
EndChar

StartChar: parenright
Encoding: 41 41 12
Width: 391
GlyphClass: 2
Flags: W
LayerCount: 2
Fore
SplineSet
90 736 m 1,0,1
 324 579 324 579 324 273 c 0,2,3
 324 -34 324 -34 90 -191 c 1,4,-1
 10 -113 l 1,5,6
 96 -36 96 -36 133 52.5 c 128,-1,7
 170 141 170 141 170 273 c 0,8,9
 170 403 170 403 132.5 492 c 128,-1,10
 95 581 95 581 10 658 c 1,11,-1
 90 736 l 1,0,1
EndSplineSet
Substitution2: "'case' Case-Sensitive Forms lookup 29 subtable" parenright.case
Substitution2: "'sups' Superscript lookup 15 subtable" uni207E
Substitution2: "'subs' Subscript lookup 14 subtable" uni208E
Substitution2: "'sinf' Scientific Inferiors lookup 13 subtable" uni208E
AlternateSubs2: "'aalt' Access All Alternates lookup 1 subtable" uni208E uni207E parenright.case
EndChar

StartChar: asterisk
Encoding: 42 42 13
Width: 588
GlyphClass: 2
Flags: W
LayerCount: 2
Fore
SplineSet
372 456 m 1,0,-1
 406 424 l 1,1,-1
 489 315 l 1,2,-1
 391 244 l 1,3,-1
 313 357 l 1,4,-1
 294 399 l 1,5,-1
 274 357 l 1,6,-1
 196 244 l 1,7,-1
 99 315 l 1,8,-1
 182 424 l 1,9,-1
 216 456 l 1,10,-1
 169 461 l 1,11,-1
 39 500 l 1,12,-1
 76 615 l 1,13,-1
 205 570 l 1,14,-1
 246 547 l 1,15,-1
 237 593 l 1,16,-1
 233 730 l 1,17,-1
 354 730 l 1,18,-1
 351 593 l 1,19,-1
 342 547 l 1,20,-1
 383 570 l 1,21,-1
 513 615 l 1,22,-1
 550 500 l 1,23,-1
 418 461 l 1,24,-1
 372 456 l 1,0,-1
EndSplineSet
EndChar

StartChar: plus
Encoding: 43 43 14
Width: 604
GlyphClass: 2
Flags: W
LayerCount: 2
Fore
SplineSet
553 386 m 1,0,-1
 553 264 l 1,1,-1
 370 264 l 1,2,-1
 370 60 l 1,3,-1
 235 60 l 1,4,-1
 235 264 l 1,5,-1
 51 264 l 1,6,-1
 51 386 l 1,7,-1
 235 386 l 1,8,-1
 235 589 l 1,9,-1
 370 589 l 1,10,-1
 370 386 l 1,11,-1
 553 386 l 1,0,-1
EndSplineSet
Substitution2: "'sups' Superscript lookup 15 subtable" uni207A
Substitution2: "'subs' Subscript lookup 14 subtable" uni208A
Substitution2: "'sinf' Scientific Inferiors lookup 13 subtable" uni208A
AlternateSubs2: "'aalt' Access All Alternates lookup 1 subtable" uni208A uni207A
EndChar

StartChar: comma
Encoding: 44 44 15
Width: 304
GlyphClass: 2
Flags: W
LayerCount: 2
Fore
SplineSet
151 172 m 0,0,1
 204 172 204 172 231.5 136 c 128,-1,2
 259 100 259 100 259 43 c 0,3,4
 259 -23 259 -23 223.5 -76 c 128,-1,5
 188 -129 188 -129 120 -158 c 1,6,-1
 45 -105 l 1,7,8
 144 -68 144 -68 170 2 c 1,9,-1
 165 5 l 1,10,11
 155 -6 155 -6 135 -6 c 0,12,13
 102 -6 102 -6 77 15.5 c 128,-1,14
 52 37 52 37 52 78 c 0,15,16
 52 123 52 123 79 147.5 c 128,-1,17
 106 172 106 172 151 172 c 0,0,1
EndSplineSet
Substitution2: "'tnum' Tabular Numbers lookup 26 subtable" comma.tf
Substitution2: "'sups' Superscript lookup 15 subtable" commasuperior
Substitution2: "'subs' Subscript lookup 14 subtable" commainferior
Substitution2: "'sinf' Scientific Inferiors lookup 13 subtable" commainferior
AlternateSubs2: "'aalt' Access All Alternates lookup 1 subtable" commainferior commasuperior comma.tf
EndChar

StartChar: hyphen
Encoding: 45 45 16
Width: 528
GlyphClass: 2
Flags: W
LayerCount: 2
Fore
SplineSet
447 337 m 1,0,-1
 447 198 l 1,1,-1
 81 198 l 1,2,-1
 81 337 l 1,3,-1
 447 337 l 1,0,-1
EndSplineSet
Substitution2: "'case' Case-Sensitive Forms lookup 29 subtable" hyphen.case
Substitution2: "'sups' Superscript lookup 15 subtable" hyphensuperior
Substitution2: "'subs' Subscript lookup 14 subtable" hypheninferior
Substitution2: "'sinf' Scientific Inferiors lookup 13 subtable" hypheninferior
AlternateSubs2: "'aalt' Access All Alternates lookup 1 subtable" hypheninferior hyphensuperior hyphen.case
EndChar

StartChar: period
Encoding: 46 46 17
Width: 302
GlyphClass: 2
Flags: W
LayerCount: 2
Fore
SplineSet
151 172 m 128,-1,1
 198 172 198 172 224.5 148 c 128,-1,2
 251 124 251 124 251 81 c 0,3,4
 251 39 251 39 224.5 15 c 128,-1,5
 198 -9 198 -9 151 -9 c 128,-1,6
 104 -9 104 -9 77.5 15 c 128,-1,7
 51 39 51 39 51 81 c 0,8,9
 51 124 51 124 77.5 148 c 128,-1,0
 104 172 104 172 151 172 c 128,-1,1
EndSplineSet
Substitution2: "'tnum' Tabular Numbers lookup 26 subtable" period.tf
Substitution2: "'sups' Superscript lookup 15 subtable" periodsuperior
Substitution2: "'subs' Subscript lookup 14 subtable" periodinferior
Substitution2: "'sinf' Scientific Inferiors lookup 13 subtable" periodinferior
AlternateSubs2: "'aalt' Access All Alternates lookup 1 subtable" periodinferior periodsuperior period.tf
EndChar

StartChar: slash
Encoding: 47 47 18
Width: 468
GlyphClass: 2
Flags: W
LayerCount: 2
Fore
SplineSet
453 712 m 1,0,-1
 173 -70 l 1,1,-1
 15 -70 l 1,2,-1
 295 712 l 1,3,-1
 453 712 l 1,0,-1
EndSplineSet
Substitution2: "'frac' Diagonal Fractions lookup 18 subtable" fraction
Substitution2: "'aalt' Access All Alternates lookup 0 subtable" fraction
EndChar

StartChar: zero
Encoding: 48 48 19
Width: 604
GlyphClass: 2
Flags: W
LayerCount: 2
Fore
SplineSet
302 -10 m 128,-1,1
 37 -10 37 -10 37 330 c 128,-1,2
 37 670 37 670 302 670 c 128,-1,3
 567 670 567 670 567 330 c 128,-1,0
 567 -10 567 -10 302 -10 c 128,-1,1
302 124 m 128,-1,5
 354 124 354 124 377 171.5 c 128,-1,6
 400 219 400 219 400 330 c 128,-1,7
 400 441 400 441 377 488.5 c 128,-1,8
 354 536 354 536 302 536 c 128,-1,9
 250 536 250 536 227 488.5 c 128,-1,10
 204 441 204 441 204 330 c 128,-1,11
 204 219 204 219 227 171.5 c 128,-1,4
 250 124 250 124 302 124 c 128,-1,5
EndSplineSet
Substitution2: "'zero' Slashed Zero lookup 28 subtable" zero.zero
Substitution2: "'onum' Oldstyle Figures lookup 27 subtable" zero.osf
Substitution2: "'tnum' Tabular Numbers lookup 26 subtable" zero.tf
Substitution2: "'frac' Diagonal Fractions lookup 19 subtable" zero.numr
Substitution2: "'dnom' Denominators lookup 17 subtable" zero.dnom
Substitution2: "'numr' Numerators lookup 16 subtable" zero.numr
Substitution2: "'sups' Superscript lookup 15 subtable" uni2070
Substitution2: "'subs' Subscript lookup 14 subtable" uni2080
Substitution2: "'sinf' Scientific Inferiors lookup 13 subtable" uni2080
Substitution2: "'smcp' Lowercase to Small Capitals lookup 12 subtable" zero.sc
Substitution2: "'c2sc' Capitals to Small Capitals lookup 11 subtable" zero.sc
AlternateSubs2: "'aalt' Access All Alternates lookup 1 subtable" zero.sc uni2080 uni2070 zero.numr zero.dnom zero.tf zero.osf zero.zero
EndChar

StartChar: one
Encoding: 49 49 20
Width: 604
GlyphClass: 2
Flags: W
LayerCount: 2
Fore
SplineSet
415 130 m 1,0,-1
 571 130 l 1,1,-1
 571 0 l 1,2,-1
 78 0 l 1,3,-1
 78 130 l 1,4,-1
 257 130 l 1,5,-1
 257 492 l 1,6,-1
 257 501 l 1,7,8
 176 426 176 426 87 415 c 1,9,-1
 71 549 l 1,10,11
 125 555 125 555 189 589 c 128,-1,12
 253 623 253 623 278 660 c 1,13,-1
 415 660 l 1,14,-1
 415 130 l 1,0,-1
EndSplineSet
Substitution2: "'onum' Oldstyle Figures lookup 27 subtable" one.osf
Substitution2: "'tnum' Tabular Numbers lookup 26 subtable" one.tf
Substitution2: "'nalt' Alternate Annotation Forms lookup 23 subtable" uni2780
Substitution2: "'frac' Diagonal Fractions lookup 19 subtable" one.numr
Substitution2: "'dnom' Denominators lookup 17 subtable" one.dnom
Substitution2: "'numr' Numerators lookup 16 subtable" one.numr
Substitution2: "'sups' Superscript lookup 15 subtable" uni00B9
Substitution2: "'subs' Subscript lookup 14 subtable" uni2081
Substitution2: "'sinf' Scientific Inferiors lookup 13 subtable" uni2081
Substitution2: "'smcp' Lowercase to Small Capitals lookup 12 subtable" one.sc
Substitution2: "'c2sc' Capitals to Small Capitals lookup 11 subtable" one.sc
AlternateSubs2: "'aalt' Access All Alternates lookup 1 subtable" one.sc uni2081 uni00B9 one.numr one.dnom uni2780 one.tf one.osf
EndChar

StartChar: two
Encoding: 50 50 21
Width: 604
GlyphClass: 2
Flags: W
LayerCount: 2
Fore
SplineSet
58 0 m 1,0,-1
 58 110 l 1,1,2
 225 214 225 214 299 294.5 c 128,-1,3
 373 375 373 375 373 446 c 0,4,5
 373 486 373 486 350 510.5 c 128,-1,6
 327 535 327 535 285 535 c 0,7,8
 186 535 186 535 184 400 c 1,9,-1
 36 445 l 1,10,11
 39 552 39 552 110.5 611 c 128,-1,12
 182 670 182 670 296 670 c 0,13,14
 418 670 418 670 481 607 c 128,-1,15
 544 544 544 544 544 458 c 0,16,17
 544 365 544 365 475 287 c 128,-1,18
 406 209 406 209 264 128 c 1,19,-1
 264 127 l 1,20,21
 332 131 332 131 398 131 c 2,22,-1
 552 131 l 1,23,-1
 552 0 l 1,24,-1
 58 0 l 1,0,-1
EndSplineSet
Substitution2: "'onum' Oldstyle Figures lookup 27 subtable" two.osf
Substitution2: "'tnum' Tabular Numbers lookup 26 subtable" two.tf
Substitution2: "'nalt' Alternate Annotation Forms lookup 23 subtable" uni2781
Substitution2: "'frac' Diagonal Fractions lookup 19 subtable" two.numr
Substitution2: "'dnom' Denominators lookup 17 subtable" two.dnom
Substitution2: "'numr' Numerators lookup 16 subtable" two.numr
Substitution2: "'sups' Superscript lookup 15 subtable" uni00B2
Substitution2: "'subs' Subscript lookup 14 subtable" uni2082
Substitution2: "'sinf' Scientific Inferiors lookup 13 subtable" uni2082
Substitution2: "'smcp' Lowercase to Small Capitals lookup 12 subtable" two.sc
Substitution2: "'c2sc' Capitals to Small Capitals lookup 11 subtable" two.sc
AlternateSubs2: "'aalt' Access All Alternates lookup 1 subtable" two.sc uni2082 uni00B2 two.numr two.dnom uni2781 two.tf two.osf
EndChar

StartChar: three
Encoding: 51 51 22
Width: 604
GlyphClass: 2
Flags: W
LayerCount: 2
Fore
SplineSet
308 670 m 0,0,1
 418 670 418 670 479.5 620 c 128,-1,2
 541 570 541 570 541 485 c 0,3,4
 541 411 541 411 498 372 c 128,-1,5
 455 333 455 333 417 333 c 1,6,-1
 417 330 l 1,7,8
 437 330 437 330 458.5 322.5 c 128,-1,9
 480 315 480 315 502.5 299 c 128,-1,10
 525 283 525 283 539.5 252 c 128,-1,11
 554 221 554 221 554 180 c 0,12,13
 554 95 554 95 483 42.5 c 128,-1,14
 412 -10 412 -10 301 -10 c 0,15,16
 195 -10 195 -10 131 29 c 128,-1,17
 67 68 67 68 40 154 c 1,18,-1
 195 221 l 1,19,20
 199 168 199 168 224.5 145.5 c 128,-1,21
 250 123 250 123 297 123 c 0,22,23
 339 123 339 123 363.5 145 c 128,-1,24
 388 167 388 167 387 204 c 0,25,26
 386 242 386 242 363 258 c 128,-1,27
 340 274 340 274 292 274 c 2,28,-1
 255 274 l 1,29,-1
 255 383 l 1,30,-1
 285 383 l 2,31,32
 373 383 373 383 374 459 c 0,33,34
 374 497 374 497 353.5 517 c 128,-1,35
 333 537 333 537 297 537 c 0,36,37
 211 537 211 537 205 448 c 1,38,-1
 56 499 l 1,39,40
 72 587 72 587 139 628.5 c 128,-1,41
 206 670 206 670 308 670 c 0,0,1
EndSplineSet
Substitution2: "'onum' Oldstyle Figures lookup 27 subtable" three.osf
Substitution2: "'tnum' Tabular Numbers lookup 26 subtable" three.tf
Substitution2: "'nalt' Alternate Annotation Forms lookup 23 subtable" uni2782
Substitution2: "'frac' Diagonal Fractions lookup 19 subtable" three.numr
Substitution2: "'dnom' Denominators lookup 17 subtable" three.dnom
Substitution2: "'numr' Numerators lookup 16 subtable" three.numr
Substitution2: "'sups' Superscript lookup 15 subtable" uni00B3
Substitution2: "'subs' Subscript lookup 14 subtable" uni2083
Substitution2: "'sinf' Scientific Inferiors lookup 13 subtable" uni2083
Substitution2: "'smcp' Lowercase to Small Capitals lookup 12 subtable" three.sc
Substitution2: "'c2sc' Capitals to Small Capitals lookup 11 subtable" three.sc
AlternateSubs2: "'aalt' Access All Alternates lookup 1 subtable" three.sc uni2083 uni00B3 three.numr three.dnom uni2782 three.tf three.osf
EndChar

StartChar: four
Encoding: 52 52 23
Width: 604
GlyphClass: 2
Flags: W
LayerCount: 2
Fore
SplineSet
324 0 m 1,0,-1
 324 141 l 1,1,-1
 28 141 l 1,2,-1
 28 226 l 1,3,-1
 273 660 l 1,4,-1
 476 660 l 1,5,-1
 476 263 l 1,6,-1
 585 263 l 1,7,-1
 585 141 l 1,8,-1
 476 141 l 1,9,-1
 476 0 l 1,10,-1
 324 0 l 1,0,-1
174 263 m 1,11,-1
 329 263 l 1,12,-1
 329 386 l 2,13,14
 329 464 329 464 332 544 c 1,15,-1
 329 544 l 1,16,17
 312 497 312 497 289 461 c 2,18,-1
 174 263 l 1,11,-1
EndSplineSet
Substitution2: "'onum' Oldstyle Figures lookup 27 subtable" four.osf
Substitution2: "'tnum' Tabular Numbers lookup 26 subtable" four.tf
Substitution2: "'nalt' Alternate Annotation Forms lookup 23 subtable" uni2783
Substitution2: "'frac' Diagonal Fractions lookup 19 subtable" four.numr
Substitution2: "'dnom' Denominators lookup 17 subtable" four.dnom
Substitution2: "'numr' Numerators lookup 16 subtable" four.numr
Substitution2: "'sups' Superscript lookup 15 subtable" uni2074
Substitution2: "'subs' Subscript lookup 14 subtable" uni2084
Substitution2: "'sinf' Scientific Inferiors lookup 13 subtable" uni2084
Substitution2: "'smcp' Lowercase to Small Capitals lookup 12 subtable" four.sc
Substitution2: "'c2sc' Capitals to Small Capitals lookup 11 subtable" four.sc
AlternateSubs2: "'aalt' Access All Alternates lookup 1 subtable" four.sc uni2084 uni2074 four.numr four.dnom uni2783 four.tf four.osf
EndChar

StartChar: five
Encoding: 53 53 24
Width: 604
GlyphClass: 2
Flags: W
LayerCount: 2
Fore
SplineSet
349 426 m 0,0,1
 445 426 445 426 500.5 370.5 c 128,-1,2
 556 315 556 315 556 226 c 0,3,4
 556 110 556 110 483.5 50 c 128,-1,5
 411 -10 411 -10 299 -10 c 0,6,7
 209 -10 209 -10 146 21 c 128,-1,8
 83 52 83 52 41 122 c 1,9,-1
 192 208 l 1,10,11
 202 164 202 164 226 142 c 128,-1,12
 250 120 250 120 300 120 c 0,13,14
 347 120 347 120 374 144 c 128,-1,15
 401 168 401 168 401 214 c 0,16,17
 401 259 401 259 375.5 283 c 128,-1,18
 350 307 350 307 301 307 c 0,19,20
 228 307 228 307 196 268 c 1,21,-1
 65 287 l 1,22,-1
 108 660 l 1,23,-1
 519 660 l 1,24,-1
 519 527 l 1,25,-1
 233 527 l 1,26,-1
 217 403 l 2,27,28
 214 386 214 386 212 379 c 1,29,-1
 213 379 l 1,30,31
 255 426 255 426 349 426 c 0,0,1
EndSplineSet
Substitution2: "'onum' Oldstyle Figures lookup 27 subtable" five.osf
Substitution2: "'tnum' Tabular Numbers lookup 26 subtable" five.tf
Substitution2: "'nalt' Alternate Annotation Forms lookup 23 subtable" uni2784
Substitution2: "'frac' Diagonal Fractions lookup 19 subtable" five.numr
Substitution2: "'dnom' Denominators lookup 17 subtable" five.dnom
Substitution2: "'numr' Numerators lookup 16 subtable" five.numr
Substitution2: "'sups' Superscript lookup 15 subtable" uni2075
Substitution2: "'subs' Subscript lookup 14 subtable" uni2085
Substitution2: "'sinf' Scientific Inferiors lookup 13 subtable" uni2085
Substitution2: "'smcp' Lowercase to Small Capitals lookup 12 subtable" five.sc
Substitution2: "'c2sc' Capitals to Small Capitals lookup 11 subtable" five.sc
AlternateSubs2: "'aalt' Access All Alternates lookup 1 subtable" five.sc uni2085 uni2075 five.numr five.dnom uni2784 five.tf five.osf
EndChar

StartChar: six
Encoding: 54 54 25
Width: 604
GlyphClass: 2
Flags: W
LayerCount: 2
Fore
SplineSet
332 670 m 0,0,1
 508 670 508 670 563 524 c 1,2,-1
 422 458 l 1,3,4
 403 534 403 534 322 534 c 0,5,6
 269 534 269 534 236.5 482 c 128,-1,7
 204 430 204 430 204 341 c 2,8,-1
 204 324 l 1,9,-1
 207 324 l 1,10,11
 222 365 222 365 265.5 388 c 128,-1,12
 309 411 309 411 367 411 c 0,13,14
 459 411 459 411 515.5 355 c 128,-1,15
 572 299 572 299 572 206 c 0,16,17
 572 107 572 107 506.5 48.5 c 128,-1,18
 441 -10 441 -10 328 -10 c 0,19,20
 194 -10 194 -10 122 78.5 c 128,-1,21
 50 167 50 167 50 330 c 0,22,23
 50 498 50 498 128 584 c 128,-1,24
 206 670 206 670 332 670 c 0,0,1
325 295 m 0,25,26
 283 295 283 295 258.5 271.5 c 128,-1,27
 234 248 234 248 234 207 c 128,-1,28
 234 166 234 166 258.5 142.5 c 128,-1,29
 283 119 283 119 325 119 c 0,30,31
 368 119 368 119 392 142 c 128,-1,32
 416 165 416 165 416 207 c 128,-1,33
 416 249 416 249 392 272 c 128,-1,34
 368 295 368 295 325 295 c 0,25,26
EndSplineSet
Substitution2: "'onum' Oldstyle Figures lookup 27 subtable" six.osf
Substitution2: "'tnum' Tabular Numbers lookup 26 subtable" six.tf
Substitution2: "'nalt' Alternate Annotation Forms lookup 23 subtable" uni2785
Substitution2: "'frac' Diagonal Fractions lookup 19 subtable" six.numr
Substitution2: "'dnom' Denominators lookup 17 subtable" six.dnom
Substitution2: "'numr' Numerators lookup 16 subtable" six.numr
Substitution2: "'sups' Superscript lookup 15 subtable" uni2076
Substitution2: "'subs' Subscript lookup 14 subtable" uni2086
Substitution2: "'sinf' Scientific Inferiors lookup 13 subtable" uni2086
Substitution2: "'smcp' Lowercase to Small Capitals lookup 12 subtable" six.sc
Substitution2: "'c2sc' Capitals to Small Capitals lookup 11 subtable" six.sc
AlternateSubs2: "'aalt' Access All Alternates lookup 1 subtable" six.sc uni2086 uni2076 six.numr six.dnom uni2785 six.tf six.osf
EndChar

StartChar: seven
Encoding: 55 55 26
Width: 604
GlyphClass: 2
Flags: W
LayerCount: 2
Fore
SplineSet
38 660 m 1,0,-1
 569 660 l 1,1,-1
 569 538 l 1,2,3
 450 413 450 413 404 295.5 c 128,-1,4
 358 178 358 178 358 0 c 1,5,-1
 186 0 l 1,6,7
 186 157 186 157 241 284 c 128,-1,8
 296 411 296 411 409 525 c 1,9,-1
 38 525 l 1,10,-1
 38 660 l 1,0,-1
EndSplineSet
Substitution2: "'onum' Oldstyle Figures lookup 27 subtable" seven.osf
Substitution2: "'tnum' Tabular Numbers lookup 26 subtable" seven.tf
Substitution2: "'nalt' Alternate Annotation Forms lookup 23 subtable" uni2786
Substitution2: "'frac' Diagonal Fractions lookup 19 subtable" seven.numr
Substitution2: "'dnom' Denominators lookup 17 subtable" seven.dnom
Substitution2: "'numr' Numerators lookup 16 subtable" seven.numr
Substitution2: "'sups' Superscript lookup 15 subtable" uni2077
Substitution2: "'subs' Subscript lookup 14 subtable" uni2087
Substitution2: "'sinf' Scientific Inferiors lookup 13 subtable" uni2087
Substitution2: "'smcp' Lowercase to Small Capitals lookup 12 subtable" seven.sc
Substitution2: "'c2sc' Capitals to Small Capitals lookup 11 subtable" seven.sc
AlternateSubs2: "'aalt' Access All Alternates lookup 1 subtable" seven.sc uni2087 uni2077 seven.numr seven.dnom uni2786 seven.tf seven.osf
EndChar

StartChar: eight
Encoding: 56 56 27
Width: 604
GlyphClass: 2
Flags: W
LayerCount: 2
Fore
SplineSet
302 668 m 128,-1,1
 412 668 412 668 475.5 618.5 c 128,-1,2
 539 569 539 569 539 483 c 0,3,4
 539 380 539 380 438 338 c 1,5,-1
 438 337 l 1,6,7
 558 294 558 294 558 181 c 0,8,9
 558 91 558 91 490 40.5 c 128,-1,10
 422 -10 422 -10 302 -10 c 128,-1,11
 182 -10 182 -10 114 40.5 c 128,-1,12
 46 91 46 91 46 181 c 0,13,14
 46 237 46 237 77.5 277 c 128,-1,15
 109 317 109 317 166 337 c 1,16,-1
 166 338 l 1,17,18
 119 357 119 357 92 394.5 c 128,-1,19
 65 432 65 432 65 483 c 0,20,21
 65 569 65 569 128.5 618.5 c 128,-1,0
 192 668 192 668 302 668 c 128,-1,1
302 544 m 128,-1,23
 263 544 263 544 240.5 524 c 128,-1,24
 218 504 218 504 218 468 c 0,25,26
 218 433 218 433 240.5 413 c 128,-1,27
 263 393 263 393 302 393 c 128,-1,28
 341 393 341 393 363.5 413 c 128,-1,29
 386 433 386 433 386 468 c 0,30,31
 386 504 386 504 363.5 524 c 128,-1,22
 341 544 341 544 302 544 c 128,-1,23
303 114 m 0,32,33
 348 114 348 114 373.5 135.5 c 128,-1,34
 399 157 399 157 399 196 c 128,-1,35
 399 235 399 235 373.5 256.5 c 128,-1,36
 348 278 348 278 303 278 c 128,-1,37
 258 278 258 278 232.5 256.5 c 128,-1,38
 207 235 207 235 207 196 c 128,-1,39
 207 157 207 157 232 135.5 c 128,-1,40
 257 114 257 114 303 114 c 0,32,33
EndSplineSet
Substitution2: "'onum' Oldstyle Figures lookup 27 subtable" eight.osf
Substitution2: "'tnum' Tabular Numbers lookup 26 subtable" eight.tf
Substitution2: "'nalt' Alternate Annotation Forms lookup 23 subtable" uni2787
Substitution2: "'frac' Diagonal Fractions lookup 19 subtable" eight.numr
Substitution2: "'dnom' Denominators lookup 17 subtable" eight.dnom
Substitution2: "'numr' Numerators lookup 16 subtable" eight.numr
Substitution2: "'sups' Superscript lookup 15 subtable" uni2078
Substitution2: "'subs' Subscript lookup 14 subtable" uni2088
Substitution2: "'sinf' Scientific Inferiors lookup 13 subtable" uni2088
Substitution2: "'smcp' Lowercase to Small Capitals lookup 12 subtable" eight.sc
Substitution2: "'c2sc' Capitals to Small Capitals lookup 11 subtable" eight.sc
AlternateSubs2: "'aalt' Access All Alternates lookup 1 subtable" eight.sc uni2088 uni2078 eight.numr eight.dnom uni2787 eight.tf eight.osf
EndChar

StartChar: nine
Encoding: 57 57 28
Width: 604
GlyphClass: 2
Flags: W
LayerCount: 2
Fore
SplineSet
289 670 m 0,0,1
 419 670 419 670 489.5 582 c 128,-1,2
 560 494 560 494 560 326 c 0,3,4
 560 153 560 153 490.5 71.5 c 128,-1,5
 421 -10 421 -10 286 -10 c 0,6,7
 100 -10 100 -10 42 134 c 1,8,-1
 199 195 l 1,9,10
 209 157 209 157 229.5 138.5 c 128,-1,11
 250 120 250 120 292 120 c 0,12,13
 353 120 353 120 380.5 167 c 128,-1,14
 408 214 408 214 408 307 c 2,15,-1
 408 323 l 1,16,-1
 404 323 l 1,17,18
 377 239 377 239 252 236 c 0,19,20
 157 234 157 234 97 290.5 c 128,-1,21
 37 347 37 347 37 446 c 0,22,23
 37 549 37 549 104 609.5 c 128,-1,24
 171 670 171 670 289 670 c 0,0,1
286 535 m 128,-1,26
 243 535 243 535 219 512 c 128,-1,27
 195 489 195 489 195 447 c 128,-1,28
 195 405 195 405 219 382 c 128,-1,29
 243 359 243 359 286 359 c 128,-1,30
 329 359 329 359 353 382.5 c 128,-1,31
 377 406 377 406 377 447 c 128,-1,32
 377 488 377 488 353 511.5 c 128,-1,25
 329 535 329 535 286 535 c 128,-1,26
EndSplineSet
Substitution2: "'onum' Oldstyle Figures lookup 27 subtable" nine.osf
Substitution2: "'tnum' Tabular Numbers lookup 26 subtable" nine.tf
Substitution2: "'nalt' Alternate Annotation Forms lookup 23 subtable" uni2788
Substitution2: "'frac' Diagonal Fractions lookup 19 subtable" nine.numr
Substitution2: "'dnom' Denominators lookup 17 subtable" nine.dnom
Substitution2: "'numr' Numerators lookup 16 subtable" nine.numr
Substitution2: "'sups' Superscript lookup 15 subtable" uni2079
Substitution2: "'subs' Subscript lookup 14 subtable" uni2089
Substitution2: "'sinf' Scientific Inferiors lookup 13 subtable" uni2089
Substitution2: "'smcp' Lowercase to Small Capitals lookup 12 subtable" nine.sc
Substitution2: "'c2sc' Capitals to Small Capitals lookup 11 subtable" nine.sc
AlternateSubs2: "'aalt' Access All Alternates lookup 1 subtable" nine.sc uni2089 uni2079 nine.numr nine.dnom uni2788 nine.tf nine.osf
EndChar

StartChar: colon
Encoding: 58 58 29
Width: 302
GlyphClass: 2
Flags: W
LayerCount: 2
Fore
SplineSet
151 510 m 128,-1,1
 198 510 198 510 224.5 486 c 128,-1,2
 251 462 251 462 251 420 c 0,3,4
 251 377 251 377 224.5 353.5 c 128,-1,5
 198 330 198 330 151 330 c 128,-1,6
 104 330 104 330 77.5 353.5 c 128,-1,7
 51 377 51 377 51 420 c 0,8,9
 51 462 51 462 77.5 486 c 128,-1,0
 104 510 104 510 151 510 c 128,-1,1
151 172 m 128,-1,11
 198 172 198 172 224.5 148 c 128,-1,12
 251 124 251 124 251 81 c 0,13,14
 251 39 251 39 224.5 15 c 128,-1,15
 198 -9 198 -9 151 -9 c 128,-1,16
 104 -9 104 -9 77.5 15 c 128,-1,17
 51 39 51 39 51 81 c 0,18,19
 51 124 51 124 77.5 148 c 128,-1,10
 104 172 104 172 151 172 c 128,-1,11
EndSplineSet
Substitution2: "'tnum' Tabular Numbers lookup 26 subtable" colon.tf
Substitution2: "'sups' Superscript lookup 15 subtable" colonsuperior
Substitution2: "'subs' Subscript lookup 14 subtable" coloninferior
Substitution2: "'sinf' Scientific Inferiors lookup 13 subtable" coloninferior
AlternateSubs2: "'aalt' Access All Alternates lookup 1 subtable" coloninferior colonsuperior colon.tf
EndChar

StartChar: semicolon
Encoding: 59 59 30
Width: 302
GlyphClass: 2
Flags: W
LayerCount: 2
Fore
SplineSet
154 330 m 128,-1,1
 107 330 107 330 80.5 353.5 c 128,-1,2
 54 377 54 377 54 420 c 0,3,4
 54 462 54 462 80.5 486 c 128,-1,5
 107 510 107 510 154 510 c 0,6,7
 200 510 200 510 226.5 486 c 128,-1,8
 253 462 253 462 253 420 c 0,9,10
 253 377 253 377 227 353.5 c 128,-1,0
 201 330 201 330 154 330 c 128,-1,1
150 172 m 0,11,12
 203 172 203 172 230.5 136 c 128,-1,13
 258 100 258 100 258 43 c 0,14,15
 258 -23 258 -23 222.5 -76 c 128,-1,16
 187 -129 187 -129 119 -158 c 1,17,-1
 44 -105 l 1,18,19
 143 -68 143 -68 169 2 c 1,20,-1
 164 5 l 1,21,22
 154 -6 154 -6 134 -6 c 0,23,24
 101 -6 101 -6 75.5 15.5 c 128,-1,25
 50 37 50 37 50 78 c 0,26,27
 50 123 50 123 77.5 147.5 c 128,-1,28
 105 172 105 172 150 172 c 0,11,12
EndSplineSet
Substitution2: "'tnum' Tabular Numbers lookup 26 subtable" semicolon.tf
Substitution2: "'aalt' Access All Alternates lookup 0 subtable" semicolon.tf
EndChar

StartChar: less
Encoding: 60 60 31
Width: 604
GlyphClass: 2
Flags: W
LayerCount: 2
Fore
SplineSet
553 588 m 1,0,-1
 553 427 l 1,1,-1
 182 297 l 1,2,-1
 553 166 l 1,3,-1
 553 5 l 1,4,-1
 63 223 l 1,5,-1
 63 370 l 1,6,-1
 553 588 l 1,0,-1
EndSplineSet
EndChar

StartChar: equal
Encoding: 61 61 32
Width: 604
GlyphClass: 2
Flags: W
LayerCount: 2
Fore
SplineSet
539 483 m 1,0,-1
 539 366 l 1,1,-1
 65 366 l 1,2,-1
 65 483 l 1,3,-1
 539 483 l 1,0,-1
539 267 m 1,4,-1
 539 150 l 1,5,-1
 65 150 l 1,6,-1
 65 267 l 1,7,-1
 539 267 l 1,4,-1
EndSplineSet
Substitution2: "'sups' Superscript lookup 15 subtable" uni207C
Substitution2: "'subs' Subscript lookup 14 subtable" uni208C
Substitution2: "'sinf' Scientific Inferiors lookup 13 subtable" uni208C
AlternateSubs2: "'aalt' Access All Alternates lookup 1 subtable" uni208C uni207C
EndChar

StartChar: greater
Encoding: 62 62 33
Width: 604
GlyphClass: 2
Flags: W
LayerCount: 2
Fore
SplineSet
51 588 m 1,0,-1
 541 370 l 1,1,-1
 541 223 l 1,2,-1
 51 5 l 1,3,-1
 51 166 l 1,4,-1
 421 297 l 1,5,-1
 51 427 l 1,6,-1
 51 588 l 1,0,-1
EndSplineSet
EndChar

StartChar: question
Encoding: 63 63 34
Width: 607
GlyphClass: 2
Flags: W
LayerCount: 2
Fore
SplineSet
308 670 m 0,0,1
 426 670 426 670 495.5 625 c 128,-1,2
 565 580 565 580 565 489 c 0,3,4
 565 321 565 321 375 300 c 1,5,-1
 365 214 l 1,6,-1
 219 214 l 1,7,-1
 210 366 l 1,8,9
 302 373 302 373 342 397.5 c 128,-1,10
 382 422 382 422 382 463 c 0,11,12
 382 532 382 532 296 532 c 0,13,14
 252 532 252 532 226 506.5 c 128,-1,15
 200 481 200 481 196 431 c 1,16,-1
 32 494 l 1,17,18
 44 574 44 574 111.5 622 c 128,-1,19
 179 670 179 670 308 670 c 0,0,1
293 161 m 0,20,21
 338 161 338 161 363.5 139 c 128,-1,22
 389 117 389 117 389 77 c 128,-1,23
 389 37 389 37 363.5 14.5 c 128,-1,24
 338 -8 338 -8 293 -8 c 0,25,26
 247 -8 247 -8 221.5 14.5 c 128,-1,27
 196 37 196 37 196 77 c 128,-1,28
 196 117 196 117 221.5 139 c 128,-1,29
 247 161 247 161 293 161 c 0,20,21
EndSplineSet
Substitution2: "'smcp' Lowercase to Small Capitals lookup 12 subtable" question.sc
Substitution2: "'c2sc' Capitals to Small Capitals lookup 11 subtable" question.sc
Substitution2: "'aalt' Access All Alternates lookup 0 subtable" question.sc
EndChar

StartChar: at
Encoding: 64 64 35
Width: 946
GlyphClass: 2
Flags: W
LayerCount: 2
Fore
SplineSet
493 660 m 0,0,1
 680 660 680 660 787.5 553.5 c 128,-1,2
 895 447 895 447 895 260 c 0,3,4
 895 132 895 132 834 66 c 128,-1,5
 773 0 773 0 685 0 c 0,6,7
 583 0 583 0 546 85 c 1,8,9
 491 2 491 2 392 2 c 0,10,11
 318 2 318 2 274 54.5 c 128,-1,12
 230 107 230 107 230 191 c 0,13,14
 230 323 230 323 296 395 c 128,-1,15
 362 467 362 467 461 467 c 0,16,17
 510 467 510 467 537.5 444 c 128,-1,18
 565 421 565 421 573 390 c 1,19,-1
 594 458 l 1,20,-1
 716 458 l 1,21,-1
 671 171 l 2,22,23
 665 127 665 127 676.5 106.5 c 128,-1,24
 688 86 688 86 723 86 c 0,25,26
 765 86 765 86 791 131 c 128,-1,27
 817 176 817 176 817 260 c 0,28,29
 817 417 817 417 731 501 c 128,-1,30
 645 585 645 585 493 585 c 0,31,32
 330 585 330 585 232 488 c 128,-1,33
 134 391 134 391 134 223 c 0,34,35
 134 67 134 67 228 -21.5 c 128,-1,36
 322 -110 322 -110 458 -110 c 0,37,38
 534 -110 534 -110 578 -95.5 c 128,-1,39
 622 -81 622 -81 659 -53 c 1,40,-1
 702 -113 l 1,41,42
 652 -148 652 -148 598 -166 c 128,-1,43
 544 -184 544 -184 455 -184 c 0,44,45
 276 -184 276 -184 162.5 -74.5 c 128,-1,46
 49 35 49 35 49 223 c 0,47,48
 49 419 49 419 173 539.5 c 128,-1,49
 297 660 297 660 493 660 c 0,0,1
480 357 m 0,50,51
 435 357 435 357 405.5 317.5 c 128,-1,52
 376 278 376 278 376 211 c 0,53,54
 376 118 376 118 445 118 c 0,55,56
 476 118 476 118 500 137.5 c 128,-1,57
 524 157 524 157 529 193 c 2,58,-1
 540 274 l 2,59,60
 550 357 550 357 480 357 c 0,50,51
EndSplineSet
Substitution2: "'case' Case-Sensitive Forms lookup 29 subtable" at.case
Substitution2: "'aalt' Access All Alternates lookup 0 subtable" at.case
EndChar

StartChar: A
Encoding: 65 65 36
Width: 677
GlyphClass: 2
Flags: W
LayerCount: 2
Fore
SplineSet
496 0 m 1,0,-1
 451 149 l 1,1,-1
 223 149 l 1,2,-1
 177 0 l 1,3,-1
 4 0 l 1,4,-1
 236 660 l 1,5,-1
 442 660 l 1,6,-1
 673 0 l 1,7,-1
 496 0 l 1,0,-1
259 266 m 1,8,-1
 415 266 l 1,9,-1
 367 424 l 1,10,-1
 338 528 l 1,11,-1
 336 528 l 1,12,-1
 309 425 l 1,13,-1
 259 266 l 1,8,-1
EndSplineSet
Substitution2: "Single Substitution lookup 56 subtable" A.swsh
Substitution2: "Single Substitution lookup 55 subtable" ordfeminine
Substitution2: "'swsh' Swash lookup 32 subtable" A.swsh
Substitution2: "'c2sc' Capitals to Small Capitals lookup 11 subtable" a.sc
AlternateSubs2: "'aalt' Access All Alternates lookup 1 subtable" a.sc ordfeminine A.swsh
EndChar

StartChar: B
Encoding: 66 66 37
Width: 684
GlyphClass: 2
Flags: W
LayerCount: 2
Fore
SplineSet
73 0 m 1,0,-1
 73 660 l 1,1,-1
 394 660 l 2,2,3
 632 659 632 659 632 482 c 0,4,5
 632 424 632 424 598 384 c 128,-1,6
 564 344 564 344 498 334 c 1,7,-1
 498 333 l 1,8,9
 572 323 572 323 610.5 281.5 c 128,-1,10
 649 240 649 240 649 178 c 0,11,12
 649 92 649 92 588 46 c 128,-1,13
 527 0 527 0 409 0 c 2,14,-1
 73 0 l 1,0,-1
239 390 m 1,15,-1
 363 390 l 2,16,17
 456 390 456 390 456 462 c 128,-1,18
 456 534 456 534 363 534 c 2,19,-1
 239 534 l 1,20,-1
 239 390 l 1,15,-1
239 121 m 1,21,-1
 380 121 l 2,22,23
 473 121 473 121 473 195 c 0,24,25
 473 267 473 267 380 267 c 2,26,-1
 239 267 l 1,27,-1
 239 121 l 1,21,-1
EndSplineSet
Substitution2: "'c2sc' Capitals to Small Capitals lookup 11 subtable" b.sc
Substitution2: "'aalt' Access All Alternates lookup 0 subtable" b.sc
EndChar

StartChar: C
Encoding: 67 67 38
Width: 681
GlyphClass: 2
Flags: W
LayerCount: 2
Fore
SplineSet
658 189 m 1,0,1
 630 89 630 89 554 39.5 c 128,-1,2
 478 -10 478 -10 369 -10 c 0,3,4
 218 -10 218 -10 131.5 80.5 c 128,-1,5
 45 171 45 171 45 330 c 128,-1,6
 45 489 45 489 131.5 579.5 c 128,-1,7
 218 670 218 670 368 670 c 0,8,9
 476 670 476 670 551 624.5 c 128,-1,10
 626 579 626 579 650 488 c 1,11,-1
 499 427 l 1,12,13
 485 487 485 487 456 511 c 128,-1,14
 427 535 427 535 374 535 c 0,15,16
 301 535 301 535 261 482.5 c 128,-1,17
 221 430 221 430 221 330 c 128,-1,18
 221 230 221 230 259.5 177.5 c 128,-1,19
 298 125 298 125 371 125 c 0,20,21
 479 125 479 125 502 233 c 1,22,-1
 658 189 l 1,0,1
EndSplineSet
Substitution2: "'c2sc' Capitals to Small Capitals lookup 11 subtable" c.sc
Substitution2: "'aalt' Access All Alternates lookup 0 subtable" c.sc
EndChar

StartChar: D
Encoding: 68 68 39
Width: 718
GlyphClass: 2
Flags: W
LayerCount: 2
Fore
SplineSet
353 660 m 2,0,1
 508 660 508 660 590.5 574.5 c 128,-1,2
 673 489 673 489 673 330 c 128,-1,3
 673 171 673 171 590.5 85.5 c 128,-1,4
 508 0 508 0 353 0 c 2,5,-1
 73 0 l 1,6,-1
 73 660 l 1,7,-1
 353 660 l 2,0,1
336 130 m 2,8,9
 419 130 419 130 458 180 c 128,-1,10
 497 230 497 230 497 330 c 128,-1,11
 497 430 497 430 458 480 c 128,-1,12
 419 530 419 530 336 530 c 2,13,-1
 245 530 l 1,14,-1
 245 130 l 1,15,-1
 336 130 l 2,8,9
EndSplineSet
Substitution2: "'c2sc' Capitals to Small Capitals lookup 11 subtable" d.sc
Substitution2: "'aalt' Access All Alternates lookup 0 subtable" d.sc
EndChar

StartChar: E
Encoding: 69 69 40
Width: 631
GlyphClass: 2
Flags: W
AnchorPoint: "Anchor-0" 333 0 basechar 0
LayerCount: 2
Fore
SplineSet
245 133 m 1,0,-1
 600 133 l 1,1,-1
 600 0 l 1,2,-1
 73 0 l 1,3,-1
 73 660 l 1,4,-1
 587 660 l 1,5,-1
 587 527 l 1,6,-1
 245 527 l 1,7,-1
 245 393 l 1,8,-1
 517 393 l 1,9,-1
 517 268 l 1,10,-1
 245 268 l 1,11,-1
 245 133 l 1,0,-1
EndSplineSet
Substitution2: "Single Substitution lookup 57 subtable" E.swsh.001
Substitution2: "Single Substitution lookup 56 subtable" E.swsh
AlternateSubs2: "'swsh' Swash lookup 33 subtable" E.swsh E.swsh.001
Substitution2: "'c2sc' Capitals to Small Capitals lookup 11 subtable" e.sc
AlternateSubs2: "'aalt' Access All Alternates lookup 1 subtable" e.sc E.swsh E.swsh.001
EndChar

StartChar: F
Encoding: 70 70 41
Width: 612
GlyphClass: 2
Flags: W
LayerCount: 2
Fore
SplineSet
586 527 m 1,0,-1
 245 527 l 1,1,-1
 245 387 l 1,2,-1
 517 387 l 1,3,-1
 517 254 l 1,4,-1
 245 254 l 1,5,-1
 245 0 l 1,6,-1
 73 0 l 1,7,-1
 73 660 l 1,8,-1
 586 660 l 1,9,-1
 586 527 l 1,0,-1
EndSplineSet
Substitution2: "Single Substitution lookup 56 subtable" F.swsh
Substitution2: "'swsh' Swash lookup 34 subtable" F.swsh
Substitution2: "'c2sc' Capitals to Small Capitals lookup 11 subtable" f.sc
AlternateSubs2: "'aalt' Access All Alternates lookup 1 subtable" f.sc F.swsh
EndChar

StartChar: G
Encoding: 71 71 42
Width: 723
GlyphClass: 2
Flags: W
AnchorPoint: "Anchor-0" 389 0 basechar 0
LayerCount: 2
Fore
SplineSet
355 357 m 1,0,-1
 665 357 l 1,1,-1
 665 0 l 1,2,-1
 545 0 l 1,3,-1
 540 78 l 1,4,5
 483 -10 483 -10 351 -10 c 0,6,7
 214 -10 214 -10 129 79.5 c 128,-1,8
 44 169 44 169 44 329 c 0,9,10
 44 488 44 488 132 579 c 128,-1,11
 220 670 220 670 373 670 c 0,12,13
 486 670 486 670 555 630 c 128,-1,14
 624 590 624 590 664 501 c 1,15,-1
 505 438 l 1,16,17
 480 535 480 535 378 535 c 0,18,19
 302 535 302 535 261.5 483 c 128,-1,20
 221 431 221 431 221 330 c 0,21,22
 221 122 221 122 383 122 c 0,23,24
 444 122 444 122 481.5 150 c 128,-1,25
 519 178 519 178 519 231 c 2,26,-1
 519 241 l 1,27,-1
 355 241 l 1,28,-1
 355 357 l 1,0,-1
EndSplineSet
Substitution2: "'ss04' Style Set 4 lookup 50 subtable" G.ss04
Substitution2: "'salt' Stylistic Alternatives lookup 42 subtable" G.ss04
Substitution2: "'c2sc' Capitals to Small Capitals lookup 11 subtable" g.sc
AlternateSubs2: "'aalt' Access All Alternates lookup 1 subtable" g.sc G.ss04
EndChar

StartChar: H
Encoding: 72 72 43
Width: 742
GlyphClass: 2
Flags: W
LayerCount: 2
Fore
SplineSet
497 660 m 1,0,-1
 669 660 l 1,1,-1
 669 0 l 1,2,-1
 497 0 l 1,3,-1
 497 266 l 1,4,-1
 245 266 l 1,5,-1
 245 0 l 1,6,-1
 73 0 l 1,7,-1
 73 660 l 1,8,-1
 245 660 l 1,9,-1
 245 399 l 1,10,-1
 497 399 l 1,11,-1
 497 660 l 1,0,-1
EndSplineSet
Substitution2: "'sups' Superscript lookup 15 subtable" Hsuperior
Substitution2: "'subs' Subscript lookup 14 subtable" Hinferior
Substitution2: "'sinf' Scientific Inferiors lookup 13 subtable" Hinferior
Substitution2: "'c2sc' Capitals to Small Capitals lookup 11 subtable" h.sc
AlternateSubs2: "'aalt' Access All Alternates lookup 1 subtable" h.sc Hinferior Hsuperior
EndChar

StartChar: I
Encoding: 73 73 44
Width: 318
GlyphClass: 2
Flags: W
LayerCount: 2
Fore
SplineSet
245 660 m 1,0,-1
 245 0 l 1,1,-1
 73 0 l 1,2,-1
 73 660 l 1,3,-1
 245 660 l 1,0,-1
EndSplineSet
Substitution2: "'c2sc' Capitals to Small Capitals lookup 11 subtable" i.sc
Substitution2: "'aalt' Access All Alternates lookup 0 subtable" i.sc
EndChar

StartChar: J
Encoding: 74 74 45
Width: 621
GlyphClass: 2
Flags: W
LayerCount: 2
Fore
SplineSet
559 660 m 1,0,-1
 559 254 l 2,1,2
 559 129 559 129 486.5 59.5 c 128,-1,3
 414 -10 414 -10 281 -10 c 0,4,5
 138 -10 138 -10 75.5 64 c 128,-1,6
 13 138 13 138 36 261 c 1,7,-1
 206 291 l 1,8,9
 193 202 193 202 213 163.5 c 128,-1,10
 233 125 233 125 289 125 c 0,11,12
 342 125 342 125 364.5 160 c 128,-1,13
 387 195 387 195 387 272 c 2,14,-1
 387 660 l 1,15,-1
 559 660 l 1,0,-1
EndSplineSet
Substitution2: "'c2sc' Capitals to Small Capitals lookup 11 subtable" j.sc
Substitution2: "'aalt' Access All Alternates lookup 0 subtable" j.sc
EndChar

StartChar: K
Encoding: 75 75 46
Width: 693
GlyphClass: 2
Flags: W
AnchorPoint: "Anchor-0" 363 0 basechar 0
LayerCount: 2
Fore
SplineSet
489 0 m 1,0,-1
 325 283 l 1,1,-1
 245 186 l 1,2,-1
 245 0 l 1,3,-1
 73 0 l 1,4,-1
 73 660 l 1,5,-1
 245 660 l 1,6,-1
 245 367 l 1,7,-1
 481 660 l 1,8,-1
 672 660 l 1,9,-1
 448 392 l 1,10,-1
 684 0 l 1,11,-1
 489 0 l 1,0,-1
EndSplineSet
Substitution2: "'c2sc' Capitals to Small Capitals lookup 11 subtable" k.sc
Substitution2: "'aalt' Access All Alternates lookup 0 subtable" k.sc
EndChar

StartChar: L
Encoding: 76 76 47
Width: 602
GlyphClass: 2
Flags: W
AnchorPoint: "Anchor-0" 336 0 basechar 0
LayerCount: 2
Fore
SplineSet
245 133 m 1,0,-1
 576 133 l 1,1,-1
 576 0 l 1,2,-1
 73 0 l 1,3,-1
 73 660 l 1,4,-1
 245 660 l 1,5,-1
 245 133 l 1,0,-1
EndSplineSet
Substitution2: "Single Substitution lookup 57 subtable" L.swsh
Substitution2: "'swsh' Swash lookup 34 subtable" L.swsh
Substitution2: "'c2sc' Capitals to Small Capitals lookup 11 subtable" l.sc
AlternateSubs2: "'aalt' Access All Alternates lookup 1 subtable" l.sc L.swsh
Position2: "Single Positioning lookup 6 subtable" dx=0 dy=0 dh=-152 dv=0
EndChar

StartChar: M
Encoding: 77 77 48
Width: 910
GlyphClass: 2
Flags: W
LayerCount: 2
Fore
SplineSet
837 660 m 1,0,-1
 837 0 l 1,1,-1
 685 0 l 1,2,-1
 685 303 l 1,3,-1
 690 506 l 1,4,-1
 688 506 l 1,5,-1
 525 0 l 1,6,-1
 386 0 l 1,7,-1
 223 506 l 1,8,-1
 221 506 l 1,9,-1
 226 303 l 1,10,-1
 226 0 l 1,11,-1
 73 0 l 1,12,-1
 73 660 l 1,13,-1
 318 660 l 1,14,-1
 422 324 l 1,15,-1
 459 184 l 1,16,-1
 461 184 l 1,17,-1
 499 323 l 1,18,-1
 602 660 l 1,19,-1
 837 660 l 1,0,-1
EndSplineSet
Substitution2: "Single Substitution lookup 56 subtable" M.swsh
AlternateSubs2: "'swsh' Swash lookup 35 subtable" M.swsh M.swsh.001
Substitution2: "'c2sc' Capitals to Small Capitals lookup 11 subtable" m.sc
AlternateSubs2: "'aalt' Access All Alternates lookup 1 subtable" m.sc M.swsh M.swsh.001
EndChar

StartChar: N
Encoding: 78 78 49
Width: 741
GlyphClass: 2
Flags: W
AnchorPoint: "Anchor-0" 383 0 basechar 0
LayerCount: 2
Fore
SplineSet
668 660 m 1,0,-1
 668 0 l 1,1,-1
 477 0 l 1,2,-1
 272 357 l 1,3,-1
 222 457 l 1,4,-1
 221 457 l 1,5,-1
 225 333 l 1,6,-1
 225 0 l 1,7,-1
 73 0 l 1,8,-1
 73 660 l 1,9,-1
 264 660 l 1,10,-1
 469 303 l 1,11,-1
 519 203 l 1,12,-1
 520 203 l 1,13,-1
 516 327 l 1,14,-1
 516 660 l 1,15,-1
 668 660 l 1,0,-1
EndSplineSet
Substitution2: "Single Substitution lookup 57 subtable" N.swsh
Substitution2: "'swsh' Swash lookup 36 subtable" N.swsh
Substitution2: "'c2sc' Capitals to Small Capitals lookup 11 subtable" n.sc
AlternateSubs2: "'aalt' Access All Alternates lookup 1 subtable" n.sc N.swsh
EndChar

StartChar: O
Encoding: 79 79 50
Width: 737
GlyphClass: 2
Flags: W
LayerCount: 2
Fore
SplineSet
369 670 m 128,-1,1
 520 670 520 670 606 579.5 c 128,-1,2
 692 489 692 489 692 330 c 128,-1,3
 692 171 692 171 606 80.5 c 128,-1,4
 520 -10 520 -10 369 -10 c 128,-1,5
 218 -10 218 -10 131.5 80.5 c 128,-1,6
 45 171 45 171 45 330 c 128,-1,7
 45 489 45 489 131.5 579.5 c 128,-1,0
 218 670 218 670 369 670 c 128,-1,1
369 535 m 128,-1,9
 297 535 297 535 259 483 c 128,-1,10
 221 431 221 431 221 330 c 128,-1,11
 221 229 221 229 259 177 c 128,-1,12
 297 125 297 125 369 125 c 128,-1,13
 441 125 441 125 478.5 177 c 128,-1,14
 516 229 516 229 516 330 c 128,-1,15
 516 431 516 431 478.5 483 c 128,-1,8
 441 535 441 535 369 535 c 128,-1,9
EndSplineSet
Substitution2: "Single Substitution lookup 55 subtable" ordmasculine
Substitution2: "'nalt' Alternate Annotation Forms lookup 23 subtable" indexring
Substitution2: "'sups' Superscript lookup 15 subtable" Osuperior
Substitution2: "'subs' Subscript lookup 14 subtable" Oinferior
Substitution2: "'sinf' Scientific Inferiors lookup 13 subtable" Oinferior
Substitution2: "'c2sc' Capitals to Small Capitals lookup 11 subtable" o.sc
AlternateSubs2: "'aalt' Access All Alternates lookup 1 subtable" o.sc Oinferior Osuperior ordmasculine indexring
EndChar

StartChar: P
Encoding: 80 80 51
Width: 668
GlyphClass: 2
Flags: W
LayerCount: 2
Fore
SplineSet
376 660 m 2,0,1
 499 660 499 660 565 603.5 c 128,-1,2
 631 547 631 547 631 441 c 0,3,4
 631 340 631 340 565 284.5 c 128,-1,5
 499 229 499 229 376 229 c 2,6,-1
 245 229 l 1,7,-1
 245 0 l 1,8,-1
 73 0 l 1,9,-1
 73 660 l 1,10,-1
 376 660 l 2,0,1
349 355 m 2,11,12
 458 355 458 355 458 443 c 0,13,14
 458 530 458 530 349 530 c 2,15,-1
 245 530 l 1,16,-1
 245 355 l 1,17,-1
 349 355 l 2,11,12
EndSplineSet
Substitution2: "'c2sc' Capitals to Small Capitals lookup 11 subtable" p.sc
Substitution2: "'aalt' Access All Alternates lookup 0 subtable" p.sc
EndChar

StartChar: Q
Encoding: 81 81 52
Width: 737
GlyphClass: 2
Flags: W
LayerCount: 2
Fore
SplineSet
523 -70 m 0,0,1
 604 -70 604 -70 646 -31 c 1,2,-1
 687 -156 l 1,3,4
 633 -204 633 -204 517 -204 c 0,5,6
 412 -204 412 -204 358 -151 c 128,-1,7
 304 -98 304 -98 311 -6 c 1,8,9
 186 11 186 11 115.5 99 c 128,-1,10
 45 187 45 187 45 330 c 0,11,12
 45 489 45 489 131.5 579.5 c 128,-1,13
 218 670 218 670 369 670 c 128,-1,14
 520 670 520 670 606 579.5 c 128,-1,15
 692 489 692 489 692 330 c 0,16,17
 692 185 692 185 620.5 97 c 128,-1,18
 549 9 549 9 422 -7 c 1,19,20
 426 -42 426 -42 451.5 -56 c 128,-1,21
 477 -70 477 -70 523 -70 c 0,0,1
221 330 m 128,-1,23
 221 229 221 229 259 177 c 128,-1,24
 297 125 297 125 369 125 c 128,-1,25
 441 125 441 125 478.5 177 c 128,-1,26
 516 229 516 229 516 330 c 128,-1,27
 516 431 516 431 478.5 483 c 128,-1,28
 441 535 441 535 369 535 c 128,-1,29
 297 535 297 535 259 483 c 128,-1,22
 221 431 221 431 221 330 c 128,-1,23
EndSplineSet
Substitution2: "'c2sc' Capitals to Small Capitals lookup 11 subtable" q.sc
Substitution2: "'aalt' Access All Alternates lookup 0 subtable" q.sc
EndChar

StartChar: R
Encoding: 82 82 53
Width: 685
GlyphClass: 2
Flags: W
AnchorPoint: "Anchor-0" 363 0 basechar 0
LayerCount: 2
Fore
SplineSet
73 0 m 1,0,-1
 73 660 l 1,1,-1
 388 660 l 2,2,3
 507 660 507 660 572 607 c 128,-1,4
 637 554 637 554 637 456 c 0,5,6
 637 324 637 324 508 287 c 1,7,-1
 508 285 l 1,8,9
 600 264 600 264 610 171 c 0,10,11
 625 44 625 44 647 4 c 1,12,-1
 647 0 l 1,13,-1
 467 0 l 1,14,15
 462 12 462 12 458.5 29 c 128,-1,16
 455 46 455 46 453 60.5 c 128,-1,17
 451 75 451 75 447.5 103.5 c 128,-1,18
 444 132 444 132 441 154 c 0,19,20
 435 200 435 200 408.5 220.5 c 128,-1,21
 382 241 382 241 329 241 c 2,22,-1
 242 241 l 1,23,-1
 242 0 l 1,24,-1
 73 0 l 1,0,-1
242 363 m 1,25,-1
 359 363 l 2,26,27
 414 363 414 363 439 383 c 128,-1,28
 464 403 464 403 464 447 c 0,29,30
 464 490 464 490 439 510 c 128,-1,31
 414 530 414 530 359 530 c 2,32,-1
 242 530 l 1,33,-1
 242 363 l 1,25,-1
EndSplineSet
Substitution2: "Single Substitution lookup 57 subtable" R.swsh.001
Substitution2: "Single Substitution lookup 56 subtable" R.swsh
Substitution2: "'ss03' Style Set 3 lookup 49 subtable" R.ss03
Substitution2: "'salt' Stylistic Alternatives lookup 42 subtable" R.ss03
AlternateSubs2: "'swsh' Swash lookup 37 subtable" R.swsh R.swsh.001
Substitution2: "'c2sc' Capitals to Small Capitals lookup 11 subtable" r.sc
AlternateSubs2: "'aalt' Access All Alternates lookup 1 subtable" r.sc R.swsh R.swsh.001 R.ss03
EndChar

StartChar: S
Encoding: 83 83 54
Width: 644
GlyphClass: 2
Flags: W
AnchorPoint: "Anchor-0" 346 0 basechar 0
LayerCount: 2
Fore
SplineSet
331 670 m 0,0,1
 425 670 425 670 491.5 642 c 128,-1,2
 558 614 558 614 615 551 c 1,3,-1
 518 439 l 1,4,5
 453 536 453 536 334 536 c 0,6,7
 282 536 282 536 254 518 c 128,-1,8
 226 500 226 500 226 470 c 0,9,10
 226 444 226 444 255 427.5 c 128,-1,11
 284 411 284 411 358 398 c 0,12,13
 494 375 494 375 552 327.5 c 128,-1,14
 610 280 610 280 610 193 c 0,15,16
 610 99 610 99 532 44.5 c 128,-1,17
 454 -10 454 -10 331 -10 c 0,18,19
 219 -10 219 -10 149 17.5 c 128,-1,20
 79 45 79 45 28 102 c 1,21,-1
 117 223 l 1,22,23
 155 168 155 168 204 145.5 c 128,-1,24
 253 123 253 123 322 123 c 0,25,26
 432 123 432 123 432 184 c 0,27,28
 432 207 432 207 404 221.5 c 128,-1,29
 376 236 376 236 303 250 c 0,30,31
 165 275 165 275 106 322.5 c 128,-1,32
 47 370 47 370 47 455 c 0,33,34
 47 550 47 550 122.5 610 c 128,-1,35
 198 670 198 670 331 670 c 0,0,1
EndSplineSet
Substitution2: "Single Substitution lookup 57 subtable" S.swsh
Substitution2: "Single Substitution lookup 56 subtable" S.swsh
Substitution2: "'swsh' Swash lookup 38 subtable" S.swsh
Substitution2: "'c2sc' Capitals to Small Capitals lookup 11 subtable" s.sc
AlternateSubs2: "'aalt' Access All Alternates lookup 1 subtable" s.sc S.swsh
EndChar

StartChar: T
Encoding: 84 84 55
Width: 653
GlyphClass: 2
Flags: W
AnchorPoint: "Anchor-0" 323 0 basechar 0
LayerCount: 2
Fore
SplineSet
628 660 m 1,0,-1
 628 527 l 1,1,-1
 413 527 l 1,2,-1
 413 0 l 1,3,-1
 241 0 l 1,4,-1
 241 527 l 1,5,-1
 25 527 l 1,6,-1
 25 660 l 1,7,-1
 628 660 l 1,0,-1
EndSplineSet
Substitution2: "Single Substitution lookup 56 subtable" T.swsh
Substitution2: "'swsh' Swash lookup 38 subtable" T.swsh
Substitution2: "'c2sc' Capitals to Small Capitals lookup 11 subtable" t.sc
AlternateSubs2: "'aalt' Access All Alternates lookup 1 subtable" t.sc T.swsh
EndChar

StartChar: U
Encoding: 85 85 56
Width: 713
GlyphClass: 2
Flags: W
LayerCount: 2
Fore
SplineSet
651 660 m 1,0,-1
 651 269 l 2,1,2
 651 -10 651 -10 356 -10 c 128,-1,3
 61 -10 61 -10 61 269 c 2,4,-1
 61 660 l 1,5,-1
 234 660 l 1,6,-1
 234 266 l 2,7,8
 234 125 234 125 356 125 c 0,9,10
 480 125 480 125 480 266 c 2,11,-1
 480 660 l 1,12,-1
 651 660 l 1,0,-1
EndSplineSet
Substitution2: "'c2sc' Capitals to Small Capitals lookup 11 subtable" u.sc
Substitution2: "'aalt' Access All Alternates lookup 0 subtable" u.sc
EndChar

StartChar: V
Encoding: 86 86 57
Width: 683
GlyphClass: 2
Flags: W
LayerCount: 2
Fore
SplineSet
677 660 m 1,0,-1
 443 0 l 1,1,-1
 241 0 l 1,2,-1
 6 660 l 1,3,-1
 187 660 l 1,4,-1
 308 261 l 1,5,-1
 344 131 l 1,6,-1
 379 259 l 1,7,-1
 502 660 l 1,8,-1
 677 660 l 1,0,-1
EndSplineSet
Substitution2: "'c2sc' Capitals to Small Capitals lookup 11 subtable" v.sc
Substitution2: "'aalt' Access All Alternates lookup 0 subtable" v.sc
EndChar

StartChar: W
Encoding: 87 87 58
Width: 997
GlyphClass: 2
Flags: W
LayerCount: 2
Fore
SplineSet
470 320 m 1,0,-1
 393 0 l 1,1,-1
 200 0 l 1,2,-1
 10 660 l 1,3,-1
 195 660 l 1,4,-1
 304 135 l 1,5,-1
 423 660 l 1,6,-1
 579 660 l 1,7,-1
 700 136 l 1,8,-1
 809 660 l 1,9,-1
 987 660 l 1,10,-1
 796 0 l 1,11,-1
 609 0 l 1,12,-1
 531 320 l 1,13,-1
 501 481 l 1,14,-1
 499 481 l 1,15,-1
 470 320 l 1,0,-1
EndSplineSet
Substitution2: "Single Substitution lookup 56 subtable" W.swsh
Substitution2: "'swsh' Swash lookup 38 subtable" W.swsh
Substitution2: "'c2sc' Capitals to Small Capitals lookup 11 subtable" w.sc
AlternateSubs2: "'aalt' Access All Alternates lookup 1 subtable" w.sc W.swsh
EndChar

StartChar: X
Encoding: 88 88 59
Width: 663
GlyphClass: 2
Flags: W
LayerCount: 2
Fore
SplineSet
655 0 m 1,0,-1
 450 0 l 1,1,-1
 326 217 l 1,2,-1
 206 0 l 1,3,-1
 11 0 l 1,4,-1
 235 332 l 1,5,-1
 24 660 l 1,6,-1
 227 660 l 1,7,-1
 341 450 l 1,8,-1
 455 660 l 1,9,-1
 641 660 l 1,10,-1
 430 337 l 1,11,-1
 655 0 l 1,0,-1
EndSplineSet
Substitution2: "'c2sc' Capitals to Small Capitals lookup 11 subtable" x.sc
Substitution2: "'aalt' Access All Alternates lookup 0 subtable" x.sc
EndChar

StartChar: Y
Encoding: 89 89 60
Width: 657
GlyphClass: 2
Flags: W
LayerCount: 2
Fore
SplineSet
647 660 m 1,0,-1
 414 241 l 1,1,-1
 414 0 l 1,2,-1
 242 0 l 1,3,-1
 242 241 l 1,4,-1
 9 660 l 1,5,-1
 187 660 l 1,6,-1
 280 479 l 1,7,-1
 329 369 l 1,8,-1
 379 479 l 1,9,-1
 472 660 l 1,10,-1
 647 660 l 1,0,-1
EndSplineSet
Substitution2: "'c2sc' Capitals to Small Capitals lookup 11 subtable" y.sc
Substitution2: "'aalt' Access All Alternates lookup 0 subtable" y.sc
EndChar

StartChar: Z
Encoding: 90 90 61
Width: 634
GlyphClass: 2
Flags: W
LayerCount: 2
Fore
SplineSet
224 130 m 1,0,-1
 603 130 l 1,1,-1
 603 0 l 1,2,-1
 37 0 l 1,3,-1
 37 124 l 1,4,-1
 406 530 l 1,5,-1
 44 530 l 1,6,-1
 44 660 l 1,7,-1
 591 660 l 1,8,-1
 591 536 l 1,9,-1
 224 130 l 1,0,-1
EndSplineSet
Substitution2: "'c2sc' Capitals to Small Capitals lookup 11 subtable" z.sc
Substitution2: "'aalt' Access All Alternates lookup 0 subtable" z.sc
EndChar

StartChar: bracketleft
Encoding: 91 91 62
Width: 391
GlyphClass: 2
Flags: W
LayerCount: 2
Fore
SplineSet
365 594 m 1,0,-1
 232 594 l 1,1,-1
 232 -49 l 1,2,-1
 365 -49 l 1,3,-1
 365 -168 l 1,4,-1
 85 -168 l 1,5,-1
 85 713 l 1,6,-1
 365 713 l 1,7,-1
 365 594 l 1,0,-1
EndSplineSet
Substitution2: "'case' Case-Sensitive Forms lookup 29 subtable" bracketleft.case
Substitution2: "'sups' Superscript lookup 15 subtable" bracketleftsuperior
Substitution2: "'subs' Subscript lookup 14 subtable" bracketleftinferior
Substitution2: "'sinf' Scientific Inferiors lookup 13 subtable" bracketleftinferior
AlternateSubs2: "'aalt' Access All Alternates lookup 1 subtable" bracketleftinferior bracketleftsuperior bracketleft.case
EndChar

StartChar: backslash
Encoding: 92 92 63
Width: 468
GlyphClass: 2
Flags: W
LayerCount: 2
Fore
SplineSet
15 712 m 1,0,-1
 173 712 l 1,1,-1
 453 -70 l 1,2,-1
 295 -70 l 1,3,-1
 15 712 l 1,0,-1
EndSplineSet
EndChar

StartChar: bracketright
Encoding: 93 93 64
Width: 391
GlyphClass: 2
Flags: W
LayerCount: 2
Fore
SplineSet
306 713 m 1,0,-1
 306 -168 l 1,1,-1
 26 -168 l 1,2,-1
 26 -49 l 1,3,-1
 159 -49 l 1,4,-1
 159 594 l 1,5,-1
 26 594 l 1,6,-1
 26 713 l 1,7,-1
 306 713 l 1,0,-1
EndSplineSet
Substitution2: "'case' Case-Sensitive Forms lookup 29 subtable" bracketright.case
Substitution2: "'sups' Superscript lookup 15 subtable" bracketrightsuperior
Substitution2: "'subs' Subscript lookup 14 subtable" bracketrightinferior
Substitution2: "'sinf' Scientific Inferiors lookup 13 subtable" bracketrightinferior
AlternateSubs2: "'aalt' Access All Alternates lookup 1 subtable" bracketrightinferior bracketrightsuperior bracketright.case
EndChar

StartChar: asciicircum
Encoding: 94 94 65
Width: 612
GlyphClass: 2
Flags: W
LayerCount: 2
Fore
SplineSet
588 355 m 1,0,-1
 438 355 l 1,1,-1
 306 615 l 1,2,-1
 175 355 l 1,3,-1
 25 355 l 1,4,-1
 234 724 l 1,5,-1
 378 724 l 1,6,-1
 588 355 l 1,0,-1
EndSplineSet
EndChar

StartChar: underscore
Encoding: 95 95 66
Width: 539
GlyphClass: 2
Flags: W
LayerCount: 2
Fore
SplineSet
539 -66 m 1,0,-1
 539 -201 l 1,1,-1
 0 -201 l 1,2,-1
 0 -66 l 1,3,-1
 539 -66 l 1,0,-1
EndSplineSet
EndChar

StartChar: grave
Encoding: 96 96 67
Width: 500
GlyphClass: 2
Flags: W
LayerCount: 2
Fore
SplineSet
250 738 m 1,0,-1
 317 565 l 1,1,-1
 193 565 l 1,2,-1
 92 738 l 1,3,-1
 250 738 l 1,0,-1
EndSplineSet
EndChar

StartChar: a
Encoding: 97 97 68
Width: 581
GlyphClass: 2
Flags: W
LayerCount: 2
Fore
SplineSet
544 97 m 0,0,1
 563 97 563 97 575 101 c 1,2,-1
 562 6 l 1,3,4
 533 -10 533 -10 494 -10 c 0,5,6
 386 -10 386 -10 365 67 c 1,7,8
 320 -10 320 -10 187 -10 c 0,9,10
 112 -10 112 -10 72 22 c 128,-1,11
 32 54 32 54 32 115 c 0,12,13
 32 179 32 179 77.5 218.5 c 128,-1,14
 123 258 123 258 227 279 c 2,15,-1
 340 301 l 1,16,-1
 340 319 l 2,17,18
 340 353 340 353 321 373 c 128,-1,19
 302 393 302 393 269 393 c 0,20,21
 189 393 189 393 176 316 c 1,22,-1
 38 356 l 1,23,24
 51 429 51 429 110 469.5 c 128,-1,25
 169 510 169 510 269 510 c 0,26,27
 508 510 508 510 508 318 c 2,28,-1
 508 136 l 2,29,30
 508 97 508 97 544 97 c 0,0,1
249 100 m 0,31,32
 284 100 284 100 312 119.5 c 128,-1,33
 340 139 340 139 340 171 c 2,34,-1
 340 214 l 1,35,-1
 259 195 l 2,36,37
 227 187 227 187 213.5 175.5 c 128,-1,38
 200 164 200 164 200 143 c 0,39,40
 200 100 200 100 249 100 c 0,31,32
EndSplineSet
Substitution2: "Single Substitution lookup 55 subtable" ordfeminine
Substitution2: "'smcp' Lowercase to Small Capitals lookup 12 subtable" a.sc
AlternateSubs2: "'aalt' Access All Alternates lookup 1 subtable" a.sc ordfeminine
EndChar

StartChar: b
Encoding: 98 98 69
Width: 628
GlyphClass: 2
Flags: W
LayerCount: 2
Fore
SplineSet
382 510 m 0,0,1
 478 510 478 510 533 441 c 128,-1,2
 588 372 588 372 588 248 c 0,3,4
 588 126 588 126 534 58 c 128,-1,5
 480 -10 480 -10 382 -10 c 0,6,7
 323 -10 323 -10 279.5 21.5 c 128,-1,8
 236 53 236 53 215 106 c 1,9,-1
 210 0 l 1,10,-1
 61 0 l 1,11,-1
 61 712 l 1,12,-1
 231 712 l 1,13,-1
 231 416 l 1,14,15
 276 510 276 510 382 510 c 0,0,1
323 115 m 0,16,17
 417 115 417 115 417 250 c 128,-1,18
 417 385 417 385 323 385 c 0,19,20
 279 385 279 385 255 351 c 128,-1,21
 231 317 231 317 231 255 c 2,22,-1
 231 245 l 2,23,24
 231 181 231 181 255.5 148 c 128,-1,25
 280 115 280 115 323 115 c 0,16,17
EndSplineSet
Substitution2: "'smcp' Lowercase to Small Capitals lookup 12 subtable" b.sc
Substitution2: "'aalt' Access All Alternates lookup 0 subtable" b.sc
EndChar

StartChar: c
Encoding: 99 99 70
Width: 571
GlyphClass: 2
Flags: W
LayerCount: 2
Fore
SplineSet
300 510 m 0,0,1
 413 510 413 510 470 467 c 128,-1,2
 527 424 527 424 541 355 c 1,3,-1
 383 303 l 1,4,5
 373 389 373 389 306 389 c 0,6,7
 207 389 207 389 207 248 c 0,8,9
 207 111 207 111 306 111 c 0,10,11
 377 111 377 111 389 192 c 1,12,-1
 542 143 l 1,13,14
 531 75 531 75 469.5 32.5 c 128,-1,15
 408 -10 408 -10 307 -10 c 0,16,17
 177 -10 177 -10 107 58 c 128,-1,18
 37 126 37 126 37 250 c 0,19,20
 37 373 37 373 106.5 441.5 c 128,-1,21
 176 510 176 510 300 510 c 0,0,1
EndSplineSet
Substitution2: "'smcp' Lowercase to Small Capitals lookup 12 subtable" c.sc
Substitution2: "'aalt' Access All Alternates lookup 0 subtable" c.sc
EndChar

StartChar: d
Encoding: 100 100 71
Width: 628
GlyphClass: 2
Flags: W
LayerCount: 2
Fore
SplineSet
398 712 m 1,0,-1
 568 712 l 1,1,-1
 568 0 l 1,2,-1
 415 0 l 1,3,-1
 409 95 l 1,4,5
 387 46 387 46 344.5 18 c 128,-1,6
 302 -10 302 -10 246 -10 c 0,7,8
 149 -10 149 -10 94.5 58 c 128,-1,9
 40 126 40 126 40 248 c 0,10,11
 40 372 40 372 95 441 c 128,-1,12
 150 510 150 510 247 510 c 0,13,14
 352 510 352 510 398 416 c 1,15,-1
 398 712 l 1,0,-1
305 115 m 0,16,17
 346 115 346 115 370.5 144.5 c 128,-1,18
 395 174 395 174 398 230 c 2,19,-1
 398 270 l 2,20,21
 395 325 395 325 370.5 355 c 128,-1,22
 346 385 346 385 305 385 c 0,23,24
 211 385 211 385 211 250 c 128,-1,25
 211 115 211 115 305 115 c 0,16,17
EndSplineSet
Substitution2: "'smcp' Lowercase to Small Capitals lookup 12 subtable" d.sc
Substitution2: "'aalt' Access All Alternates lookup 0 subtable" d.sc
EndChar

StartChar: e
Encoding: 101 101 72
Width: 582
GlyphClass: 2
Flags: W
AnchorPoint: "Anchor-0" 298 0 basechar 0
LayerCount: 2
Fore
SplineSet
548 257 m 0,0,1
 548 223 548 223 543 201 c 1,2,-1
 202 201 l 1,3,4
 217 110 217 110 307 110 c 0,5,6
 382 110 382 110 399 165 c 1,7,-1
 537 121 l 1,8,9
 516 57 516 57 455.5 23.5 c 128,-1,10
 395 -10 395 -10 307 -10 c 0,11,12
 176 -10 176 -10 106.5 58 c 128,-1,13
 37 126 37 126 37 250 c 128,-1,14
 37 374 37 374 105 442 c 128,-1,15
 173 510 173 510 298 510 c 0,16,17
 419 510 419 510 483.5 443.5 c 128,-1,18
 548 377 548 377 548 257 c 0,0,1
297 391 m 0,19,20
 216 391 216 391 201 293 c 1,21,-1
 389 293 l 1,22,23
 377 391 377 391 297 391 c 0,19,20
EndSplineSet
Substitution2: "'smcp' Lowercase to Small Capitals lookup 12 subtable" e.sc
Substitution2: "'aalt' Access All Alternates lookup 0 subtable" e.sc
EndChar

StartChar: f
Encoding: 102 102 73
Width: 415
GlyphClass: 2
Flags: W
LayerCount: 2
Fore
SplineSet
255 535 m 2,0,-1
 255 500 l 1,1,-1
 407 500 l 1,2,-1
 407 379 l 1,3,-1
 265 379 l 1,4,-1
 265 0 l 1,5,-1
 95 0 l 1,6,-1
 95 379 l 1,7,-1
 15 379 l 1,8,-1
 15 500 l 1,9,-1
 95 500 l 1,10,-1
 95 546 l 2,11,12
 95 636 95 636 151 681 c 128,-1,13
 207 726 207 726 297 726 c 0,14,15
 375 726 375 726 412 697 c 1,16,-1
 395 591 l 1,17,18
 373 607 373 607 338 607 c 0,19,20
 255 607 255 607 255 535 c 2,0,-1
EndSplineSet
Substitution2: "'smcp' Lowercase to Small Capitals lookup 12 subtable" f.sc
Substitution2: "'aalt' Access All Alternates lookup 0 subtable" f.sc
EndChar

StartChar: g
Encoding: 103 103 74
Width: 628
GlyphClass: 2
Flags: W
LayerCount: 2
Fore
SplineSet
416 500 m 1,0,-1
 568 500 l 1,1,-1
 568 40 l 2,2,3
 568 -215 568 -215 287 -215 c 0,4,5
 78 -215 78 -215 55 -69 c 1,6,-1
 218 -26 l 1,7,8
 222 -108 222 -108 304 -108 c 0,9,10
 347 -108 347 -108 372 -80 c 128,-1,11
 397 -52 397 -52 397 -1 c 2,12,-1
 397 91 l 1,13,14
 346 14 346 14 246 14 c 0,15,16
 149 14 149 14 94.5 79 c 128,-1,17
 40 144 40 144 40 260 c 0,18,19
 40 378 40 378 94.5 444 c 128,-1,20
 149 510 149 510 246 510 c 0,21,22
 308 510 308 510 349.5 479.5 c 128,-1,23
 391 449 391 449 410 397 c 1,24,-1
 416 500 l 1,0,-1
305 138 m 0,25,26
 348 138 348 138 372.5 168.5 c 128,-1,27
 397 199 397 199 397 257 c 2,28,-1
 397 266 l 2,29,30
 397 323 397 323 373 354 c 128,-1,31
 349 385 349 385 305 385 c 0,32,33
 211 385 211 385 211 262 c 0,34,35
 211 138 211 138 305 138 c 0,25,26
EndSplineSet
Substitution2: "'ss01' Style Set 1 lookup 47 subtable" g.ss01
Substitution2: "'salt' Stylistic Alternatives lookup 42 subtable" g.ss01
Substitution2: "'smcp' Lowercase to Small Capitals lookup 12 subtable" g.sc
AlternateSubs2: "'aalt' Access All Alternates lookup 1 subtable" g.sc g.ss01
EndChar

StartChar: h
Encoding: 104 104 75
Width: 620
GlyphClass: 2
Flags: W
LayerCount: 2
Fore
SplineSet
389 510 m 0,0,1
 468 510 468 510 515 464 c 128,-1,2
 562 418 562 418 562 333 c 2,3,-1
 562 0 l 1,4,-1
 392 0 l 1,5,-1
 392 286 l 2,6,7
 392 381 392 381 321 381 c 0,8,9
 281 381 281 381 256 352 c 128,-1,10
 231 323 231 323 231 263 c 2,11,-1
 231 0 l 1,12,-1
 61 0 l 1,13,-1
 61 712 l 1,14,-1
 231 712 l 1,15,-1
 231 409 l 1,16,17
 276 510 276 510 389 510 c 0,0,1
EndSplineSet
Substitution2: "'smcp' Lowercase to Small Capitals lookup 12 subtable" h.sc
Substitution2: "'aalt' Access All Alternates lookup 0 subtable" h.sc
EndChar

StartChar: i
Encoding: 105 105 76
Width: 291
GlyphClass: 2
Flags: W
LayerCount: 2
Fore
SplineSet
146 558 m 128,-1,1
 94 558 94 558 70.5 577.5 c 128,-1,2
 47 597 47 597 47 639 c 0,3,4
 47 682 47 682 70.5 701.5 c 128,-1,5
 94 721 94 721 146 721 c 128,-1,6
 198 721 198 721 221.5 701.5 c 128,-1,7
 245 682 245 682 245 639 c 0,8,9
 245 597 245 597 221.5 577.5 c 128,-1,0
 198 558 198 558 146 558 c 128,-1,1
231 500 m 1,10,-1
 231 0 l 1,11,-1
 61 0 l 1,12,-1
 61 500 l 1,13,-1
 231 500 l 1,10,-1
EndSplineSet
Substitution2: "'smcp' Lowercase to Small Capitals lookup 12 subtable" i.sc
Substitution2: "'locl' Localized Forms in Latin lookup 6 subtable" i.loclTRK
Substitution2: "'locl' Localized Forms in Latin lookup 5 subtable" i.loclTRK
Substitution2: "'locl' Localized Forms in Latin lookup 4 subtable" i.loclTRK
Substitution2: "'locl' Localized Forms in Latin lookup 3 subtable" i.loclTRK
Substitution2: "'locl' Localized Forms in Latin lookup 2 subtable" i.loclTRK
Substitution2: "'aalt' Access All Alternates lookup 0 subtable" i.sc
EndChar

StartChar: j
Encoding: 106 106 77
Width: 290
GlyphClass: 2
Flags: W
LayerCount: 2
Fore
SplineSet
145 721 m 0,0,1
 245 721 245 721 245 639 c 0,2,3
 245 558 245 558 145 558 c 0,4,5
 47 558 47 558 47 639 c 0,6,7
 47 721 47 721 145 721 c 0,0,1
231 500 m 1,8,-1
 231 -28 l 2,9,10
 231 -215 231 -215 37 -215 c 0,11,12
 -42 -215 -42 -215 -94 -183 c 1,13,-1
 -70 -73 l 1,14,15
 -47 -93 -47 -93 -7 -93 c 0,16,17
 61 -93 61 -93 61 -13 c 2,18,-1
 61 500 l 1,19,-1
 231 500 l 1,8,-1
EndSplineSet
Substitution2: "'smcp' Lowercase to Small Capitals lookup 12 subtable" j.sc
Substitution2: "'aalt' Access All Alternates lookup 0 subtable" j.sc
EndChar

StartChar: k
Encoding: 107 107 78
Width: 622
GlyphClass: 2
Flags: W
AnchorPoint: "Anchor-0" 328 0 basechar 0
LayerCount: 2
Fore
SplineSet
433 0 m 1,0,-1
 312 205 l 1,1,-1
 231 115 l 1,2,-1
 231 0 l 1,3,-1
 61 0 l 1,4,-1
 61 712 l 1,5,-1
 231 712 l 1,6,-1
 231 290 l 1,7,-1
 422 500 l 1,8,-1
 610 500 l 1,9,-1
 426 304 l 1,10,-1
 621 0 l 1,11,-1
 433 0 l 1,0,-1
EndSplineSet
Substitution2: "'smcp' Lowercase to Small Capitals lookup 12 subtable" k.sc
Substitution2: "'aalt' Access All Alternates lookup 0 subtable" k.sc
EndChar

StartChar: l
Encoding: 108 108 79
Width: 327
GlyphClass: 2
Flags: W
AnchorPoint: "Anchor-0" 190 0 basechar 0
LayerCount: 2
Fore
SplineSet
229 712 m 1,0,-1
 229 173 l 2,1,2
 229 139 229 139 239 125 c 128,-1,3
 249 111 249 111 275 111 c 0,4,5
 299 111 299 111 326 120 c 1,6,-1
 315 15 l 1,7,8
 275 -10 275 -10 211 -10 c 0,9,10
 131 -10 131 -10 95 27.5 c 128,-1,11
 59 65 59 65 59 148 c 2,12,-1
 59 712 l 1,13,-1
 229 712 l 1,0,-1
EndSplineSet
Substitution2: "'ss02' Style Set 2 lookup 48 subtable" l.ss02
Substitution2: "'salt' Stylistic Alternatives lookup 42 subtable" l.ss02
Substitution2: "'smcp' Lowercase to Small Capitals lookup 12 subtable" l.sc
AlternateSubs2: "'aalt' Access All Alternates lookup 1 subtable" l.sc l.ss02
Position2: "Single Positioning lookup 6 subtable" dx=0 dy=0 dh=-40 dv=0
EndChar

StartChar: m
Encoding: 109 109 80
Width: 941
GlyphClass: 2
Flags: W
LayerCount: 2
Fore
SplineSet
712 510 m 0,0,1
 788 510 788 510 835.5 464 c 128,-1,2
 883 418 883 418 883 333 c 2,3,-1
 883 0 l 1,4,-1
 713 0 l 1,5,-1
 713 294 l 2,6,7
 713 380 713 380 645 380 c 0,8,9
 605 380 605 380 581 351 c 128,-1,10
 557 322 557 322 557 267 c 2,11,-1
 557 0 l 1,12,-1
 387 0 l 1,13,-1
 387 294 l 2,14,15
 387 380 387 380 319 380 c 0,16,17
 281 380 281 380 256 351 c 128,-1,18
 231 322 231 322 231 264 c 2,19,-1
 231 0 l 1,20,-1
 61 0 l 1,21,-1
 61 500 l 1,22,-1
 213 500 l 1,23,-1
 218 404 l 1,24,25
 266 510 266 510 386 510 c 0,26,27
 443 510 443 510 484.5 484 c 128,-1,28
 526 458 526 458 544 409 c 1,29,30
 568 458 568 458 612.5 484 c 128,-1,31
 657 510 657 510 712 510 c 0,0,1
EndSplineSet
Substitution2: "'smcp' Lowercase to Small Capitals lookup 12 subtable" m.sc
Substitution2: "'aalt' Access All Alternates lookup 0 subtable" m.sc
EndChar

StartChar: n
Encoding: 110 110 81
Width: 620
GlyphClass: 2
Flags: W
AnchorPoint: "Anchor-0" 319 0 basechar 0
LayerCount: 2
Fore
SplineSet
389 510 m 0,0,1
 468 510 468 510 515 464 c 128,-1,2
 562 418 562 418 562 333 c 2,3,-1
 562 0 l 1,4,-1
 392 0 l 1,5,-1
 392 286 l 2,6,7
 392 380 392 380 321 380 c 0,8,9
 281 380 281 380 256 351.5 c 128,-1,10
 231 323 231 323 231 264 c 2,11,-1
 231 0 l 1,12,-1
 61 0 l 1,13,-1
 61 500 l 1,14,-1
 213 500 l 1,15,-1
 218 404 l 1,16,17
 266 510 266 510 389 510 c 0,0,1
EndSplineSet
Substitution2: "Single Substitution lookup 57 subtable" n.swsh
Substitution2: "'swsh' Swash lookup 38 subtable" n.swsh
Substitution2: "'smcp' Lowercase to Small Capitals lookup 12 subtable" n.sc
AlternateSubs2: "'aalt' Access All Alternates lookup 1 subtable" n.sc n.swsh
EndChar

StartChar: o
Encoding: 111 111 82
Width: 602
GlyphClass: 2
Flags: W
LayerCount: 2
Fore
SplineSet
301 510 m 128,-1,1
 426 510 426 510 495.5 441.5 c 128,-1,2
 565 373 565 373 565 250 c 128,-1,3
 565 127 565 127 495.5 58.5 c 128,-1,4
 426 -10 426 -10 301 -10 c 128,-1,5
 176 -10 176 -10 106.5 58.5 c 128,-1,6
 37 127 37 127 37 250 c 128,-1,7
 37 373 37 373 106.5 441.5 c 128,-1,0
 176 510 176 510 301 510 c 128,-1,1
301 389 m 128,-1,9
 253 389 253 389 230 356 c 128,-1,10
 207 323 207 323 207 250 c 128,-1,11
 207 177 207 177 230 144 c 128,-1,12
 253 111 253 111 301 111 c 128,-1,13
 349 111 349 111 372 144 c 128,-1,14
 395 177 395 177 395 250 c 128,-1,15
 395 323 395 323 372 356 c 128,-1,8
 349 389 349 389 301 389 c 128,-1,9
EndSplineSet
Substitution2: "Single Substitution lookup 55 subtable" ordmasculine
Substitution2: "'smcp' Lowercase to Small Capitals lookup 12 subtable" o.sc
AlternateSubs2: "'aalt' Access All Alternates lookup 1 subtable" o.sc ordmasculine
EndChar

StartChar: p
Encoding: 112 112 83
Width: 628
GlyphClass: 2
Flags: W
LayerCount: 2
Fore
SplineSet
382 510 m 0,0,1
 480 510 480 510 534 442 c 128,-1,2
 588 374 588 374 588 252 c 0,3,4
 588 128 588 128 533 59 c 128,-1,5
 478 -10 478 -10 382 -10 c 0,6,7
 276 -10 276 -10 231 84 c 1,8,-1
 231 -210 l 1,9,-1
 61 -210 l 1,10,-1
 61 500 l 1,11,-1
 210 500 l 1,12,-1
 215 394 l 1,13,14
 236 447 236 447 279.5 478.5 c 128,-1,15
 323 510 323 510 382 510 c 0,0,1
323 115 m 0,16,17
 417 115 417 115 417 250 c 128,-1,18
 417 385 417 385 323 385 c 0,19,20
 280 385 280 385 255.5 352 c 128,-1,21
 231 319 231 319 231 255 c 2,22,-1
 231 245 l 2,23,24
 231 183 231 183 255 149 c 128,-1,25
 279 115 279 115 323 115 c 0,16,17
EndSplineSet
Substitution2: "'smcp' Lowercase to Small Capitals lookup 12 subtable" p.sc
Substitution2: "'aalt' Access All Alternates lookup 0 subtable" p.sc
EndChar

StartChar: q
Encoding: 113 113 84
Width: 629
GlyphClass: 2
Flags: W
LayerCount: 2
Fore
SplineSet
419 500 m 1,0,-1
 568 500 l 1,1,-1
 568 -210 l 1,2,-1
 398 -210 l 1,3,-1
 398 83 l 1,4,5
 352 -10 352 -10 247 -10 c 0,6,7
 150 -10 150 -10 95.5 59 c 128,-1,8
 41 128 41 128 41 252 c 0,9,10
 41 374 41 374 95 442 c 128,-1,11
 149 510 149 510 246 510 c 0,12,13
 305 510 305 510 348.5 479 c 128,-1,14
 392 448 392 448 413 395 c 1,15,-1
 419 500 l 1,0,-1
306 115 m 0,16,17
 350 115 350 115 374 149 c 128,-1,18
 398 183 398 183 398 245 c 2,19,-1
 398 255 l 2,20,21
 398 318 398 318 373.5 351.5 c 128,-1,22
 349 385 349 385 306 385 c 0,23,24
 212 385 212 385 212 250 c 128,-1,25
 212 115 212 115 306 115 c 0,16,17
EndSplineSet
Substitution2: "'smcp' Lowercase to Small Capitals lookup 12 subtable" q.sc
Substitution2: "'aalt' Access All Alternates lookup 0 subtable" q.sc
EndChar

StartChar: r
Encoding: 114 114 85
Width: 430
GlyphClass: 2
Flags: W
AnchorPoint: "Anchor-0" 147 0 basechar 0
LayerCount: 2
Fore
SplineSet
370 510 m 0,0,1
 404 510 404 510 424 499 c 1,2,-1
 406 355 l 1,3,4
 382 370 382 370 343 370 c 0,5,6
 295 370 295 370 263 339.5 c 128,-1,7
 231 309 231 309 231 252 c 2,8,-1
 231 0 l 1,9,-1
 61 0 l 1,10,-1
 61 500 l 1,11,-1
 211 500 l 1,12,-1
 218 392 l 1,13,14
 256 510 256 510 370 510 c 0,0,1
EndSplineSet
Substitution2: "Single Substitution lookup 57 subtable" r.swsh
Substitution2: "'swsh' Swash lookup 38 subtable" r.swsh
Substitution2: "'smcp' Lowercase to Small Capitals lookup 12 subtable" r.sc
AlternateSubs2: "'aalt' Access All Alternates lookup 1 subtable" r.sc r.swsh
EndChar

StartChar: s
Encoding: 115 115 86
Width: 533
GlyphClass: 2
Flags: W
AnchorPoint: "Anchor-0" 276 0 basechar 0
LayerCount: 2
Fore
SplineSet
268 -10 m 0,0,1
 96 -10 96 -10 24 78 c 1,2,-1
 112 174 l 1,3,4
 155 103 155 103 260 103 c 0,5,6
 295 103 295 103 315 112.5 c 128,-1,7
 335 122 335 122 335 138 c 0,8,9
 335 152 335 152 314.5 162.5 c 128,-1,10
 294 173 294 173 244 183 c 0,11,12
 132 205 132 205 84.5 243 c 128,-1,13
 37 281 37 281 37 344 c 0,14,15
 37 411 37 411 100 460.5 c 128,-1,16
 163 510 163 510 278 510 c 0,17,18
 438 510 438 510 507 416 c 1,19,-1
 415 326 l 1,20,21
 375 397 375 397 283 397 c 0,22,23
 247 397 247 397 227 386 c 128,-1,24
 207 375 207 375 207 359 c 0,25,26
 207 344 207 344 227.5 333.5 c 128,-1,27
 248 323 248 323 299 313 c 0,28,29
 409 294 409 294 457.5 256.5 c 128,-1,30
 506 219 506 219 506 154 c 0,31,32
 506 81 506 81 445 35.5 c 128,-1,33
 384 -10 384 -10 268 -10 c 0,0,1
EndSplineSet
Substitution2: "'hist' Historical Forms lookup 44 subtable" longs
Substitution2: "'smcp' Lowercase to Small Capitals lookup 12 subtable" s.sc
AlternateSubs2: "'aalt' Access All Alternates lookup 1 subtable" s.sc longs
EndChar

StartChar: t
Encoding: 116 116 87
Width: 435
GlyphClass: 2
Flags: W
AnchorPoint: "Anchor-0" 253 0 basechar 0
LayerCount: 2
Fore
SplineSet
407 133 m 1,0,-1
 424 28 l 1,1,2
 369 -10 369 -10 283 -10 c 0,3,4
 100 -10 100 -10 99 150 c 2,5,-1
 99 379 l 1,6,-1
 13 379 l 1,7,-1
 13 500 l 1,8,-1
 99 500 l 1,9,-1
 99 612 l 1,10,-1
 269 659 l 1,11,-1
 269 500 l 1,12,-1
 419 500 l 1,13,-1
 419 379 l 1,14,-1
 269 379 l 1,15,-1
 269 178 l 2,16,17
 269 111 269 111 335 111 c 0,18,19
 376 111 376 111 407 133 c 1,0,-1
EndSplineSet
Substitution2: "Single Substitution lookup 57 subtable" t.swsh
Substitution2: "'swsh' Swash lookup 38 subtable" t.swsh
Substitution2: "'smcp' Lowercase to Small Capitals lookup 12 subtable" t.sc
AlternateSubs2: "'aalt' Access All Alternates lookup 1 subtable" t.sc t.swsh
EndChar

StartChar: u
Encoding: 117 117 88
Width: 620
GlyphClass: 2
Flags: W
LayerCount: 2
Fore
SplineSet
389 500 m 1,0,-1
 559 500 l 1,1,-1
 559 0 l 1,2,-1
 407 0 l 1,3,-1
 402 93 l 1,4,5
 355 -10 355 -10 229 -10 c 0,6,7
 58 -10 58 -10 58 166 c 2,8,-1
 58 500 l 1,9,-1
 228 500 l 1,10,-1
 228 209 l 2,11,12
 228 160 228 160 245 140 c 128,-1,13
 262 120 262 120 297 120 c 0,14,15
 339 120 339 120 364 148.5 c 128,-1,16
 389 177 389 177 389 235 c 2,17,-1
 389 500 l 1,0,-1
EndSplineSet
Substitution2: "'smcp' Lowercase to Small Capitals lookup 12 subtable" u.sc
Substitution2: "'aalt' Access All Alternates lookup 0 subtable" u.sc
EndChar

StartChar: v
Encoding: 118 118 89
Width: 561
GlyphClass: 2
Flags: W
LayerCount: 2
Fore
SplineSet
386 500 m 1,0,-1
 562 500 l 1,1,-1
 382 0 l 1,2,-1
 179 0 l 1,3,-1
 -1 500 l 1,4,-1
 178 500 l 1,5,-1
 281 108 l 1,6,-1
 386 500 l 1,0,-1
EndSplineSet
Substitution2: "'smcp' Lowercase to Small Capitals lookup 12 subtable" v.sc
Substitution2: "'aalt' Access All Alternates lookup 0 subtable" v.sc
EndChar

StartChar: w
Encoding: 119 119 90
Width: 908
GlyphClass: 2
Flags: W
LayerCount: 2
Fore
SplineSet
720 500 m 1,0,-1
 898 500 l 1,1,-1
 747 0 l 1,2,-1
 543 0 l 1,3,-1
 453 321 l 1,4,-1
 364 0 l 1,5,-1
 161 0 l 1,6,-1
 9 500 l 1,7,-1
 188 500 l 1,8,-1
 272 123 l 1,9,-1
 370 500 l 1,10,-1
 538 500 l 1,11,-1
 635 123 l 1,12,-1
 720 500 l 1,0,-1
EndSplineSet
Substitution2: "'smcp' Lowercase to Small Capitals lookup 12 subtable" w.sc
Substitution2: "'aalt' Access All Alternates lookup 0 subtable" w.sc
EndChar

StartChar: x
Encoding: 120 120 91
Width: 589
GlyphClass: 2
Flags: W
LayerCount: 2
Fore
SplineSet
583 0 m 1,0,-1
 391 0 l 1,1,-1
 293 174 l 1,2,-1
 193 0 l 1,3,-1
 5 0 l 1,4,-1
 185 253 l 1,5,-1
 12 500 l 1,6,-1
 205 500 l 1,7,-1
 297 333 l 1,8,-1
 391 500 l 1,9,-1
 579 500 l 1,10,-1
 405 252 l 1,11,-1
 583 0 l 1,0,-1
EndSplineSet
Substitution2: "'smcp' Lowercase to Small Capitals lookup 12 subtable" x.sc
Substitution2: "'aalt' Access All Alternates lookup 0 subtable" x.sc
EndChar

StartChar: y
Encoding: 121 121 92
Width: 570
GlyphClass: 2
Flags: W
LayerCount: 2
Fore
SplineSet
570 500 m 1,0,-1
 387 0 l 2,1,2
 346 -119 346 -119 290.5 -167 c 128,-1,3
 235 -215 235 -215 139 -215 c 0,4,5
 54 -215 54 -215 3 -178 c 1,6,-1
 39 -64 l 1,7,8
 68 -90 68 -90 125 -90 c 0,9,10
 156 -90 156 -90 174 -79.5 c 128,-1,11
 192 -69 192 -69 203 -42 c 2,12,-1
 215 -11 l 1,13,-1
 157 125 l 1,14,-1
 8 500 l 1,15,-1
 195 500 l 1,16,-1
 272 215 l 1,17,-1
 296 109 l 1,18,-1
 323 219 l 1,19,-1
 400 500 l 1,20,-1
 570 500 l 1,0,-1
EndSplineSet
Substitution2: "Single Substitution lookup 57 subtable" y.swsh
Substitution2: "'swsh' Swash lookup 38 subtable" y.swsh
Substitution2: "'smcp' Lowercase to Small Capitals lookup 12 subtable" y.sc
AlternateSubs2: "'aalt' Access All Alternates lookup 1 subtable" y.sc y.swsh
EndChar

StartChar: z
Encoding: 122 122 93
Width: 515
GlyphClass: 2
Flags: W
LayerCount: 2
Fore
SplineSet
36 0 m 1,0,-1
 36 104 l 1,1,-1
 234 330 l 1,2,-1
 288 383 l 1,3,-1
 208 381 l 1,4,-1
 37 381 l 1,5,-1
 37 500 l 1,6,-1
 476 500 l 1,7,-1
 476 396 l 1,8,-1
 279 172 l 1,9,-1
 225 117 l 1,10,-1
 313 119 l 1,11,-1
 485 119 l 1,12,-1
 485 0 l 1,13,-1
 36 0 l 1,0,-1
EndSplineSet
Substitution2: "'smcp' Lowercase to Small Capitals lookup 12 subtable" z.sc
Substitution2: "'aalt' Access All Alternates lookup 0 subtable" z.sc
EndChar

StartChar: braceleft
Encoding: 123 123 94
Width: 420
GlyphClass: 2
Flags: W
LayerCount: 2
Fore
SplineSet
289 -1 m 2,0,1
 289 -44 289 -44 314.5 -63.5 c 128,-1,2
 340 -83 340 -83 396 -83 c 1,3,-1
 391 -191 l 1,4,5
 262 -191 262 -191 207.5 -152.5 c 128,-1,6
 153 -114 153 -114 153 -21 c 2,7,-1
 153 113 l 2,8,9
 153 169 153 169 127.5 193 c 128,-1,10
 102 217 102 217 41 217 c 1,11,-1
 41 327 l 1,12,13
 102 327 102 327 127.5 351 c 128,-1,14
 153 375 153 375 153 431 c 2,15,-1
 153 566 l 2,16,17
 153 658 153 658 207.5 697 c 128,-1,18
 262 736 262 736 391 736 c 1,19,-1
 396 628 l 1,20,21
 340 628 340 628 314.5 609 c 128,-1,22
 289 590 289 590 289 547 c 2,23,-1
 289 396 l 2,24,25
 289 301 289 301 189 272 c 1,26,27
 289 244 289 244 289 149 c 2,28,-1
 289 -1 l 2,0,1
EndSplineSet
Substitution2: "'case' Case-Sensitive Forms lookup 29 subtable" braceleft.case
Substitution2: "'aalt' Access All Alternates lookup 0 subtable" braceleft.case
EndChar

StartChar: bar
Encoding: 124 124 95
Width: 320
GlyphClass: 2
Flags: W
LayerCount: 2
Fore
SplineSet
235 713 m 1,0,-1
 235 -168 l 1,1,-1
 85 -168 l 1,2,-1
 85 713 l 1,3,-1
 235 713 l 1,0,-1
EndSplineSet
Substitution2: "'case' Case-Sensitive Forms lookup 29 subtable" bar.case
Substitution2: "'aalt' Access All Alternates lookup 0 subtable" bar.case
EndChar

StartChar: braceright
Encoding: 125 125 96
Width: 420
GlyphClass: 2
Flags: W
LayerCount: 2
Fore
SplineSet
267 431 m 2,0,1
 267 375 267 375 292.5 351 c 128,-1,2
 318 327 318 327 379 327 c 1,3,-1
 379 217 l 1,4,5
 318 217 318 217 292.5 193 c 128,-1,6
 267 169 267 169 267 113 c 2,7,-1
 267 -21 l 2,8,9
 267 -114 267 -114 212.5 -152.5 c 128,-1,10
 158 -191 158 -191 29 -191 c 1,11,-1
 24 -83 l 1,12,13
 80 -83 80 -83 105.5 -63.5 c 128,-1,14
 131 -44 131 -44 131 -1 c 2,15,-1
 131 149 l 2,16,17
 131 244 131 244 232 272 c 1,18,19
 131 301 131 301 131 396 c 2,20,-1
 131 547 l 2,21,22
 131 590 131 590 105.5 609 c 128,-1,23
 80 628 80 628 24 628 c 1,24,-1
 29 736 l 1,25,26
 158 736 158 736 212.5 697 c 128,-1,27
 267 658 267 658 267 566 c 2,28,-1
 267 431 l 2,0,1
EndSplineSet
Substitution2: "'case' Case-Sensitive Forms lookup 29 subtable" braceright.case
Substitution2: "'aalt' Access All Alternates lookup 0 subtable" braceright.case
EndChar

StartChar: asciitilde
Encoding: 126 126 97
Width: 597
GlyphClass: 2
Flags: W
LayerCount: 2
Fore
SplineSet
554 425 m 1,0,1
 545 231 545 231 393 231 c 0,2,3
 353 231 353 231 321 247 c 128,-1,4
 289 263 289 263 265.5 279 c 128,-1,5
 242 295 242 295 223 295 c 0,6,7
 184 295 184 295 175 236 c 1,8,-1
 43 236 l 1,9,10
 52 430 52 430 204 430 c 0,11,12
 244 430 244 430 276 414 c 128,-1,13
 308 398 308 398 331.5 382 c 128,-1,14
 355 366 355 366 374 366 c 0,15,16
 413 366 413 366 422 425 c 1,17,-1
 554 425 l 1,0,1
EndSplineSet
EndChar

StartChar: exclamdown
Encoding: 161 161 99
Width: 298
GlyphClass: 2
Flags: W
LayerCount: 2
Fore
SplineSet
149 341 m 128,-1,1
 104 341 104 341 78.5 363 c 128,-1,2
 53 385 53 385 53 425 c 0,3,4
 53 464 53 464 78.5 486 c 128,-1,5
 104 508 104 508 149 508 c 128,-1,6
 194 508 194 508 220 486 c 128,-1,7
 246 464 246 464 246 425 c 0,8,9
 246 385 246 385 220 363 c 128,-1,0
 194 341 194 341 149 341 c 128,-1,1
61 -160 m 1,10,-1
 61 53 l 1,11,-1
 80 285 l 1,12,-1
 219 285 l 1,13,-1
 238 53 l 1,14,-1
 238 -160 l 1,15,-1
 61 -160 l 1,10,-1
EndSplineSet
Substitution2: "'case' Case-Sensitive Forms lookup 29 subtable" exclamdown.case
Substitution2: "'smcp' Lowercase to Small Capitals lookup 12 subtable" exclamdown.sc
Substitution2: "'c2sc' Capitals to Small Capitals lookup 11 subtable" exclamdown.sc
AlternateSubs2: "'aalt' Access All Alternates lookup 1 subtable" exclamdown.sc exclamdown.case
EndChar

StartChar: cent
Encoding: 162 162 100
Width: 604
GlyphClass: 2
Flags: W
LayerCount: 2
Fore
SplineSet
550 144 m 1,0,1
 544 81 544 81 493 40 c 128,-1,2
 442 -1 442 -1 355 -8 c 1,3,-1
 355 -100 l 1,4,-1
 267 -100 l 1,5,-1
 267 -7 l 1,6,7
 161 6 161 6 104 72.5 c 128,-1,8
 47 139 47 139 47 250 c 128,-1,9
 47 361 47 361 104.5 428.5 c 128,-1,10
 162 496 162 496 267 508 c 1,11,-1
 267 600 l 1,12,-1
 355 600 l 1,13,-1
 355 508 l 1,14,15
 446 500 446 500 493 458.5 c 128,-1,16
 540 417 540 417 549 355 c 1,17,-1
 421 309 l 1,18,19
 409 378 409 378 355 397 c 1,20,-1
 355 101 l 1,21,22
 413 120 413 120 425 187 c 1,23,-1
 550 144 l 1,0,1
196 248 m 0,24,25
 196 128 196 128 267 103 c 1,26,-1
 267 397 l 1,27,28
 196 372 196 372 196 248 c 0,24,25
EndSplineSet
Substitution2: "'tnum' Tabular Numbers lookup 26 subtable" cent.tf
Substitution2: "'aalt' Access All Alternates lookup 0 subtable" cent.tf
EndChar

StartChar: sterling
Encoding: 163 163 101
Width: 604
GlyphClass: 2
Flags: W
LayerCount: 2
Fore
SplineSet
565 176 m 1,0,1
 569 91 569 91 535.5 40.5 c 128,-1,2
 502 -10 502 -10 430 -10 c 0,3,4
 366 -10 366 -10 287 47 c 1,5,6
 233 -10 233 -10 151 -10 c 0,7,8
 97 -10 97 -10 63.5 15 c 128,-1,9
 30 40 30 40 30 83 c 128,-1,10
 30 126 30 126 65.5 151 c 128,-1,11
 101 176 101 176 157 176 c 0,12,13
 192 176 192 176 227 169 c 1,14,15
 226 220 226 220 198 268 c 1,16,-1
 49 268 l 1,17,-1
 49 361 l 1,18,-1
 135 361 l 1,19,20
 97 419 97 419 97 474 c 0,21,22
 97 557 97 557 158 613.5 c 128,-1,23
 219 670 219 670 328 670 c 0,24,25
 423 670 423 670 475.5 627.5 c 128,-1,26
 528 585 528 585 548 496 c 1,27,-1
 413 442 l 1,28,29
 405 497 405 497 382.5 522 c 128,-1,30
 360 547 360 547 321 547 c 0,31,32
 285 547 285 547 264 526.5 c 128,-1,33
 243 506 243 506 243 469 c 0,34,35
 243 435 243 435 284 372 c 0,36,37
 288 366 288 366 291 361 c 1,38,-1
 482 361 l 1,39,-1
 482 268 l 1,40,-1
 337 268 l 1,41,42
 345 240 345 240 345 201 c 128,-1,43
 345 162 345 162 332 123 c 1,44,45
 368 105 368 105 401 105 c 0,46,47
 464 105 464 105 461 188 c 1,48,-1
 565 176 l 1,0,1
156 54 m 0,49,50
 200 54 200 54 217 95 c 1,51,52
 187 111 187 111 156 111 c 0,53,54
 118 111 118 111 118 83 c 0,55,56
 118 54 118 54 156 54 c 0,49,50
EndSplineSet
Substitution2: "'tnum' Tabular Numbers lookup 26 subtable" sterling.tf
Substitution2: "'aalt' Access All Alternates lookup 0 subtable" sterling.tf
EndChar

StartChar: currency
Encoding: 164 164 102
Width: 604
GlyphClass: 2
Flags: W
LayerCount: 2
Fore
SplineSet
515 330 m 128,-1,1
 515 274 515 274 491 226 c 1,2,-1
 589 140 l 1,3,-1
 490 43 l 1,4,-1
 401 141 l 1,5,6
 358 121 358 121 303 121 c 128,-1,7
 248 121 248 121 201 143 c 1,8,-1
 113 43 l 1,9,-1
 15 140 l 1,10,-1
 113 228 l 1,11,12
 89 272 89 272 89 330 c 0,13,14
 89 387 89 387 113 432 c 1,15,-1
 15 518 l 1,16,-1
 113 616 l 1,17,-1
 202 516 l 1,18,19
 246 537 246 537 303 537 c 0,20,21
 358 537 358 537 402 516 c 1,22,-1
 490 616 l 1,23,-1
 589 518 l 1,24,-1
 492 430 l 1,25,0
 515 386 515 386 515 330 c 128,-1,1
303 242 m 0,26,27
 340 242 340 242 362.5 266 c 128,-1,28
 385 290 385 290 385 330 c 0,29,30
 385 369 385 369 362.5 393 c 128,-1,31
 340 417 340 417 303 417 c 0,32,33
 265 417 265 417 241.5 393 c 128,-1,34
 218 369 218 369 218 330 c 0,35,36
 218 290 218 290 241.5 266 c 128,-1,37
 265 242 265 242 303 242 c 0,26,27
EndSplineSet
Substitution2: "'tnum' Tabular Numbers lookup 26 subtable" currency.tf
Substitution2: "'aalt' Access All Alternates lookup 0 subtable" currency.tf
EndChar

StartChar: yen
Encoding: 165 165 103
Width: 604
GlyphClass: 2
Flags: W
LayerCount: 2
Fore
SplineSet
399 304 m 1,0,-1
 446 305 l 1,1,-1
 552 305 l 1,2,-1
 552 245 l 1,3,-1
 381 245 l 1,4,-1
 381 179 l 1,5,-1
 552 179 l 1,6,-1
 552 121 l 1,7,-1
 381 121 l 1,8,-1
 381 0 l 1,9,-1
 223 0 l 1,10,-1
 223 121 l 1,11,-1
 52 121 l 1,12,-1
 52 179 l 1,13,-1
 223 179 l 1,14,-1
 223 245 l 1,15,-1
 52 245 l 1,16,-1
 52 305 l 1,17,-1
 158 305 l 1,18,-1
 205 304 l 1,19,-1
 18 660 l 1,20,-1
 178 660 l 1,21,-1
 267 451 l 1,22,-1
 301 348 l 1,23,-1
 303 348 l 1,24,-1
 337 452 l 1,25,-1
 426 660 l 1,26,-1
 586 660 l 1,27,-1
 399 304 l 1,0,-1
EndSplineSet
Substitution2: "'tnum' Tabular Numbers lookup 26 subtable" yen.tf
Substitution2: "'aalt' Access All Alternates lookup 0 subtable" yen.tf
EndChar

StartChar: brokenbar
Encoding: 166 166 104
Width: 272
GlyphClass: 2
Flags: W
LayerCount: 2
Fore
SplineSet
211 713 m 1,0,-1
 211 333 l 1,1,-1
 61 333 l 1,2,-1
 61 713 l 1,3,-1
 211 713 l 1,0,-1
211 212 m 1,4,-1
 211 -168 l 1,5,-1
 61 -168 l 1,6,-1
 61 212 l 1,7,-1
 211 212 l 1,4,-1
EndSplineSet
EndChar

StartChar: section
Encoding: 167 167 105
Width: 623
GlyphClass: 2
Flags: W
LayerCount: 2
Fore
SplineSet
600 278 m 0,0,1
 600 187 600 187 525 132 c 1,2,3
 541 103 541 103 541 60 c 0,4,5
 541 -19 541 -19 479 -64.5 c 128,-1,6
 417 -110 417 -110 309 -110 c 0,7,8
 223 -110 223 -110 169.5 -86.5 c 128,-1,9
 116 -63 116 -63 76 -14 c 1,10,-1
 164 68 l 1,11,12
 189 32 189 32 221.5 16.5 c 128,-1,13
 254 1 254 1 307 1 c 0,14,15
 414 1 414 1 414 45 c 0,16,17
 414 71 414 71 384.5 85.5 c 128,-1,18
 355 100 355 100 278 108 c 0,19,20
 144 121 144 121 84 161 c 128,-1,21
 24 201 24 201 24 274 c 0,22,23
 24 367 24 367 99 419 c 1,24,25
 83 450 83 450 83 491 c 0,26,27
 83 572 83 572 146 621 c 128,-1,28
 209 670 209 670 318 670 c 0,29,30
 405 670 405 670 456.5 646.5 c 128,-1,31
 508 623 508 623 548 574 c 1,32,-1
 461 493 l 1,33,34
 434 528 434 528 402 543.5 c 128,-1,35
 370 559 370 559 318 559 c 128,-1,36
 266 559 266 559 238 545 c 128,-1,37
 210 531 210 531 210 507 c 0,38,39
 210 481 210 481 239.5 466.5 c 128,-1,40
 269 452 269 452 346 444 c 0,41,42
 480 431 480 431 540 391 c 128,-1,43
 600 351 600 351 600 278 c 0,0,1
145 299 m 0,44,45
 145 272 145 272 175.5 258 c 128,-1,46
 206 244 206 244 285 236 c 0,47,48
 387 225 387 225 439 203 c 1,49,50
 479 222 479 222 479 253 c 0,51,52
 479 279 479 279 448.5 293.5 c 128,-1,53
 418 308 418 308 339 316 c 0,54,55
 243 325 243 325 184 349 c 1,56,57
 145 330 145 330 145 299 c 0,44,45
EndSplineSet
EndChar

StartChar: dieresis
Encoding: 168 168 106
Width: 500
GlyphClass: 2
Flags: W
LayerCount: 2
Fore
SplineSet
140 710 m 0,0,1
 180 710 180 710 203 689.5 c 128,-1,2
 226 669 226 669 226 633 c 128,-1,3
 226 597 226 597 203 576.5 c 128,-1,4
 180 556 180 556 140 556 c 0,5,6
 101 556 101 556 78.5 576.5 c 128,-1,7
 56 597 56 597 56 633 c 128,-1,8
 56 669 56 669 78.5 689.5 c 128,-1,9
 101 710 101 710 140 710 c 0,0,1
360 710 m 0,10,11
 400 710 400 710 423 689.5 c 128,-1,12
 446 669 446 669 446 633 c 128,-1,13
 446 597 446 597 423 576.5 c 128,-1,14
 400 556 400 556 360 556 c 0,15,16
 321 556 321 556 298.5 576.5 c 128,-1,17
 276 597 276 597 276 633 c 128,-1,18
 276 669 276 669 298.5 689.5 c 128,-1,19
 321 710 321 710 360 710 c 0,10,11
EndSplineSet
EndChar

StartChar: copyright
Encoding: 169 169 107
Width: 772
GlyphClass: 2
Flags: W
LayerCount: 2
Fore
SplineSet
386 670 m 128,-1,1
 542 670 542 670 636 577 c 128,-1,2
 730 484 730 484 730 330 c 128,-1,3
 730 176 730 176 636 83 c 128,-1,4
 542 -10 542 -10 386 -10 c 128,-1,5
 230 -10 230 -10 136 83 c 128,-1,6
 42 176 42 176 42 330 c 128,-1,7
 42 484 42 484 136 577 c 128,-1,0
 230 670 230 670 386 670 c 128,-1,1
386 586 m 128,-1,9
 270 586 270 586 200.5 516 c 128,-1,10
 131 446 131 446 131 330 c 128,-1,11
 131 214 131 214 200.5 144 c 128,-1,12
 270 74 270 74 386 74 c 128,-1,13
 502 74 502 74 571.5 144 c 128,-1,14
 641 214 641 214 641 330 c 128,-1,15
 641 446 641 446 571.5 516 c 128,-1,8
 502 586 502 586 386 586 c 128,-1,9
382 520 m 0,16,17
 524 520 524 520 562 410 c 1,18,-1
 466 363 l 1,19,20
 447 404 447 404 393 404 c 0,21,22
 323 404 323 404 323 329 c 128,-1,23
 323 254 323 254 393 254 c 0,24,25
 452 254 452 254 470 299 c 1,26,-1
 561 254 l 1,27,28
 536 192 536 192 496 165 c 128,-1,29
 456 138 456 138 382 138 c 0,30,31
 300 138 300 138 252 189.5 c 128,-1,32
 204 241 204 241 204 329 c 128,-1,33
 204 417 204 417 252 468.5 c 128,-1,34
 300 520 300 520 382 520 c 0,16,17
EndSplineSet
EndChar

StartChar: ordfeminine
Encoding: 170 170 108
Width: 438
GlyphClass: 2
Flags: W
LayerCount: 2
Fore
SplineSet
392 382 m 0,0,1
 406 382 406 382 412 385 c 1,2,-1
 403 318 l 1,3,4
 377 306 377 306 347 306 c 0,5,6
 277 306 277 306 260 362 c 1,7,8
 223 306 223 306 133 306 c 0,9,10
 23 306 23 306 23 390 c 0,11,12
 23 434 23 434 55 460 c 128,-1,13
 87 486 87 486 159 501 c 2,14,-1
 239 517 l 1,15,-1
 239 529 l 2,16,17
 239 577 239 577 190 577 c 0,18,19
 140 577 140 577 130 526 c 1,20,-1
 28 550 l 1,21,22
 36 603 36 603 79 632.5 c 128,-1,23
 122 662 122 662 197 662 c 0,24,25
 365 662 365 662 365 527 c 2,26,-1
 365 412 l 2,27,28
 365 382 365 382 392 382 c 0,0,1
182 381 m 0,29,30
 205 381 205 381 222 393.5 c 128,-1,31
 239 406 239 406 239 429 c 2,32,-1
 239 465 l 1,33,-1
 196 455 l 2,34,35
 144 443 144 443 144 411 c 0,36,37
 144 381 144 381 182 381 c 0,29,30
34 151 m 1,38,-1
 34 240 l 1,39,-1
 399 240 l 1,40,-1
 399 151 l 1,41,-1
 34 151 l 1,38,-1
EndSplineSet
EndChar

StartChar: guillemotleft
Encoding: 171 171 109
Width: 585
GlyphClass: 2
Flags: W
LayerCount: 2
Fore
SplineSet
308 461 m 1,0,-1
 187 265 l 1,1,-1
 308 69 l 1,2,-1
 160 69 l 1,3,-1
 35 265 l 1,4,-1
 160 461 l 1,5,-1
 308 461 l 1,0,-1
550 461 m 1,6,-1
 429 265 l 1,7,-1
 550 69 l 1,8,-1
 403 69 l 1,9,-1
 277 265 l 1,10,-1
 403 461 l 1,11,-1
 550 461 l 1,6,-1
EndSplineSet
Substitution2: "'case' Case-Sensitive Forms lookup 29 subtable" guillemotleft.case
Substitution2: "'aalt' Access All Alternates lookup 0 subtable" guillemotleft.case
EndChar

StartChar: logicalnot
Encoding: 172 172 110
Width: 604
GlyphClass: 2
Flags: W
LayerCount: 2
Fore
SplineSet
60 386 m 1,0,-1
 544 386 l 1,1,-1
 544 97 l 1,2,-1
 407 97 l 1,3,-1
 407 264 l 1,4,-1
 60 264 l 1,5,-1
 60 386 l 1,0,-1
EndSplineSet
EndChar

StartChar: uni00AD
Encoding: 173 173 111
Width: 528
GlyphClass: 2
Flags: W
LayerCount: 2
Fore
SplineSet
447 337 m 1,0,-1
 447 198 l 1,1,-1
 81 198 l 1,2,-1
 81 337 l 1,3,-1
 447 337 l 1,0,-1
EndSplineSet
EndChar

StartChar: registered
Encoding: 174 174 112
Width: 772
GlyphClass: 2
Flags: W
LayerCount: 2
Fore
SplineSet
386 670 m 128,-1,1
 542 670 542 670 636 577 c 128,-1,2
 730 484 730 484 730 330 c 128,-1,3
 730 176 730 176 636 83 c 128,-1,4
 542 -10 542 -10 386 -10 c 128,-1,5
 230 -10 230 -10 136 83 c 128,-1,6
 42 176 42 176 42 330 c 128,-1,7
 42 484 42 484 136 577 c 128,-1,0
 230 670 230 670 386 670 c 128,-1,1
386 74 m 128,-1,9
 502 74 502 74 571.5 144 c 128,-1,10
 641 214 641 214 641 330 c 128,-1,11
 641 446 641 446 571.5 516 c 128,-1,12
 502 586 502 586 386 586 c 128,-1,13
 270 586 270 586 200.5 516 c 128,-1,14
 131 446 131 446 131 330 c 128,-1,15
 131 214 131 214 200.5 144 c 128,-1,8
 270 74 270 74 386 74 c 128,-1,9
550 396 m 0,16,17
 550 312 550 312 471 286 c 1,18,-1
 558 151 l 1,19,-1
 437 151 l 1,20,-1
 372 276 l 1,21,-1
 344 276 l 1,22,-1
 344 151 l 1,23,-1
 243 151 l 1,24,-1
 243 515 l 1,25,-1
 419 515 l 2,26,27
 475 515 475 515 512.5 481.5 c 128,-1,28
 550 448 550 448 550 396 c 0,16,17
344 431 m 1,29,-1
 344 345 l 1,30,-1
 395 345 l 2,31,32
 447 345 447 345 447 388 c 128,-1,33
 447 431 447 431 395 431 c 2,34,-1
 344 431 l 1,29,-1
EndSplineSet
Substitution2: "'ordn' Ordinals lookup 22 subtable" registeredsuperior
Substitution2: "'sups' Superscript lookup 15 subtable" registeredsuperior
Substitution2: "'aalt' Access All Alternates lookup 0 subtable" registeredsuperior
EndChar

StartChar: macron
Encoding: 175 175 113
Width: 500
GlyphClass: 2
Flags: W
LayerCount: 2
Fore
SplineSet
436 674 m 1,0,-1
 436 569 l 1,1,-1
 64 569 l 1,2,-1
 64 674 l 1,3,-1
 436 674 l 1,0,-1
EndSplineSet
EndChar

StartChar: degree
Encoding: 176 176 114
Width: 495
GlyphClass: 2
Flags: W
LayerCount: 2
Fore
SplineSet
248 298 m 0,0,1
 155 298 155 298 100.5 348.5 c 128,-1,2
 46 399 46 399 46 484 c 128,-1,3
 46 569 46 569 100.5 619.5 c 128,-1,4
 155 670 155 670 248 670 c 0,5,6
 340 670 340 670 395 619.5 c 128,-1,7
 450 569 450 569 450 484 c 128,-1,8
 450 399 450 399 395 348.5 c 128,-1,9
 340 298 340 298 248 298 c 0,0,1
248 407 m 0,10,11
 282 407 282 407 304 428.5 c 128,-1,12
 326 450 326 450 326 485 c 0,13,14
 326 519 326 519 304 540.5 c 128,-1,15
 282 562 282 562 248 562 c 0,16,17
 213 562 213 562 191 540.5 c 128,-1,18
 169 519 169 519 169 485 c 0,19,20
 169 450 169 450 191 428.5 c 128,-1,21
 213 407 213 407 248 407 c 0,10,11
EndSplineSet
EndChar

StartChar: plusminus
Encoding: 177 177 115
Width: 604
GlyphClass: 2
Flags: W
LayerCount: 2
Fore
SplineSet
364 477 m 1,0,-1
 553 477 l 1,1,-1
 553 360 l 1,2,-1
 364 360 l 1,3,-1
 364 185 l 1,4,-1
 241 185 l 1,5,-1
 241 360 l 1,6,-1
 51 360 l 1,7,-1
 51 477 l 1,8,-1
 241 477 l 1,9,-1
 241 652 l 1,10,-1
 364 652 l 1,11,-1
 364 477 l 1,0,-1
51 1 m 1,12,-1
 51 115 l 1,13,-1
 553 115 l 1,14,-1
 553 1 l 1,15,-1
 51 1 l 1,12,-1
EndSplineSet
EndChar

StartChar: uni00B2
Encoding: 178 178 116
Width: 392
GlyphClass: 2
Flags: W
LayerCount: 2
Fore
SplineSet
29 333 m 1,0,-1
 29 410 l 1,1,2
 94 446 94 446 118 462 c 0,3,4
 235 541 235 541 235 595 c 0,5,6
 235 640 235 640 188 640 c 0,7,8
 134 640 134 640 134 564 c 1,9,-1
 15 596 l 1,10,11
 16 662 16 662 63.5 698.5 c 128,-1,12
 111 735 111 735 191 735 c 0,13,14
 279 735 279 735 322 696.5 c 128,-1,15
 365 658 365 658 365 605 c 0,16,17
 365 531 365 531 268 466 c 0,18,19
 232 443 232 443 191 428 c 1,20,-1
 191 426 l 1,21,22
 233 430 233 430 282 430 c 2,23,-1
 370 430 l 1,24,-1
 370 333 l 1,25,-1
 29 333 l 1,0,-1
EndSplineSet
EndChar

StartChar: uni00B3
Encoding: 179 179 117
Width: 379
GlyphClass: 2
Flags: W
LayerCount: 2
Fore
SplineSet
188 735 m 0,0,1
 265 735 265 735 306 705.5 c 128,-1,2
 347 676 347 676 347 622 c 0,3,4
 347 582 347 582 324 558.5 c 128,-1,5
 301 535 301 535 263 533 c 1,6,-1
 263 530 l 1,7,8
 306 529 306 529 330.5 507 c 128,-1,9
 355 485 355 485 355 445 c 0,10,11
 355 391 355 391 311 359 c 128,-1,12
 267 327 267 327 192 327 c 0,13,14
 44 327 44 327 9 428 c 1,15,-1
 124 470 l 1,16,17
 128 416 128 416 183 416 c 0,18,19
 206 416 206 416 219.5 427.5 c 128,-1,20
 233 439 233 439 233 459 c 0,21,22
 233 495 233 495 183 495 c 2,23,-1
 160 495 l 1,24,-1
 160 560 l 1,25,-1
 179 560 l 2,26,27
 226 560 226 560 226 600 c 0,28,29
 226 641 226 641 182 641 c 0,30,31
 135 641 135 641 129 589 c 1,32,-1
 19 626 l 1,33,34
 28 681 28 681 74 708 c 128,-1,35
 120 735 120 735 188 735 c 0,0,1
EndSplineSet
EndChar

StartChar: acute
Encoding: 180 180 118
Width: 500
GlyphClass: 2
Flags: W
LayerCount: 2
Fore
SplineSet
250 738 m 1,0,-1
 408 738 l 1,1,-1
 307 565 l 1,2,-1
 183 565 l 1,3,-1
 250 738 l 1,0,-1
EndSplineSet
EndChar

StartChar: uni00B5
Encoding: 181 181 119
Width: 617
GlyphClass: 2
Flags: W
LayerCount: 2
Fore
SplineSet
389 500 m 1,0,-1
 559 500 l 1,1,-1
 559 0 l 1,2,-1
 409 0 l 1,3,-1
 403 92 l 1,4,5
 361 -10 361 -10 250 -10 c 0,6,7
 235 -10 235 -10 228 -9 c 1,8,-1
 228 -210 l 1,9,-1
 58 -210 l 1,10,-1
 58 500 l 1,11,-1
 228 500 l 1,12,-1
 228 209 l 2,13,14
 228 160 228 160 245.5 140 c 128,-1,15
 263 120 263 120 298 120 c 0,16,17
 381 120 381 120 389 217 c 1,18,-1
 389 500 l 1,0,-1
EndSplineSet
EndChar

StartChar: paragraph
Encoding: 182 182 120
Width: 740
GlyphClass: 2
Flags: W
LayerCount: 2
Fore
SplineSet
674 660 m 1,0,-1
 674 -100 l 1,1,-1
 536 -100 l 1,2,-1
 536 530 l 1,3,-1
 428 530 l 1,4,-1
 428 -100 l 1,5,-1
 289 -100 l 1,6,-1
 289 231 l 1,7,8
 165 232 165 232 99.5 286.5 c 128,-1,9
 34 341 34 341 34 445 c 0,10,11
 34 660 34 660 310 660 c 2,12,-1
 674 660 l 1,0,-1
EndSplineSet
Substitution2: "'ornm' Ornaments lookup 40 subtable" uni2761
Substitution2: "'aalt' Access All Alternates lookup 0 subtable" uni2761
EndChar

StartChar: periodcentered
Encoding: 183 183 121
Width: 274
GlyphClass: 2
Flags: W
LayerCount: 2
Fore
SplineSet
137 443 m 128,-1,1
 184 443 184 443 210.5 419.5 c 128,-1,2
 237 396 237 396 237 353 c 0,3,4
 237 311 237 311 210.5 287 c 128,-1,5
 184 263 184 263 137 263 c 128,-1,6
 90 263 90 263 63.5 287 c 128,-1,7
 37 311 37 311 37 353 c 0,8,9
 37 396 37 396 63.5 419.5 c 128,-1,0
 90 443 90 443 137 443 c 128,-1,1
EndSplineSet
Substitution2: "Single Substitution lookup 55 subtable" periodcentered.loclCAT.sc
Substitution2: "Single Substitution lookup 54 subtable" periodcentered.loclCAT.case
Substitution2: "Single Substitution lookup 53 subtable" periodcentered.loclCAT
Substitution2: "'case' Case-Sensitive Forms lookup 29 subtable" periodcentered.case
Substitution2: "'smcp' Lowercase to Small Capitals lookup 12 subtable" periodcentered.sc
Substitution2: "'c2sc' Capitals to Small Capitals lookup 11 subtable" periodcentered.sc
AlternateSubs2: "'aalt' Access All Alternates lookup 1 subtable" periodcentered.sc periodcentered.case
Position2: "Single Positioning lookup 6 subtable" dx=0 dy=0 dh=-30 dv=0
EndChar

StartChar: cedilla
Encoding: 184 184 122
Width: 500
GlyphClass: 2
Flags: W
LayerCount: 2
Fore
SplineSet
182 2 m 1,0,-1
 224 37 l 1,1,2
 304 26 304 26 347.5 -10.5 c 128,-1,3
 391 -47 391 -47 391 -97 c 0,4,5
 391 -154 391 -154 352 -184.5 c 128,-1,6
 313 -215 313 -215 248 -215 c 0,7,8
 167 -215 167 -215 124 -175 c 1,9,-1
 163 -96 l 1,10,11
 191 -124 191 -124 235 -124 c 0,12,13
 260 -124 260 -124 275 -111 c 128,-1,14
 290 -98 290 -98 290 -75 c 0,15,16
 290 -48 290 -48 267 -30 c 128,-1,17
 244 -12 244 -12 182 2 c 1,0,-1
EndSplineSet
EndChar

StartChar: uni00B9
Encoding: 185 185 123
Width: 298
GlyphClass: 2
Flags: W
LayerCount: 2
Fore
SplineSet
152 730 m 1,0,-1
 256 730 l 1,1,-1
 256 333 l 1,2,-1
 133 333 l 1,3,-1
 133 549 l 2,4,5
 133 575 133 575 136 614 c 1,6,7
 77 569 77 569 19 565 c 1,8,-1
 19 666 l 1,9,10
 52 671 52 671 94 690.5 c 128,-1,11
 136 710 136 710 152 730 c 1,0,-1
EndSplineSet
EndChar

StartChar: ordmasculine
Encoding: 186 186 124
Width: 422
GlyphClass: 2
Flags: W
LayerCount: 2
Fore
SplineSet
211 306 m 0,0,1
 126 306 126 306 78 353 c 128,-1,2
 30 400 30 400 30 484 c 128,-1,3
 30 568 30 568 78 615 c 128,-1,4
 126 662 126 662 211 662 c 0,5,6
 297 662 297 662 345 615 c 128,-1,7
 393 568 393 568 393 484 c 128,-1,8
 393 400 393 400 345 353 c 128,-1,9
 297 306 297 306 211 306 c 0,0,1
211 388 m 0,10,11
 240 388 240 388 253 411 c 128,-1,12
 266 434 266 434 266 484 c 128,-1,13
 266 534 266 534 253 557 c 128,-1,14
 240 580 240 580 211 580 c 0,15,16
 156 580 156 580 156 484 c 128,-1,17
 156 388 156 388 211 388 c 0,10,11
36 151 m 1,18,-1
 36 240 l 1,19,-1
 386 240 l 1,20,-1
 386 151 l 1,21,-1
 36 151 l 1,18,-1
EndSplineSet
EndChar

StartChar: guillemotright
Encoding: 187 187 125
Width: 585
GlyphClass: 2
Flags: W
LayerCount: 2
Fore
SplineSet
35 461 m 1,0,-1
 182 461 l 1,1,-1
 308 265 l 1,2,-1
 182 69 l 1,3,-1
 35 69 l 1,4,-1
 156 265 l 1,5,-1
 35 461 l 1,0,-1
277 461 m 1,6,-1
 425 461 l 1,7,-1
 550 265 l 1,8,-1
 425 69 l 1,9,-1
 277 69 l 1,10,-1
 398 265 l 1,11,-1
 277 461 l 1,6,-1
EndSplineSet
Substitution2: "'case' Case-Sensitive Forms lookup 29 subtable" guillemotright.case
Substitution2: "'aalt' Access All Alternates lookup 0 subtable" guillemotright.case
EndChar

StartChar: onequarter
Encoding: 188 188 126
Width: 885
GlyphClass: 2
Flags: W
LayerCount: 2
Fore
SplineSet
133 484 m 2,0,1
 133 511 133 511 136 548 c 1,2,3
 76 504 76 504 19 500 c 1,4,-1
 19 601 l 1,5,6
 52 606 52 606 94 625.5 c 128,-1,7
 136 645 136 645 152 665 c 1,8,-1
 256 665 l 1,9,-1
 256 268 l 1,10,-1
 133 268 l 1,11,-1
 133 484 l 2,0,1
608 661 m 1,12,-1
 728 661 l 1,13,-1
 251 0 l 1,14,-1
 131 0 l 1,15,-1
 608 661 l 1,12,-1
808 162 m 1,16,-1
 868 162 l 1,17,-1
 868 81 l 1,18,-1
 808 81 l 1,19,-1
 808 -4 l 1,20,-1
 701 -4 l 1,21,-1
 701 81 l 1,22,-1
 500 81 l 1,23,-1
 500 137 l 1,24,-1
 661 394 l 1,25,-1
 808 394 l 1,26,-1
 808 162 l 1,16,-1
701 240 m 2,27,28
 701 284 701 284 704 320 c 1,29,-1
 701 320 l 1,30,31
 685 285 685 285 670 261 c 2,32,-1
 606 162 l 1,33,-1
 701 162 l 1,34,-1
 701 240 l 2,27,28
EndSplineSet
EndChar

StartChar: onehalf
Encoding: 189 189 127
Width: 953
GlyphClass: 2
Flags: W
LayerCount: 2
Fore
SplineSet
133 484 m 2,0,1
 133 511 133 511 136 548 c 1,2,3
 76 504 76 504 19 500 c 1,4,-1
 19 601 l 1,5,6
 52 606 52 606 94 625.5 c 128,-1,7
 136 645 136 645 152 665 c 1,8,-1
 256 665 l 1,9,-1
 256 268 l 1,10,-1
 133 268 l 1,11,-1
 133 484 l 2,0,1
608 661 m 1,12,-1
 728 661 l 1,13,-1
 251 0 l 1,14,-1
 131 0 l 1,15,-1
 608 661 l 1,12,-1
843 93 m 2,16,-1
 931 93 l 1,17,-1
 931 -4 l 1,18,-1
 590 -4 l 1,19,-1
 590 73 l 1,20,21
 655 109 655 109 679 125 c 0,22,23
 796 204 796 204 796 258 c 0,24,25
 796 303 796 303 749 303 c 0,26,27
 695 303 695 303 695 227 c 1,28,-1
 576 259 l 1,29,30
 577 325 577 325 624.5 361.5 c 128,-1,31
 672 398 672 398 752 398 c 0,32,33
 840 398 840 398 883 359.5 c 128,-1,34
 926 321 926 321 926 268 c 0,35,36
 926 194 926 194 829 129 c 0,37,38
 793 106 793 106 752 91 c 1,39,-1
 752 89 l 1,40,41
 794 93 794 93 843 93 c 2,16,-1
EndSplineSet
EndChar

StartChar: threequarters
Encoding: 190 190 128
Width: 966
GlyphClass: 2
Flags: W
LayerCount: 2
Fore
SplineSet
188 670 m 0,0,1
 265 670 265 670 306 640.5 c 128,-1,2
 347 611 347 611 347 557 c 0,3,4
 347 517 347 517 324 493.5 c 128,-1,5
 301 470 301 470 263 468 c 1,6,-1
 263 465 l 1,7,8
 306 464 306 464 330.5 442 c 128,-1,9
 355 420 355 420 355 380 c 0,10,11
 355 326 355 326 311 294 c 128,-1,12
 267 262 267 262 192 262 c 0,13,14
 44 262 44 262 9 363 c 1,15,-1
 124 405 l 1,16,17
 128 351 128 351 183 351 c 0,18,19
 206 351 206 351 219.5 362.5 c 128,-1,20
 233 374 233 374 233 394 c 0,21,22
 233 430 233 430 183 430 c 2,23,-1
 160 430 l 1,24,-1
 160 495 l 1,25,-1
 179 495 l 2,26,27
 226 495 226 495 226 535 c 0,28,29
 226 576 226 576 182 576 c 0,30,31
 135 576 135 576 129 524 c 1,32,-1
 19 561 l 1,33,34
 28 616 28 616 74 643 c 128,-1,35
 120 670 120 670 188 670 c 0,0,1
212 0 m 1,36,-1
 689 661 l 1,37,-1
 809 661 l 1,38,-1
 332 0 l 1,39,-1
 212 0 l 1,36,-1
950 162 m 1,40,-1
 950 81 l 1,41,-1
 890 81 l 1,42,-1
 890 -4 l 1,43,-1
 783 -4 l 1,44,-1
 783 81 l 1,45,-1
 582 81 l 1,46,-1
 582 137 l 1,47,-1
 743 394 l 1,48,-1
 890 394 l 1,49,-1
 890 162 l 1,50,-1
 950 162 l 1,40,-1
688 162 m 1,51,-1
 783 162 l 1,52,-1
 783 240 l 2,53,54
 783 284 783 284 786 320 c 1,55,-1
 783 320 l 1,56,57
 767 285 767 285 752 261 c 2,58,-1
 688 162 l 1,51,-1
EndSplineSet
EndChar

StartChar: questiondown
Encoding: 191 191 129
Width: 605
GlyphClass: 2
Flags: W
LayerCount: 2
Fore
SplineSet
313 340 m 0,0,1
 268 340 268 340 242.5 362 c 128,-1,2
 217 384 217 384 217 424 c 128,-1,3
 217 464 217 464 242.5 486.5 c 128,-1,4
 268 509 268 509 313 509 c 0,5,6
 359 509 359 509 384.5 486.5 c 128,-1,7
 410 464 410 464 410 424 c 128,-1,8
 410 384 410 384 384.5 362 c 128,-1,9
 359 340 359 340 313 340 c 0,0,1
298 -169 m 0,10,11
 180 -169 180 -169 110.5 -124 c 128,-1,12
 41 -79 41 -79 41 12 c 0,13,14
 41 180 41 180 231 201 c 1,15,-1
 242 287 l 1,16,-1
 387 287 l 1,17,-1
 397 134 l 1,18,19
 304 127 304 127 264.5 103 c 128,-1,20
 225 79 225 79 225 38 c 0,21,22
 225 -31 225 -31 310 -31 c 0,23,24
 354 -31 354 -31 380 -5.5 c 128,-1,25
 406 20 406 20 410 69 c 1,26,-1
 574 7 l 1,27,28
 563 -73 563 -73 495 -121 c 128,-1,29
 427 -169 427 -169 298 -169 c 0,10,11
EndSplineSet
Substitution2: "'case' Case-Sensitive Forms lookup 29 subtable" questiondown.case
Substitution2: "'smcp' Lowercase to Small Capitals lookup 12 subtable" questiondown.sc
Substitution2: "'c2sc' Capitals to Small Capitals lookup 11 subtable" questiondown.sc
AlternateSubs2: "'aalt' Access All Alternates lookup 1 subtable" questiondown.sc questiondown.case
EndChar

StartChar: Agrave
Encoding: 192 192 130
Width: 677
GlyphClass: 2
Flags: W
LayerCount: 2
Fore
SplineSet
394 723 m 1,0,-1
 270 723 l 1,1,-1
 178 882 l 1,2,-1
 339 882 l 1,3,-1
 394 723 l 1,0,-1
496 0 m 1,4,-1
 451 149 l 1,5,-1
 223 149 l 1,6,-1
 177 0 l 1,7,-1
 4 0 l 1,8,-1
 236 660 l 1,9,-1
 442 660 l 1,10,-1
 673 0 l 1,11,-1
 496 0 l 1,4,-1
259 266 m 1,12,-1
 415 266 l 1,13,-1
 367 424 l 1,14,-1
 338 528 l 1,15,-1
 336 528 l 1,16,-1
 309 425 l 1,17,-1
 259 266 l 1,12,-1
EndSplineSet
Substitution2: "Single Substitution lookup 56 subtable" Agrave.swsh
Substitution2: "'swsh' Swash lookup 32 subtable" Agrave.swsh
Substitution2: "'c2sc' Capitals to Small Capitals lookup 11 subtable" agrave.sc
AlternateSubs2: "'aalt' Access All Alternates lookup 1 subtable" agrave.sc Agrave.swsh
EndChar

StartChar: Aacute
Encoding: 193 193 131
Width: 677
GlyphClass: 2
Flags: W
LayerCount: 2
Fore
SplineSet
483 882 m 1,0,-1
 391 723 l 1,1,-1
 267 723 l 1,2,-1
 322 882 l 1,3,-1
 483 882 l 1,0,-1
496 0 m 1,4,-1
 451 149 l 1,5,-1
 223 149 l 1,6,-1
 177 0 l 1,7,-1
 4 0 l 1,8,-1
 236 660 l 1,9,-1
 442 660 l 1,10,-1
 673 0 l 1,11,-1
 496 0 l 1,4,-1
259 266 m 1,12,-1
 415 266 l 1,13,-1
 367 424 l 1,14,-1
 338 528 l 1,15,-1
 336 528 l 1,16,-1
 309 425 l 1,17,-1
 259 266 l 1,12,-1
EndSplineSet
Substitution2: "Single Substitution lookup 56 subtable" Aacute.swsh
Substitution2: "'swsh' Swash lookup 32 subtable" Aacute.swsh
Substitution2: "'c2sc' Capitals to Small Capitals lookup 11 subtable" aacute.sc
AlternateSubs2: "'aalt' Access All Alternates lookup 1 subtable" aacute.sc Aacute.swsh
EndChar

StartChar: Acircumflex
Encoding: 194 194 132
Width: 677
GlyphClass: 2
Flags: W
LayerCount: 2
Fore
SplineSet
338 807 m 1,0,-1
 271 719 l 1,1,-1
 145 719 l 1,2,-1
 256 886 l 1,3,-1
 420 886 l 1,4,-1
 531 719 l 1,5,-1
 405 719 l 1,6,-1
 338 807 l 1,0,-1
496 0 m 1,7,-1
 451 149 l 1,8,-1
 223 149 l 1,9,-1
 177 0 l 1,10,-1
 4 0 l 1,11,-1
 236 660 l 1,12,-1
 442 660 l 1,13,-1
 673 0 l 1,14,-1
 496 0 l 1,7,-1
259 266 m 1,15,-1
 415 266 l 1,16,-1
 367 424 l 1,17,-1
 338 528 l 1,18,-1
 336 528 l 1,19,-1
 309 425 l 1,20,-1
 259 266 l 1,15,-1
EndSplineSet
Substitution2: "Single Substitution lookup 56 subtable" Acircumflex.swsh
Substitution2: "'swsh' Swash lookup 32 subtable" Acircumflex.swsh
Substitution2: "'c2sc' Capitals to Small Capitals lookup 11 subtable" acircumflex.sc
AlternateSubs2: "'aalt' Access All Alternates lookup 1 subtable" acircumflex.sc Acircumflex.swsh
EndChar

StartChar: Atilde
Encoding: 195 195 133
Width: 677
GlyphClass: 2
Flags: W
LayerCount: 2
Fore
SplineSet
273 776 m 0,0,1
 242 776 242 776 236 720 c 1,2,-1
 140 720 l 1,3,4
 146 879 146 879 272 879 c 0,5,6
 305 879 305 879 329.5 864.5 c 128,-1,7
 354 850 354 850 370.5 836 c 128,-1,8
 387 822 387 822 402 822 c 0,9,10
 434 822 434 822 440 878 c 1,11,-1
 536 878 l 1,12,13
 530 719 530 719 404 719 c 0,14,15
 371 719 371 719 347 733.5 c 128,-1,16
 323 748 323 748 306 762 c 128,-1,17
 289 776 289 776 273 776 c 0,0,1
496 0 m 1,18,-1
 451 149 l 1,19,-1
 223 149 l 1,20,-1
 177 0 l 1,21,-1
 4 0 l 1,22,-1
 236 660 l 1,23,-1
 442 660 l 1,24,-1
 673 0 l 1,25,-1
 496 0 l 1,18,-1
259 266 m 1,26,-1
 415 266 l 1,27,-1
 367 424 l 1,28,-1
 338 528 l 1,29,-1
 336 528 l 1,30,-1
 309 425 l 1,31,-1
 259 266 l 1,26,-1
EndSplineSet
Substitution2: "Single Substitution lookup 56 subtable" Atilde.swsh
Substitution2: "'swsh' Swash lookup 32 subtable" Atilde.swsh
Substitution2: "'c2sc' Capitals to Small Capitals lookup 11 subtable" atilde.sc
AlternateSubs2: "'aalt' Access All Alternates lookup 1 subtable" atilde.sc Atilde.swsh
EndChar

StartChar: Adieresis
Encoding: 196 196 134
Width: 677
GlyphClass: 2
Flags: W
LayerCount: 2
Fore
SplineSet
227 716 m 0,0,1
 188 716 188 716 165.5 736.5 c 128,-1,2
 143 757 143 757 143 793 c 128,-1,3
 143 829 143 829 165.5 849.5 c 128,-1,4
 188 870 188 870 227 870 c 0,5,6
 267 870 267 870 290 849.5 c 128,-1,7
 313 829 313 829 313 793 c 128,-1,8
 313 757 313 757 290 736.5 c 128,-1,9
 267 716 267 716 227 716 c 0,0,1
447 716 m 0,10,11
 408 716 408 716 385.5 736.5 c 128,-1,12
 363 757 363 757 363 793 c 128,-1,13
 363 829 363 829 385.5 849.5 c 128,-1,14
 408 870 408 870 447 870 c 0,15,16
 487 870 487 870 510 849.5 c 128,-1,17
 533 829 533 829 533 793 c 128,-1,18
 533 757 533 757 510 736.5 c 128,-1,19
 487 716 487 716 447 716 c 0,10,11
496 0 m 1,20,-1
 451 149 l 1,21,-1
 223 149 l 1,22,-1
 177 0 l 1,23,-1
 4 0 l 1,24,-1
 236 660 l 1,25,-1
 442 660 l 1,26,-1
 673 0 l 1,27,-1
 496 0 l 1,20,-1
259 266 m 1,28,-1
 415 266 l 1,29,-1
 367 424 l 1,30,-1
 338 528 l 1,31,-1
 336 528 l 1,32,-1
 309 425 l 1,33,-1
 259 266 l 1,28,-1
EndSplineSet
Substitution2: "Single Substitution lookup 56 subtable" Adieresis.swsh
Substitution2: "'titl' Titling lookup 41 subtable" Adieresis.titl
Substitution2: "'swsh' Swash lookup 32 subtable" Adieresis.swsh
Substitution2: "'c2sc' Capitals to Small Capitals lookup 11 subtable" adieresis.sc
AlternateSubs2: "'aalt' Access All Alternates lookup 1 subtable" adieresis.sc Adieresis.swsh Adieresis.titl
EndChar

StartChar: Aring
Encoding: 197 197 135
Width: 677
GlyphClass: 2
Flags: W
LayerCount: 2
Fore
SplineSet
496 0 m 1,0,-1
 451 149 l 1,1,-1
 223 149 l 1,2,-1
 177 0 l 1,3,-1
 4 0 l 1,4,-1
 234 638 l 1,5,6
 189 671 189 671 189 732 c 0,7,8
 189 790 189 790 229.5 825.5 c 128,-1,9
 270 861 270 861 339 861 c 0,10,11
 409 861 409 861 449 825.5 c 128,-1,12
 489 790 489 790 489 732 c 0,13,14
 489 671 489 671 443 638 c 1,15,-1
 673 0 l 1,16,-1
 496 0 l 1,0,-1
339 782 m 128,-1,18
 312 782 312 782 296.5 767 c 128,-1,19
 281 752 281 752 281 726 c 128,-1,20
 281 700 281 700 296.5 685 c 128,-1,21
 312 670 312 670 339 670 c 128,-1,22
 366 670 366 670 381.5 685 c 128,-1,23
 397 700 397 700 397 726 c 128,-1,24
 397 752 397 752 381.5 767 c 128,-1,17
 366 782 366 782 339 782 c 128,-1,18
259 266 m 1,25,-1
 415 266 l 1,26,-1
 367 424 l 1,27,-1
 339 528 l 1,28,-1
 335 528 l 1,29,-1
 309 425 l 1,30,-1
 259 266 l 1,25,-1
EndSplineSet
Substitution2: "'c2sc' Capitals to Small Capitals lookup 11 subtable" aring.sc
Substitution2: "'aalt' Access All Alternates lookup 0 subtable" aring.sc
EndChar

StartChar: AE
Encoding: 198 198 136
Width: 924
GlyphClass: 2
Flags: W
LayerCount: 2
Fore
SplineSet
581 127 m 1,0,-1
 894 127 l 1,1,-1
 894 0 l 1,2,-1
 421 0 l 1,3,-1
 421 196 l 1,4,-1
 243 196 l 1,5,-1
 169 0 l 1,6,-1
 -4 0 l 1,7,-1
 279 660 l 1,8,-1
 880 660 l 1,9,-1
 880 533 l 1,10,-1
 581 533 l 1,11,-1
 581 391 l 1,12,-1
 810 391 l 1,13,-1
 810 271 l 1,14,-1
 581 271 l 1,15,-1
 581 127 l 1,0,-1
286 308 m 1,16,-1
 421 308 l 1,17,-1
 421 538 l 1,18,-1
 373 538 l 1,19,-1
 286 308 l 1,16,-1
EndSplineSet
Substitution2: "'c2sc' Capitals to Small Capitals lookup 11 subtable" ae.sc
Substitution2: "'aalt' Access All Alternates lookup 0 subtable" ae.sc
EndChar

StartChar: Ccedilla
Encoding: 199 199 137
Width: 681
GlyphClass: 2
Flags: W
LayerCount: 2
Fore
SplineSet
658 189 m 1,0,1
 612 28 612 28 446 -3 c 1,2,3
 499 -41 499 -41 499 -97 c 0,4,5
 499 -154 499 -154 460 -184.5 c 128,-1,6
 421 -215 421 -215 356 -215 c 0,7,8
 275 -215 275 -215 232 -175 c 1,9,-1
 271 -96 l 1,10,11
 299 -124 299 -124 343 -124 c 0,12,13
 368 -124 368 -124 383 -111 c 128,-1,14
 398 -98 398 -98 398 -75 c 0,15,16
 398 -53 398 -53 382.5 -37 c 128,-1,17
 367 -21 367 -21 327 -8 c 1,18,19
 194 4 194 4 119.5 93 c 128,-1,20
 45 182 45 182 45 330 c 0,21,22
 45 489 45 489 131.5 579.5 c 128,-1,23
 218 670 218 670 368 670 c 0,24,25
 476 670 476 670 551 624.5 c 128,-1,26
 626 579 626 579 650 488 c 1,27,-1
 499 427 l 1,28,29
 485 487 485 487 456 511 c 128,-1,30
 427 535 427 535 374 535 c 0,31,32
 301 535 301 535 261 482.5 c 128,-1,33
 221 430 221 430 221 330 c 128,-1,34
 221 230 221 230 259.5 177.5 c 128,-1,35
 298 125 298 125 371 125 c 0,36,37
 479 125 479 125 502 233 c 1,38,-1
 658 189 l 1,0,1
EndSplineSet
Substitution2: "'c2sc' Capitals to Small Capitals lookup 11 subtable" ccedilla.sc
Substitution2: "'aalt' Access All Alternates lookup 0 subtable" ccedilla.sc
EndChar

StartChar: Egrave
Encoding: 200 200 138
Width: 631
GlyphClass: 2
Flags: W
AnchorPoint: "Anchor-0" 333 0 basechar 0
LayerCount: 2
Fore
SplineSet
404 723 m 1,0,-1
 280 723 l 1,1,-1
 188 882 l 1,2,-1
 349 882 l 1,3,-1
 404 723 l 1,0,-1
245 133 m 1,4,-1
 600 133 l 1,5,-1
 600 0 l 1,6,-1
 73 0 l 1,7,-1
 73 660 l 1,8,-1
 587 660 l 1,9,-1
 587 527 l 1,10,-1
 245 527 l 1,11,-1
 245 393 l 1,12,-1
 517 393 l 1,13,-1
 517 268 l 1,14,-1
 245 268 l 1,15,-1
 245 133 l 1,4,-1
EndSplineSet
Substitution2: "Single Substitution lookup 57 subtable" Egrave.swsh.001
Substitution2: "Single Substitution lookup 56 subtable" Egrave.swsh
AlternateSubs2: "'swsh' Swash lookup 33 subtable" Egrave.swsh Egrave.swsh.001
Substitution2: "'c2sc' Capitals to Small Capitals lookup 11 subtable" egrave.sc
AlternateSubs2: "'aalt' Access All Alternates lookup 1 subtable" egrave.sc Egrave.swsh Egrave.swsh.001
EndChar

StartChar: Eacute
Encoding: 201 201 139
Width: 631
GlyphClass: 2
Flags: W
AnchorPoint: "Anchor-0" 333 0 basechar 0
LayerCount: 2
Fore
SplineSet
468 882 m 1,0,-1
 376 723 l 1,1,-1
 252 723 l 1,2,-1
 307 882 l 1,3,-1
 468 882 l 1,0,-1
245 133 m 1,4,-1
 600 133 l 1,5,-1
 600 0 l 1,6,-1
 73 0 l 1,7,-1
 73 660 l 1,8,-1
 587 660 l 1,9,-1
 587 527 l 1,10,-1
 245 527 l 1,11,-1
 245 393 l 1,12,-1
 517 393 l 1,13,-1
 517 268 l 1,14,-1
 245 268 l 1,15,-1
 245 133 l 1,4,-1
EndSplineSet
Substitution2: "Single Substitution lookup 57 subtable" Eacute.swsh.001
Substitution2: "Single Substitution lookup 56 subtable" Eacute.swsh
AlternateSubs2: "'swsh' Swash lookup 33 subtable" Eacute.swsh Eacute.swsh.001
Substitution2: "'c2sc' Capitals to Small Capitals lookup 11 subtable" eacute.sc
AlternateSubs2: "'aalt' Access All Alternates lookup 1 subtable" eacute.sc Eacute.swsh Eacute.swsh.001
EndChar

StartChar: Ecircumflex
Encoding: 202 202 140
Width: 631
GlyphClass: 2
Flags: W
AnchorPoint: "Anchor-0" 333 0 basechar 0
LayerCount: 2
Fore
SplineSet
323 807 m 1,0,-1
 256 719 l 1,1,-1
 130 719 l 1,2,-1
 241 886 l 1,3,-1
 405 886 l 1,4,-1
 516 719 l 1,5,-1
 390 719 l 1,6,-1
 323 807 l 1,0,-1
245 133 m 1,7,-1
 600 133 l 1,8,-1
 600 0 l 1,9,-1
 73 0 l 1,10,-1
 73 660 l 1,11,-1
 587 660 l 1,12,-1
 587 527 l 1,13,-1
 245 527 l 1,14,-1
 245 393 l 1,15,-1
 517 393 l 1,16,-1
 517 268 l 1,17,-1
 245 268 l 1,18,-1
 245 133 l 1,7,-1
EndSplineSet
Substitution2: "Single Substitution lookup 57 subtable" Ecircumflex.swsh.001
Substitution2: "Single Substitution lookup 56 subtable" Ecircumflex.swsh
AlternateSubs2: "'swsh' Swash lookup 33 subtable" Ecircumflex.swsh Ecircumflex.swsh.001
Substitution2: "'c2sc' Capitals to Small Capitals lookup 11 subtable" ecircumflex.sc
AlternateSubs2: "'aalt' Access All Alternates lookup 1 subtable" ecircumflex.sc Ecircumflex.swsh Ecircumflex.swsh.001
EndChar

StartChar: Edieresis
Encoding: 203 203 141
Width: 631
GlyphClass: 2
Flags: W
AnchorPoint: "Anchor-0" 333 0 basechar 0
LayerCount: 2
Fore
SplineSet
212 716 m 0,0,1
 173 716 173 716 150.5 736.5 c 128,-1,2
 128 757 128 757 128 793 c 128,-1,3
 128 829 128 829 150.5 849.5 c 128,-1,4
 173 870 173 870 212 870 c 0,5,6
 252 870 252 870 275 849.5 c 128,-1,7
 298 829 298 829 298 793 c 128,-1,8
 298 757 298 757 275 736.5 c 128,-1,9
 252 716 252 716 212 716 c 0,0,1
432 716 m 0,10,11
 393 716 393 716 370.5 736.5 c 128,-1,12
 348 757 348 757 348 793 c 128,-1,13
 348 829 348 829 370.5 849.5 c 128,-1,14
 393 870 393 870 432 870 c 0,15,16
 472 870 472 870 495 849.5 c 128,-1,17
 518 829 518 829 518 793 c 128,-1,18
 518 757 518 757 495 736.5 c 128,-1,19
 472 716 472 716 432 716 c 0,10,11
245 133 m 1,20,-1
 600 133 l 1,21,-1
 600 0 l 1,22,-1
 73 0 l 1,23,-1
 73 660 l 1,24,-1
 587 660 l 1,25,-1
 587 527 l 1,26,-1
 245 527 l 1,27,-1
 245 393 l 1,28,-1
 517 393 l 1,29,-1
 517 268 l 1,30,-1
 245 268 l 1,31,-1
 245 133 l 1,20,-1
EndSplineSet
Substitution2: "Single Substitution lookup 57 subtable" Edieresis.swsh.001
Substitution2: "Single Substitution lookup 56 subtable" Edieresis.swsh
AlternateSubs2: "'swsh' Swash lookup 33 subtable" Edieresis.swsh Edieresis.swsh.001
Substitution2: "'c2sc' Capitals to Small Capitals lookup 11 subtable" edieresis.sc
AlternateSubs2: "'aalt' Access All Alternates lookup 1 subtable" edieresis.sc Edieresis.swsh Edieresis.swsh.001
EndChar

StartChar: Igrave
Encoding: 204 204 142
Width: 318
GlyphClass: 2
Flags: W
LayerCount: 2
Fore
SplineSet
160 882 m 1,0,-1
 215 723 l 1,1,-1
 91 723 l 1,2,-1
 -1 882 l 1,3,-1
 160 882 l 1,0,-1
245 660 m 1,4,-1
 245 0 l 1,5,-1
 73 0 l 1,6,-1
 73 660 l 1,7,-1
 245 660 l 1,4,-1
EndSplineSet
Substitution2: "'c2sc' Capitals to Small Capitals lookup 11 subtable" igrave.sc
Substitution2: "'aalt' Access All Alternates lookup 0 subtable" igrave.sc
EndChar

StartChar: Iacute
Encoding: 205 205 143
Width: 318
GlyphClass: 2
Flags: W
LayerCount: 2
Fore
SplineSet
142 882 m 1,0,-1
 303 882 l 1,1,-1
 211 723 l 1,2,-1
 87 723 l 1,3,-1
 142 882 l 1,0,-1
245 660 m 1,4,-1
 245 0 l 1,5,-1
 73 0 l 1,6,-1
 73 660 l 1,7,-1
 245 660 l 1,4,-1
EndSplineSet
Substitution2: "'c2sc' Capitals to Small Capitals lookup 11 subtable" iacute.sc
Substitution2: "'aalt' Access All Alternates lookup 0 subtable" iacute.sc
EndChar

StartChar: Icircumflex
Encoding: 206 206 144
Width: 318
GlyphClass: 2
Flags: W
LayerCount: 2
Fore
SplineSet
352 719 m 1,0,-1
 226 719 l 1,1,-1
 159 807 l 1,2,-1
 92 719 l 1,3,-1
 -34 719 l 1,4,-1
 77 886 l 1,5,-1
 241 886 l 1,6,-1
 352 719 l 1,0,-1
245 660 m 1,7,-1
 245 0 l 1,8,-1
 73 0 l 1,9,-1
 73 660 l 1,10,-1
 245 660 l 1,7,-1
EndSplineSet
Substitution2: "'c2sc' Capitals to Small Capitals lookup 11 subtable" icircumflex.sc
Substitution2: "'aalt' Access All Alternates lookup 0 subtable" icircumflex.sc
EndChar

StartChar: Idieresis
Encoding: 207 207 145
Width: 318
GlyphClass: 2
Flags: W
LayerCount: 2
Fore
SplineSet
56 870 m 0,0,1
 95 870 95 870 117.5 849.5 c 128,-1,2
 140 829 140 829 140 793 c 128,-1,3
 140 757 140 757 117.5 736.5 c 128,-1,4
 95 716 95 716 56 716 c 0,5,6
 18 716 18 716 -4 736.5 c 128,-1,7
 -26 757 -26 757 -26 793 c 128,-1,8
 -26 829 -26 829 -4 849.5 c 128,-1,9
 18 870 18 870 56 870 c 0,0,1
260 870 m 0,10,11
 299 870 299 870 321.5 849.5 c 128,-1,12
 344 829 344 829 344 793 c 128,-1,13
 344 757 344 757 321.5 736.5 c 128,-1,14
 299 716 299 716 260 716 c 0,15,16
 222 716 222 716 200 736.5 c 128,-1,17
 178 757 178 757 178 793 c 128,-1,18
 178 829 178 829 200 849.5 c 128,-1,19
 222 870 222 870 260 870 c 0,10,11
245 660 m 1,20,-1
 245 0 l 1,21,-1
 73 0 l 1,22,-1
 73 660 l 1,23,-1
 245 660 l 1,20,-1
EndSplineSet
Substitution2: "'c2sc' Capitals to Small Capitals lookup 11 subtable" idieresis.sc
Substitution2: "'aalt' Access All Alternates lookup 0 subtable" idieresis.sc
EndChar

StartChar: Eth
Encoding: 208 208 146
Width: 741
GlyphClass: 2
Flags: W
LayerCount: 2
Fore
SplineSet
376 660 m 2,0,1
 531 660 531 660 613.5 574.5 c 128,-1,2
 696 489 696 489 696 330 c 128,-1,3
 696 171 696 171 613.5 85.5 c 128,-1,4
 531 0 531 0 376 0 c 2,5,-1
 96 0 l 1,6,-1
 96 273 l 1,7,-1
 13 273 l 1,8,-1
 13 387 l 1,9,-1
 96 387 l 1,10,-1
 96 660 l 1,11,-1
 376 660 l 2,0,1
359 130 m 2,12,13
 442 130 442 130 481 180 c 128,-1,14
 520 230 520 230 520 330 c 128,-1,15
 520 430 520 430 481 480 c 128,-1,16
 442 530 442 530 359 530 c 2,17,-1
 268 530 l 1,18,-1
 268 387 l 1,19,-1
 399 387 l 1,20,-1
 399 273 l 1,21,-1
 268 273 l 1,22,-1
 268 130 l 1,23,-1
 359 130 l 2,12,13
EndSplineSet
Substitution2: "'c2sc' Capitals to Small Capitals lookup 11 subtable" eth.sc
Substitution2: "'aalt' Access All Alternates lookup 0 subtable" eth.sc
EndChar

StartChar: Ntilde
Encoding: 209 209 147
Width: 741
GlyphClass: 2
Flags: W
AnchorPoint: "Anchor-0" 383 0 basechar 0
LayerCount: 2
Fore
SplineSet
570 878 m 1,0,1
 564 719 564 719 438 719 c 0,2,3
 405 719 405 719 381 733.5 c 128,-1,4
 357 748 357 748 340 762 c 128,-1,5
 323 776 323 776 307 776 c 0,6,7
 276 776 276 776 270 720 c 1,8,-1
 174 720 l 1,9,10
 180 879 180 879 306 879 c 0,11,12
 339 879 339 879 363.5 864.5 c 128,-1,13
 388 850 388 850 404.5 836 c 128,-1,14
 421 822 421 822 436 822 c 0,15,16
 468 822 468 822 474 878 c 1,17,-1
 570 878 l 1,0,1
668 660 m 1,18,-1
 668 0 l 1,19,-1
 477 0 l 1,20,-1
 272 357 l 1,21,-1
 222 457 l 1,22,-1
 221 457 l 1,23,-1
 225 333 l 1,24,-1
 225 0 l 1,25,-1
 73 0 l 1,26,-1
 73 660 l 1,27,-1
 264 660 l 1,28,-1
 469 303 l 1,29,-1
 519 203 l 1,30,-1
 520 203 l 1,31,-1
 516 327 l 1,32,-1
 516 660 l 1,33,-1
 668 660 l 1,18,-1
EndSplineSet
Substitution2: "Single Substitution lookup 57 subtable" Ntilde.swsh
Substitution2: "'swsh' Swash lookup 36 subtable" Ntilde.swsh
Substitution2: "'c2sc' Capitals to Small Capitals lookup 11 subtable" ntilde.sc
AlternateSubs2: "'aalt' Access All Alternates lookup 1 subtable" ntilde.sc Ntilde.swsh
EndChar

StartChar: Ograve
Encoding: 210 210 148
Width: 737
GlyphClass: 2
Flags: W
LayerCount: 2
Fore
SplineSet
370 882 m 1,0,-1
 425 723 l 1,1,-1
 301 723 l 1,2,-1
 209 882 l 1,3,-1
 370 882 l 1,0,-1
369 670 m 128,-1,5
 520 670 520 670 606 579.5 c 128,-1,6
 692 489 692 489 692 330 c 128,-1,7
 692 171 692 171 606 80.5 c 128,-1,8
 520 -10 520 -10 369 -10 c 128,-1,9
 218 -10 218 -10 131.5 80.5 c 128,-1,10
 45 171 45 171 45 330 c 128,-1,11
 45 489 45 489 131.5 579.5 c 128,-1,4
 218 670 218 670 369 670 c 128,-1,5
369 535 m 128,-1,13
 297 535 297 535 259 483 c 128,-1,14
 221 431 221 431 221 330 c 128,-1,15
 221 229 221 229 259 177 c 128,-1,16
 297 125 297 125 369 125 c 128,-1,17
 441 125 441 125 478.5 177 c 128,-1,18
 516 229 516 229 516 330 c 128,-1,19
 516 431 516 431 478.5 483 c 128,-1,12
 441 535 441 535 369 535 c 128,-1,13
EndSplineSet
Substitution2: "'c2sc' Capitals to Small Capitals lookup 11 subtable" ograve.sc
Substitution2: "'aalt' Access All Alternates lookup 0 subtable" ograve.sc
EndChar

StartChar: Oacute
Encoding: 211 211 149
Width: 737
GlyphClass: 2
Flags: W
LayerCount: 2
Fore
SplineSet
352 882 m 1,0,-1
 513 882 l 1,1,-1
 421 723 l 1,2,-1
 297 723 l 1,3,-1
 352 882 l 1,0,-1
369 670 m 128,-1,5
 520 670 520 670 606 579.5 c 128,-1,6
 692 489 692 489 692 330 c 128,-1,7
 692 171 692 171 606 80.5 c 128,-1,8
 520 -10 520 -10 369 -10 c 128,-1,9
 218 -10 218 -10 131.5 80.5 c 128,-1,10
 45 171 45 171 45 330 c 128,-1,11
 45 489 45 489 131.5 579.5 c 128,-1,4
 218 670 218 670 369 670 c 128,-1,5
369 535 m 128,-1,13
 297 535 297 535 259 483 c 128,-1,14
 221 431 221 431 221 330 c 128,-1,15
 221 229 221 229 259 177 c 128,-1,16
 297 125 297 125 369 125 c 128,-1,17
 441 125 441 125 478.5 177 c 128,-1,18
 516 229 516 229 516 330 c 128,-1,19
 516 431 516 431 478.5 483 c 128,-1,12
 441 535 441 535 369 535 c 128,-1,13
EndSplineSet
Substitution2: "'c2sc' Capitals to Small Capitals lookup 11 subtable" oacute.sc
Substitution2: "'aalt' Access All Alternates lookup 0 subtable" oacute.sc
EndChar

StartChar: Ocircumflex
Encoding: 212 212 150
Width: 737
GlyphClass: 2
Flags: W
LayerCount: 2
Fore
SplineSet
562 719 m 1,0,-1
 436 719 l 1,1,-1
 369 807 l 1,2,-1
 302 719 l 1,3,-1
 176 719 l 1,4,-1
 287 886 l 1,5,-1
 451 886 l 1,6,-1
 562 719 l 1,0,-1
369 670 m 128,-1,8
 520 670 520 670 606 579.5 c 128,-1,9
 692 489 692 489 692 330 c 128,-1,10
 692 171 692 171 606 80.5 c 128,-1,11
 520 -10 520 -10 369 -10 c 128,-1,12
 218 -10 218 -10 131.5 80.5 c 128,-1,13
 45 171 45 171 45 330 c 128,-1,14
 45 489 45 489 131.5 579.5 c 128,-1,7
 218 670 218 670 369 670 c 128,-1,8
369 535 m 128,-1,16
 297 535 297 535 259 483 c 128,-1,17
 221 431 221 431 221 330 c 128,-1,18
 221 229 221 229 259 177 c 128,-1,19
 297 125 297 125 369 125 c 128,-1,20
 441 125 441 125 478.5 177 c 128,-1,21
 516 229 516 229 516 330 c 128,-1,22
 516 431 516 431 478.5 483 c 128,-1,15
 441 535 441 535 369 535 c 128,-1,16
EndSplineSet
Substitution2: "'c2sc' Capitals to Small Capitals lookup 11 subtable" ocircumflex.sc
Substitution2: "'aalt' Access All Alternates lookup 0 subtable" ocircumflex.sc
EndChar

StartChar: Otilde
Encoding: 213 213 151
Width: 737
GlyphClass: 2
Flags: W
LayerCount: 2
Fore
SplineSet
566 878 m 1,0,1
 560 719 560 719 434 719 c 0,2,3
 401 719 401 719 377 733.5 c 128,-1,4
 353 748 353 748 336 762 c 128,-1,5
 319 776 319 776 303 776 c 0,6,7
 272 776 272 776 266 720 c 1,8,-1
 170 720 l 1,9,10
 176 879 176 879 302 879 c 0,11,12
 335 879 335 879 359.5 864.5 c 128,-1,13
 384 850 384 850 400.5 836 c 128,-1,14
 417 822 417 822 432 822 c 0,15,16
 464 822 464 822 470 878 c 1,17,-1
 566 878 l 1,0,1
369 670 m 128,-1,19
 520 670 520 670 606 579.5 c 128,-1,20
 692 489 692 489 692 330 c 128,-1,21
 692 171 692 171 606 80.5 c 128,-1,22
 520 -10 520 -10 369 -10 c 128,-1,23
 218 -10 218 -10 131.5 80.5 c 128,-1,24
 45 171 45 171 45 330 c 128,-1,25
 45 489 45 489 131.5 579.5 c 128,-1,18
 218 670 218 670 369 670 c 128,-1,19
369 535 m 128,-1,27
 297 535 297 535 259 483 c 128,-1,28
 221 431 221 431 221 330 c 128,-1,29
 221 229 221 229 259 177 c 128,-1,30
 297 125 297 125 369 125 c 128,-1,31
 441 125 441 125 478.5 177 c 128,-1,32
 516 229 516 229 516 330 c 128,-1,33
 516 431 516 431 478.5 483 c 128,-1,26
 441 535 441 535 369 535 c 128,-1,27
EndSplineSet
Substitution2: "'c2sc' Capitals to Small Capitals lookup 11 subtable" otilde.sc
Substitution2: "'aalt' Access All Alternates lookup 0 subtable" otilde.sc
EndChar

StartChar: Odieresis
Encoding: 214 214 152
Width: 737
GlyphClass: 2
Flags: W
LayerCount: 2
Fore
SplineSet
257 870 m 0,0,1
 297 870 297 870 320 849.5 c 128,-1,2
 343 829 343 829 343 793 c 128,-1,3
 343 757 343 757 320 736.5 c 128,-1,4
 297 716 297 716 257 716 c 0,5,6
 218 716 218 716 195.5 736.5 c 128,-1,7
 173 757 173 757 173 793 c 128,-1,8
 173 829 173 829 195.5 849.5 c 128,-1,9
 218 870 218 870 257 870 c 0,0,1
477 870 m 0,10,11
 517 870 517 870 540 849.5 c 128,-1,12
 563 829 563 829 563 793 c 128,-1,13
 563 757 563 757 540 736.5 c 128,-1,14
 517 716 517 716 477 716 c 0,15,16
 438 716 438 716 415.5 736.5 c 128,-1,17
 393 757 393 757 393 793 c 128,-1,18
 393 829 393 829 415.5 849.5 c 128,-1,19
 438 870 438 870 477 870 c 0,10,11
369 670 m 128,-1,21
 520 670 520 670 606 579.5 c 128,-1,22
 692 489 692 489 692 330 c 128,-1,23
 692 171 692 171 606 80.5 c 128,-1,24
 520 -10 520 -10 369 -10 c 128,-1,25
 218 -10 218 -10 131.5 80.5 c 128,-1,26
 45 171 45 171 45 330 c 128,-1,27
 45 489 45 489 131.5 579.5 c 128,-1,20
 218 670 218 670 369 670 c 128,-1,21
369 535 m 128,-1,29
 297 535 297 535 259 483 c 128,-1,30
 221 431 221 431 221 330 c 128,-1,31
 221 229 221 229 259 177 c 128,-1,32
 297 125 297 125 369 125 c 128,-1,33
 441 125 441 125 478.5 177 c 128,-1,34
 516 229 516 229 516 330 c 128,-1,35
 516 431 516 431 478.5 483 c 128,-1,28
 441 535 441 535 369 535 c 128,-1,29
EndSplineSet
Substitution2: "'titl' Titling lookup 41 subtable" Odieresis.titl
Substitution2: "'c2sc' Capitals to Small Capitals lookup 11 subtable" odieresis.sc
AlternateSubs2: "'aalt' Access All Alternates lookup 1 subtable" odieresis.sc Odieresis.titl
EndChar

StartChar: multiply
Encoding: 215 215 153
Width: 604
GlyphClass: 2
Flags: W
LayerCount: 2
Fore
SplineSet
550 482 m 1,0,-1
 394 326 l 1,1,-1
 550 170 l 1,2,-1
 458 78 l 1,3,-1
 302 234 l 1,4,-1
 146 78 l 1,5,-1
 54 170 l 1,6,-1
 210 326 l 1,7,-1
 54 482 l 1,8,-1
 146 574 l 1,9,-1
 302 418 l 1,10,-1
 458 574 l 1,11,-1
 550 482 l 1,0,-1
EndSplineSet
EndChar

StartChar: Oslash
Encoding: 216 216 154
Width: 737
GlyphClass: 2
Flags: W
LayerCount: 2
Fore
SplineSet
601 584 m 1,0,1
 692 495 692 495 692 330 c 0,2,3
 692 171 692 171 606 80.5 c 128,-1,4
 520 -10 520 -10 369 -10 c 0,5,6
 268 -10 268 -10 193 32 c 1,7,-1
 150 -27 l 1,8,-1
 64 -27 l 1,9,-1
 137 74 l 1,10,11
 45 166 45 166 45 330 c 0,12,13
 45 489 45 489 131.5 579.5 c 128,-1,14
 218 670 218 670 369 670 c 0,15,16
 473 670 473 670 547 626 c 1,17,-1
 586 681 l 1,18,-1
 672 681 l 1,19,-1
 601 584 l 1,0,1
369 535 m 0,20,21
 297 535 297 535 259 483 c 128,-1,22
 221 431 221 431 221 330 c 0,23,24
 221 255 221 255 242 207 c 1,25,-1
 454 508 l 1,26,27
 421 535 421 535 369 535 c 0,20,21
369 125 m 0,28,29
 441 125 441 125 478.5 177 c 128,-1,30
 516 229 516 229 516 330 c 0,31,32
 516 399 516 399 498 446 c 1,33,-1
 288 148 l 1,34,35
 320 125 320 125 369 125 c 0,28,29
EndSplineSet
Substitution2: "'c2sc' Capitals to Small Capitals lookup 11 subtable" oslash.sc
Substitution2: "'aalt' Access All Alternates lookup 0 subtable" oslash.sc
EndChar

StartChar: Ugrave
Encoding: 217 217 155
Width: 713
GlyphClass: 2
Flags: W
LayerCount: 2
Fore
SplineSet
357 882 m 1,0,-1
 412 723 l 1,1,-1
 288 723 l 1,2,-1
 196 882 l 1,3,-1
 357 882 l 1,0,-1
651 660 m 1,4,-1
 651 269 l 2,5,6
 651 -10 651 -10 356 -10 c 128,-1,7
 61 -10 61 -10 61 269 c 2,8,-1
 61 660 l 1,9,-1
 234 660 l 1,10,-1
 234 266 l 2,11,12
 234 125 234 125 356 125 c 0,13,14
 480 125 480 125 480 266 c 2,15,-1
 480 660 l 1,16,-1
 651 660 l 1,4,-1
EndSplineSet
Substitution2: "'c2sc' Capitals to Small Capitals lookup 11 subtable" ugrave.sc
Substitution2: "'aalt' Access All Alternates lookup 0 subtable" ugrave.sc
EndChar

StartChar: Uacute
Encoding: 218 218 156
Width: 713
GlyphClass: 2
Flags: W
LayerCount: 2
Fore
SplineSet
340 882 m 1,0,-1
 501 882 l 1,1,-1
 409 723 l 1,2,-1
 285 723 l 1,3,-1
 340 882 l 1,0,-1
651 660 m 1,4,-1
 651 269 l 2,5,6
 651 -10 651 -10 356 -10 c 128,-1,7
 61 -10 61 -10 61 269 c 2,8,-1
 61 660 l 1,9,-1
 234 660 l 1,10,-1
 234 266 l 2,11,12
 234 125 234 125 356 125 c 0,13,14
 480 125 480 125 480 266 c 2,15,-1
 480 660 l 1,16,-1
 651 660 l 1,4,-1
EndSplineSet
Substitution2: "'c2sc' Capitals to Small Capitals lookup 11 subtable" uacute.sc
Substitution2: "'aalt' Access All Alternates lookup 0 subtable" uacute.sc
EndChar

StartChar: Ucircumflex
Encoding: 219 219 157
Width: 713
GlyphClass: 2
Flags: W
LayerCount: 2
Fore
SplineSet
549 719 m 1,0,-1
 423 719 l 1,1,-1
 356 807 l 1,2,-1
 289 719 l 1,3,-1
 163 719 l 1,4,-1
 274 886 l 1,5,-1
 438 886 l 1,6,-1
 549 719 l 1,0,-1
651 660 m 1,7,-1
 651 269 l 2,8,9
 651 -10 651 -10 356 -10 c 128,-1,10
 61 -10 61 -10 61 269 c 2,11,-1
 61 660 l 1,12,-1
 234 660 l 1,13,-1
 234 266 l 2,14,15
 234 125 234 125 356 125 c 0,16,17
 480 125 480 125 480 266 c 2,18,-1
 480 660 l 1,19,-1
 651 660 l 1,7,-1
EndSplineSet
Substitution2: "'c2sc' Capitals to Small Capitals lookup 11 subtable" ucircumflex.sc
Substitution2: "'aalt' Access All Alternates lookup 0 subtable" ucircumflex.sc
EndChar

StartChar: Udieresis
Encoding: 220 220 158
Width: 713
GlyphClass: 2
Flags: W
LayerCount: 2
Fore
SplineSet
245 870 m 0,0,1
 285 870 285 870 308 849.5 c 128,-1,2
 331 829 331 829 331 793 c 128,-1,3
 331 757 331 757 308 736.5 c 128,-1,4
 285 716 285 716 245 716 c 0,5,6
 206 716 206 716 183.5 736.5 c 128,-1,7
 161 757 161 757 161 793 c 128,-1,8
 161 829 161 829 183.5 849.5 c 128,-1,9
 206 870 206 870 245 870 c 0,0,1
465 870 m 0,10,11
 505 870 505 870 528 849.5 c 128,-1,12
 551 829 551 829 551 793 c 128,-1,13
 551 757 551 757 528 736.5 c 128,-1,14
 505 716 505 716 465 716 c 0,15,16
 426 716 426 716 403.5 736.5 c 128,-1,17
 381 757 381 757 381 793 c 128,-1,18
 381 829 381 829 403.5 849.5 c 128,-1,19
 426 870 426 870 465 870 c 0,10,11
651 660 m 1,20,-1
 651 269 l 2,21,22
 651 -10 651 -10 356 -10 c 128,-1,23
 61 -10 61 -10 61 269 c 2,24,-1
 61 660 l 1,25,-1
 234 660 l 1,26,-1
 234 266 l 2,27,28
 234 125 234 125 356 125 c 0,29,30
 480 125 480 125 480 266 c 2,31,-1
 480 660 l 1,32,-1
 651 660 l 1,20,-1
EndSplineSet
Substitution2: "'titl' Titling lookup 41 subtable" Udieresis.titl
Substitution2: "'c2sc' Capitals to Small Capitals lookup 11 subtable" udieresis.sc
AlternateSubs2: "'aalt' Access All Alternates lookup 1 subtable" udieresis.sc Udieresis.titl
EndChar

StartChar: Yacute
Encoding: 221 221 159
Width: 657
GlyphClass: 2
Flags: W
LayerCount: 2
Fore
SplineSet
311 882 m 1,0,-1
 472 882 l 1,1,-1
 380 723 l 1,2,-1
 256 723 l 1,3,-1
 311 882 l 1,0,-1
647 660 m 1,4,-1
 414 241 l 1,5,-1
 414 0 l 1,6,-1
 242 0 l 1,7,-1
 242 241 l 1,8,-1
 9 660 l 1,9,-1
 187 660 l 1,10,-1
 280 479 l 1,11,-1
 329 369 l 1,12,-1
 379 479 l 1,13,-1
 472 660 l 1,14,-1
 647 660 l 1,4,-1
EndSplineSet
Substitution2: "'c2sc' Capitals to Small Capitals lookup 11 subtable" yacute.sc
Substitution2: "'aalt' Access All Alternates lookup 0 subtable" yacute.sc
EndChar

StartChar: Thorn
Encoding: 222 222 160
Width: 666
GlyphClass: 2
Flags: W
LayerCount: 2
Fore
SplineSet
366 559 m 2,0,1
 493 559 493 559 560.5 502.5 c 128,-1,2
 628 446 628 446 627 337 c 0,3,4
 628 229 628 229 560.5 172 c 128,-1,5
 493 115 493 115 366 115 c 2,6,-1
 245 115 l 1,7,-1
 245 0 l 1,8,-1
 73 0 l 1,9,-1
 73 660 l 1,10,-1
 245 660 l 1,11,-1
 245 559 l 1,12,-1
 366 559 l 2,0,1
346 243 m 2,13,14
 454 243 454 243 454 337 c 0,15,16
 454 430 454 430 346 430 c 2,17,-1
 245 430 l 1,18,-1
 245 243 l 1,19,-1
 346 243 l 2,13,14
EndSplineSet
Substitution2: "'c2sc' Capitals to Small Capitals lookup 11 subtable" thorn.sc
Substitution2: "'aalt' Access All Alternates lookup 0 subtable" thorn.sc
EndChar

StartChar: germandbls
Encoding: 223 223 161
Width: 648
GlyphClass: 2
Flags: W
LayerCount: 2
Fore
SplineSet
433 363 m 1,0,1
 517 363 517 363 565 312.5 c 128,-1,2
 613 262 613 262 613 184 c 0,3,4
 613 102 613 102 557 46 c 128,-1,5
 501 -10 501 -10 393 -10 c 0,6,7
 314 -10 314 -10 269 22 c 1,8,-1
 297 135 l 1,9,10
 322 112 322 112 363 112 c 128,-1,11
 404 112 404 112 427 138 c 128,-1,12
 450 164 450 164 450 207 c 0,13,14
 450 298 450 298 343 298 c 2,15,-1
 294 298 l 1,16,-1
 311 419 l 1,17,-1
 342 419 l 2,18,19
 384 420 384 420 407.5 444.5 c 128,-1,20
 431 469 431 469 431 509 c 0,21,22
 431 550 431 550 407 572 c 128,-1,23
 383 594 383 594 340 594 c 0,24,25
 280 594 280 594 255.5 560 c 128,-1,26
 231 526 231 526 231 448 c 2,27,-1
 231 0 l 1,28,-1
 61 0 l 1,29,-1
 61 461 l 2,30,31
 61 586 61 586 127.5 651.5 c 128,-1,32
 194 717 194 717 344 717 c 0,33,34
 466 717 466 717 531 662.5 c 128,-1,35
 596 608 596 608 596 524 c 0,36,37
 596 460 596 460 552.5 412.5 c 128,-1,38
 509 365 509 365 433 365 c 1,39,-1
 433 363 l 1,0,1
EndSplineSet
Substitution2: "Single Substitution lookup 57 subtable" germandbls.calt
Substitution2: "'smcp' Lowercase to Small Capitals lookup 12 subtable" germandbls.sc
AlternateSubs2: "'aalt' Access All Alternates lookup 1 subtable" germandbls.sc germandbls.calt
EndChar

StartChar: agrave
Encoding: 224 224 162
Width: 581
GlyphClass: 2
Flags: W
LayerCount: 2
Fore
SplineSet
343 565 m 1,0,-1
 219 565 l 1,1,-1
 118 738 l 1,2,-1
 276 738 l 1,3,-1
 343 565 l 1,0,-1
544 97 m 0,4,5
 563 97 563 97 575 101 c 1,6,-1
 562 6 l 1,7,8
 533 -10 533 -10 494 -10 c 0,9,10
 386 -10 386 -10 365 67 c 1,11,12
 320 -10 320 -10 187 -10 c 0,13,14
 112 -10 112 -10 72 22 c 128,-1,15
 32 54 32 54 32 115 c 0,16,17
 32 179 32 179 77.5 218.5 c 128,-1,18
 123 258 123 258 227 279 c 2,19,-1
 340 301 l 1,20,-1
 340 319 l 2,21,22
 340 353 340 353 321 373 c 128,-1,23
 302 393 302 393 269 393 c 0,24,25
 189 393 189 393 176 316 c 1,26,-1
 38 356 l 1,27,28
 51 429 51 429 110 469.5 c 128,-1,29
 169 510 169 510 269 510 c 0,30,31
 508 510 508 510 508 318 c 2,32,-1
 508 136 l 2,33,34
 508 97 508 97 544 97 c 0,4,5
249 100 m 0,35,36
 284 100 284 100 312 119.5 c 128,-1,37
 340 139 340 139 340 171 c 2,38,-1
 340 214 l 1,39,-1
 259 195 l 2,40,41
 227 187 227 187 213.5 175.5 c 128,-1,42
 200 164 200 164 200 143 c 0,43,44
 200 100 200 100 249 100 c 0,35,36
EndSplineSet
Substitution2: "'smcp' Lowercase to Small Capitals lookup 12 subtable" agrave.sc
Substitution2: "'aalt' Access All Alternates lookup 0 subtable" agrave.sc
EndChar

StartChar: aacute
Encoding: 225 225 163
Width: 581
GlyphClass: 2
Flags: W
LayerCount: 2
Fore
SplineSet
424 738 m 1,0,-1
 323 565 l 1,1,-1
 199 565 l 1,2,-1
 266 738 l 1,3,-1
 424 738 l 1,0,-1
544 97 m 0,4,5
 563 97 563 97 575 101 c 1,6,-1
 562 6 l 1,7,8
 533 -10 533 -10 494 -10 c 0,9,10
 386 -10 386 -10 365 67 c 1,11,12
 320 -10 320 -10 187 -10 c 0,13,14
 112 -10 112 -10 72 22 c 128,-1,15
 32 54 32 54 32 115 c 0,16,17
 32 179 32 179 77.5 218.5 c 128,-1,18
 123 258 123 258 227 279 c 2,19,-1
 340 301 l 1,20,-1
 340 319 l 2,21,22
 340 353 340 353 321 373 c 128,-1,23
 302 393 302 393 269 393 c 0,24,25
 189 393 189 393 176 316 c 1,26,-1
 38 356 l 1,27,28
 51 429 51 429 110 469.5 c 128,-1,29
 169 510 169 510 269 510 c 0,30,31
 508 510 508 510 508 318 c 2,32,-1
 508 136 l 2,33,34
 508 97 508 97 544 97 c 0,4,5
249 100 m 0,35,36
 284 100 284 100 312 119.5 c 128,-1,37
 340 139 340 139 340 171 c 2,38,-1
 340 214 l 1,39,-1
 259 195 l 2,40,41
 227 187 227 187 213.5 175.5 c 128,-1,42
 200 164 200 164 200 143 c 0,43,44
 200 100 200 100 249 100 c 0,35,36
EndSplineSet
Substitution2: "'smcp' Lowercase to Small Capitals lookup 12 subtable" aacute.sc
Substitution2: "'aalt' Access All Alternates lookup 0 subtable" aacute.sc
EndChar

StartChar: acircumflex
Encoding: 226 226 164
Width: 581
GlyphClass: 2
Flags: W
LayerCount: 2
Fore
SplineSet
276 646 m 1,0,-1
 208 559 l 1,1,-1
 85 559 l 1,2,-1
 193 732 l 1,3,-1
 359 732 l 1,4,-1
 467 559 l 1,5,-1
 344 559 l 1,6,-1
 276 646 l 1,0,-1
544 97 m 0,7,8
 563 97 563 97 575 101 c 1,9,-1
 562 6 l 1,10,11
 533 -10 533 -10 494 -10 c 0,12,13
 386 -10 386 -10 365 67 c 1,14,15
 320 -10 320 -10 187 -10 c 0,16,17
 112 -10 112 -10 72 22 c 128,-1,18
 32 54 32 54 32 115 c 0,19,20
 32 179 32 179 77.5 218.5 c 128,-1,21
 123 258 123 258 227 279 c 2,22,-1
 340 301 l 1,23,-1
 340 319 l 2,24,25
 340 353 340 353 321 373 c 128,-1,26
 302 393 302 393 269 393 c 0,27,28
 189 393 189 393 176 316 c 1,29,-1
 38 356 l 1,30,31
 51 429 51 429 110 469.5 c 128,-1,32
 169 510 169 510 269 510 c 0,33,34
 508 510 508 510 508 318 c 2,35,-1
 508 136 l 2,36,37
 508 97 508 97 544 97 c 0,7,8
249 100 m 0,38,39
 284 100 284 100 312 119.5 c 128,-1,40
 340 139 340 139 340 171 c 2,41,-1
 340 214 l 1,42,-1
 259 195 l 2,43,44
 227 187 227 187 213.5 175.5 c 128,-1,45
 200 164 200 164 200 143 c 0,46,47
 200 100 200 100 249 100 c 0,38,39
EndSplineSet
Substitution2: "'smcp' Lowercase to Small Capitals lookup 12 subtable" acircumflex.sc
Substitution2: "'aalt' Access All Alternates lookup 0 subtable" acircumflex.sc
EndChar

StartChar: atilde
Encoding: 227 227 165
Width: 581
GlyphClass: 2
Flags: W
LayerCount: 2
Fore
SplineSet
211 616 m 0,0,1
 180 616 180 616 174 560 c 1,2,-1
 78 560 l 1,3,4
 84 719 84 719 210 719 c 0,5,6
 243 719 243 719 267.5 704.5 c 128,-1,7
 292 690 292 690 308.5 676 c 128,-1,8
 325 662 325 662 340 662 c 0,9,10
 372 662 372 662 378 718 c 1,11,-1
 474 718 l 1,12,13
 468 559 468 559 342 559 c 0,14,15
 309 559 309 559 285 573.5 c 128,-1,16
 261 588 261 588 244 602 c 128,-1,17
 227 616 227 616 211 616 c 0,0,1
544 97 m 0,18,19
 563 97 563 97 575 101 c 1,20,-1
 562 6 l 1,21,22
 533 -10 533 -10 494 -10 c 0,23,24
 386 -10 386 -10 365 67 c 1,25,26
 320 -10 320 -10 187 -10 c 0,27,28
 112 -10 112 -10 72 22 c 128,-1,29
 32 54 32 54 32 115 c 0,30,31
 32 179 32 179 77.5 218.5 c 128,-1,32
 123 258 123 258 227 279 c 2,33,-1
 340 301 l 1,34,-1
 340 319 l 2,35,36
 340 353 340 353 321 373 c 128,-1,37
 302 393 302 393 269 393 c 0,38,39
 189 393 189 393 176 316 c 1,40,-1
 38 356 l 1,41,42
 51 429 51 429 110 469.5 c 128,-1,43
 169 510 169 510 269 510 c 0,44,45
 508 510 508 510 508 318 c 2,46,-1
 508 136 l 2,47,48
 508 97 508 97 544 97 c 0,18,19
249 100 m 0,49,50
 284 100 284 100 312 119.5 c 128,-1,51
 340 139 340 139 340 171 c 2,52,-1
 340 214 l 1,53,-1
 259 195 l 2,54,55
 227 187 227 187 213.5 175.5 c 128,-1,56
 200 164 200 164 200 143 c 0,57,58
 200 100 200 100 249 100 c 0,49,50
EndSplineSet
Substitution2: "'smcp' Lowercase to Small Capitals lookup 12 subtable" atilde.sc
Substitution2: "'aalt' Access All Alternates lookup 0 subtable" atilde.sc
EndChar

StartChar: adieresis
Encoding: 228 228 166
Width: 581
GlyphClass: 2
Flags: W
LayerCount: 2
Fore
SplineSet
165 556 m 0,0,1
 126 556 126 556 103.5 576.5 c 128,-1,2
 81 597 81 597 81 633 c 128,-1,3
 81 669 81 669 103.5 689.5 c 128,-1,4
 126 710 126 710 165 710 c 0,5,6
 205 710 205 710 228 689.5 c 128,-1,7
 251 669 251 669 251 633 c 128,-1,8
 251 597 251 597 228 576.5 c 128,-1,9
 205 556 205 556 165 556 c 0,0,1
385 556 m 0,10,11
 346 556 346 556 323.5 576.5 c 128,-1,12
 301 597 301 597 301 633 c 128,-1,13
 301 669 301 669 323.5 689.5 c 128,-1,14
 346 710 346 710 385 710 c 0,15,16
 425 710 425 710 448 689.5 c 128,-1,17
 471 669 471 669 471 633 c 128,-1,18
 471 597 471 597 448 576.5 c 128,-1,19
 425 556 425 556 385 556 c 0,10,11
544 97 m 0,20,21
 563 97 563 97 575 101 c 1,22,-1
 562 6 l 1,23,24
 533 -10 533 -10 494 -10 c 0,25,26
 386 -10 386 -10 365 67 c 1,27,28
 320 -10 320 -10 187 -10 c 0,29,30
 112 -10 112 -10 72 22 c 128,-1,31
 32 54 32 54 32 115 c 0,32,33
 32 179 32 179 77.5 218.5 c 128,-1,34
 123 258 123 258 227 279 c 2,35,-1
 340 301 l 1,36,-1
 340 319 l 2,37,38
 340 353 340 353 321 373 c 128,-1,39
 302 393 302 393 269 393 c 0,40,41
 189 393 189 393 176 316 c 1,42,-1
 38 356 l 1,43,44
 51 429 51 429 110 469.5 c 128,-1,45
 169 510 169 510 269 510 c 0,46,47
 508 510 508 510 508 318 c 2,48,-1
 508 136 l 2,49,50
 508 97 508 97 544 97 c 0,20,21
249 100 m 0,51,52
 284 100 284 100 312 119.5 c 128,-1,53
 340 139 340 139 340 171 c 2,54,-1
 340 214 l 1,55,-1
 259 195 l 2,56,57
 227 187 227 187 213.5 175.5 c 128,-1,58
 200 164 200 164 200 143 c 0,59,60
 200 100 200 100 249 100 c 0,51,52
EndSplineSet
Substitution2: "'smcp' Lowercase to Small Capitals lookup 12 subtable" adieresis.sc
Substitution2: "'aalt' Access All Alternates lookup 0 subtable" adieresis.sc
EndChar

StartChar: aring
Encoding: 229 229 167
Width: 581
GlyphClass: 2
Flags: W
LayerCount: 2
Fore
SplineSet
277 551 m 128,-1,1
 214 551 214 551 178 583.5 c 128,-1,2
 142 616 142 616 142 672 c 128,-1,3
 142 728 142 728 178 760.5 c 128,-1,4
 214 793 214 793 277 793 c 128,-1,5
 340 793 340 793 375.5 760.5 c 128,-1,6
 411 728 411 728 411 672 c 128,-1,7
 411 616 411 616 375.5 583.5 c 128,-1,0
 340 551 340 551 277 551 c 128,-1,1
277 723 m 0,8,9
 253 723 253 723 238.5 709 c 128,-1,10
 224 695 224 695 224 672 c 128,-1,11
 224 649 224 649 238.5 635 c 128,-1,12
 253 621 253 621 277 621 c 0,13,14
 300 621 300 621 314.5 635 c 128,-1,15
 329 649 329 649 329 672 c 128,-1,16
 329 695 329 695 314.5 709 c 128,-1,17
 300 723 300 723 277 723 c 0,8,9
544 97 m 0,18,19
 563 97 563 97 575 101 c 1,20,-1
 562 6 l 1,21,22
 533 -10 533 -10 494 -10 c 0,23,24
 386 -10 386 -10 365 67 c 1,25,26
 320 -10 320 -10 187 -10 c 0,27,28
 112 -10 112 -10 72 22 c 128,-1,29
 32 54 32 54 32 115 c 0,30,31
 32 179 32 179 77.5 218.5 c 128,-1,32
 123 258 123 258 227 279 c 2,33,-1
 340 301 l 1,34,-1
 340 319 l 2,35,36
 340 353 340 353 321 373 c 128,-1,37
 302 393 302 393 269 393 c 0,38,39
 189 393 189 393 176 316 c 1,40,-1
 38 356 l 1,41,42
 51 429 51 429 110 469.5 c 128,-1,43
 169 510 169 510 269 510 c 0,44,45
 508 510 508 510 508 318 c 2,46,-1
 508 136 l 2,47,48
 508 97 508 97 544 97 c 0,18,19
249 100 m 0,49,50
 284 100 284 100 312 119.5 c 128,-1,51
 340 139 340 139 340 171 c 2,52,-1
 340 214 l 1,53,-1
 259 195 l 2,54,55
 227 187 227 187 213.5 175.5 c 128,-1,56
 200 164 200 164 200 143 c 0,57,58
 200 100 200 100 249 100 c 0,49,50
EndSplineSet
Substitution2: "'smcp' Lowercase to Small Capitals lookup 12 subtable" aring.sc
Substitution2: "'aalt' Access All Alternates lookup 0 subtable" aring.sc
EndChar

StartChar: ae
Encoding: 230 230 168
Width: 879
GlyphClass: 2
Flags: W
LayerCount: 2
Fore
SplineSet
842 270 m 0,0,1
 842 237 842 237 838 207 c 1,2,-1
 509 207 l 1,3,4
 523 110 523 110 612 110 c 0,5,6
 678 110 678 110 695 165 c 1,7,-1
 832 121 l 1,8,9
 811 56 811 56 753 23 c 128,-1,10
 695 -10 695 -10 607 -10 c 0,11,12
 476 -10 476 -10 420 85 c 1,13,14
 364 -10 364 -10 195 -10 c 0,15,16
 115 -10 115 -10 73.5 23.5 c 128,-1,17
 32 57 32 57 32 114 c 0,18,19
 32 177 32 177 76.5 213.5 c 128,-1,20
 121 250 121 250 218 269 c 2,21,-1
 343 294 l 1,22,-1
 343 319 l 2,23,24
 343 393 343 393 266 393 c 0,25,26
 195 393 195 393 177 318 c 1,27,-1
 39 353 l 1,28,29
 52 427 52 427 109.5 468.5 c 128,-1,30
 167 510 167 510 267 510 c 0,31,32
 384 510 384 510 441 437 c 1,33,34
 500 510 500 510 603 510 c 0,35,36
 717 510 717 510 779.5 444 c 128,-1,37
 842 378 842 378 842 270 c 0,0,1
602 391 m 0,38,39
 521 391 521 391 508 290 c 1,40,-1
 686 290 l 1,41,42
 677 391 677 391 602 391 c 0,38,39
252 91 m 0,43,44
 290 91 290 91 316.5 113 c 128,-1,45
 343 135 343 135 343 176 c 2,46,-1
 343 216 l 1,47,-1
 272 199 l 2,48,49
 232 189 232 189 215 175.5 c 128,-1,50
 198 162 198 162 198 137 c 0,51,52
 198 91 198 91 252 91 c 0,43,44
EndSplineSet
Substitution2: "'smcp' Lowercase to Small Capitals lookup 12 subtable" ae.sc
Substitution2: "'aalt' Access All Alternates lookup 0 subtable" ae.sc
EndChar

StartChar: ccedilla
Encoding: 231 231 169
Width: 571
GlyphClass: 2
Flags: W
LayerCount: 2
Fore
SplineSet
542 143 m 1,0,1
 534 89 534 89 492.5 50.5 c 128,-1,2
 451 12 451 12 383 -3 c 1,3,4
 437 -39 437 -39 437 -97 c 0,5,6
 437 -154 437 -154 398 -184.5 c 128,-1,7
 359 -215 359 -215 294 -215 c 0,8,9
 213 -215 213 -215 170 -175 c 1,10,-1
 209 -96 l 1,11,12
 237 -124 237 -124 281 -124 c 0,13,14
 306 -124 306 -124 321 -111 c 128,-1,15
 336 -98 336 -98 336 -75 c 0,16,17
 336 -53 336 -53 320.5 -37 c 128,-1,18
 305 -21 305 -21 265 -8 c 1,19,20
 154 2 154 2 95.5 69 c 128,-1,21
 37 136 37 136 37 250 c 0,22,23
 37 373 37 373 106.5 441.5 c 128,-1,24
 176 510 176 510 300 510 c 0,25,26
 413 510 413 510 470 467 c 128,-1,27
 527 424 527 424 541 355 c 1,28,-1
 383 303 l 1,29,30
 373 389 373 389 306 389 c 0,31,32
 207 389 207 389 207 248 c 0,33,34
 207 111 207 111 306 111 c 0,35,36
 377 111 377 111 389 192 c 1,37,-1
 542 143 l 1,0,1
EndSplineSet
Substitution2: "'smcp' Lowercase to Small Capitals lookup 12 subtable" ccedilla.sc
Substitution2: "'aalt' Access All Alternates lookup 0 subtable" ccedilla.sc
EndChar

StartChar: egrave
Encoding: 232 232 170
Width: 582
GlyphClass: 2
Flags: W
AnchorPoint: "Anchor-0" 298 0 basechar 0
LayerCount: 2
Fore
SplineSet
362 565 m 1,0,-1
 238 565 l 1,1,-1
 137 738 l 1,2,-1
 295 738 l 1,3,-1
 362 565 l 1,0,-1
548 257 m 0,4,5
 548 223 548 223 543 201 c 1,6,-1
 202 201 l 1,7,8
 217 110 217 110 307 110 c 0,9,10
 382 110 382 110 399 165 c 1,11,-1
 537 121 l 1,12,13
 516 57 516 57 455.5 23.5 c 128,-1,14
 395 -10 395 -10 307 -10 c 0,15,16
 176 -10 176 -10 106.5 58 c 128,-1,17
 37 126 37 126 37 250 c 128,-1,18
 37 374 37 374 105 442 c 128,-1,19
 173 510 173 510 298 510 c 0,20,21
 419 510 419 510 483.5 443.5 c 128,-1,22
 548 377 548 377 548 257 c 0,4,5
297 391 m 0,23,24
 216 391 216 391 201 293 c 1,25,-1
 389 293 l 1,26,27
 377 391 377 391 297 391 c 0,23,24
EndSplineSet
Substitution2: "'smcp' Lowercase to Small Capitals lookup 12 subtable" egrave.sc
Substitution2: "'aalt' Access All Alternates lookup 0 subtable" egrave.sc
EndChar

StartChar: eacute
Encoding: 233 233 171
Width: 582
GlyphClass: 2
Flags: W
AnchorPoint: "Anchor-0" 298 0 basechar 0
LayerCount: 2
Fore
SplineSet
443 738 m 1,0,-1
 342 565 l 1,1,-1
 218 565 l 1,2,-1
 285 738 l 1,3,-1
 443 738 l 1,0,-1
548 257 m 0,4,5
 548 223 548 223 543 201 c 1,6,-1
 202 201 l 1,7,8
 217 110 217 110 307 110 c 0,9,10
 382 110 382 110 399 165 c 1,11,-1
 537 121 l 1,12,13
 516 57 516 57 455.5 23.5 c 128,-1,14
 395 -10 395 -10 307 -10 c 0,15,16
 176 -10 176 -10 106.5 58 c 128,-1,17
 37 126 37 126 37 250 c 128,-1,18
 37 374 37 374 105 442 c 128,-1,19
 173 510 173 510 298 510 c 0,20,21
 419 510 419 510 483.5 443.5 c 128,-1,22
 548 377 548 377 548 257 c 0,4,5
297 391 m 0,23,24
 216 391 216 391 201 293 c 1,25,-1
 389 293 l 1,26,27
 377 391 377 391 297 391 c 0,23,24
EndSplineSet
Substitution2: "'smcp' Lowercase to Small Capitals lookup 12 subtable" eacute.sc
Substitution2: "'aalt' Access All Alternates lookup 0 subtable" eacute.sc
EndChar

StartChar: ecircumflex
Encoding: 234 234 172
Width: 582
GlyphClass: 2
Flags: W
AnchorPoint: "Anchor-0" 298 0 basechar 0
LayerCount: 2
Fore
SplineSet
295 646 m 1,0,-1
 227 559 l 1,1,-1
 104 559 l 1,2,-1
 212 732 l 1,3,-1
 378 732 l 1,4,-1
 486 559 l 1,5,-1
 363 559 l 1,6,-1
 295 646 l 1,0,-1
548 257 m 0,7,8
 548 223 548 223 543 201 c 1,9,-1
 202 201 l 1,10,11
 217 110 217 110 307 110 c 0,12,13
 382 110 382 110 399 165 c 1,14,-1
 537 121 l 1,15,16
 516 57 516 57 455.5 23.5 c 128,-1,17
 395 -10 395 -10 307 -10 c 0,18,19
 176 -10 176 -10 106.5 58 c 128,-1,20
 37 126 37 126 37 250 c 128,-1,21
 37 374 37 374 105 442 c 128,-1,22
 173 510 173 510 298 510 c 0,23,24
 419 510 419 510 483.5 443.5 c 128,-1,25
 548 377 548 377 548 257 c 0,7,8
297 391 m 0,26,27
 216 391 216 391 201 293 c 1,28,-1
 389 293 l 1,29,30
 377 391 377 391 297 391 c 0,26,27
EndSplineSet
Substitution2: "'smcp' Lowercase to Small Capitals lookup 12 subtable" ecircumflex.sc
Substitution2: "'aalt' Access All Alternates lookup 0 subtable" ecircumflex.sc
EndChar

StartChar: edieresis
Encoding: 235 235 173
Width: 582
GlyphClass: 2
Flags: W
AnchorPoint: "Anchor-0" 298 0 basechar 0
LayerCount: 2
Fore
SplineSet
184 556 m 0,0,1
 145 556 145 556 122.5 576.5 c 128,-1,2
 100 597 100 597 100 633 c 128,-1,3
 100 669 100 669 122.5 689.5 c 128,-1,4
 145 710 145 710 184 710 c 0,5,6
 224 710 224 710 247 689.5 c 128,-1,7
 270 669 270 669 270 633 c 128,-1,8
 270 597 270 597 247 576.5 c 128,-1,9
 224 556 224 556 184 556 c 0,0,1
404 556 m 0,10,11
 365 556 365 556 342.5 576.5 c 128,-1,12
 320 597 320 597 320 633 c 128,-1,13
 320 669 320 669 342.5 689.5 c 128,-1,14
 365 710 365 710 404 710 c 0,15,16
 444 710 444 710 467 689.5 c 128,-1,17
 490 669 490 669 490 633 c 128,-1,18
 490 597 490 597 467 576.5 c 128,-1,19
 444 556 444 556 404 556 c 0,10,11
548 257 m 0,20,21
 548 223 548 223 543 201 c 1,22,-1
 202 201 l 1,23,24
 217 110 217 110 307 110 c 0,25,26
 382 110 382 110 399 165 c 1,27,-1
 537 121 l 1,28,29
 516 57 516 57 455.5 23.5 c 128,-1,30
 395 -10 395 -10 307 -10 c 0,31,32
 176 -10 176 -10 106.5 58 c 128,-1,33
 37 126 37 126 37 250 c 128,-1,34
 37 374 37 374 105 442 c 128,-1,35
 173 510 173 510 298 510 c 0,36,37
 419 510 419 510 483.5 443.5 c 128,-1,38
 548 377 548 377 548 257 c 0,20,21
297 391 m 0,39,40
 216 391 216 391 201 293 c 1,41,-1
 389 293 l 1,42,43
 377 391 377 391 297 391 c 0,39,40
EndSplineSet
Substitution2: "'smcp' Lowercase to Small Capitals lookup 12 subtable" edieresis.sc
Substitution2: "'aalt' Access All Alternates lookup 0 subtable" edieresis.sc
EndChar

StartChar: igrave
Encoding: 236 236 174
Width: 291
GlyphClass: 2
Flags: W
LayerCount: 2
Fore
SplineSet
146 738 m 1,0,-1
 213 565 l 1,1,-1
 89 565 l 1,2,-1
 -12 738 l 1,3,-1
 146 738 l 1,0,-1
231 500 m 1,4,-1
 231 0 l 1,5,-1
 61 0 l 1,6,-1
 61 500 l 1,7,-1
 231 500 l 1,4,-1
EndSplineSet
Substitution2: "'smcp' Lowercase to Small Capitals lookup 12 subtable" igrave.sc
Substitution2: "'aalt' Access All Alternates lookup 0 subtable" igrave.sc
EndChar

StartChar: iacute
Encoding: 237 237 175
Width: 291
GlyphClass: 2
Flags: W
LayerCount: 2
Fore
SplineSet
140 738 m 1,0,-1
 298 738 l 1,1,-1
 197 565 l 1,2,-1
 73 565 l 1,3,-1
 140 738 l 1,0,-1
231 500 m 1,4,-1
 231 0 l 1,5,-1
 61 0 l 1,6,-1
 61 500 l 1,7,-1
 231 500 l 1,4,-1
EndSplineSet
Substitution2: "'smcp' Lowercase to Small Capitals lookup 12 subtable" iacute.sc
Substitution2: "'aalt' Access All Alternates lookup 0 subtable" iacute.sc
EndChar

StartChar: icircumflex
Encoding: 238 238 176
Width: 291
GlyphClass: 2
Flags: W
LayerCount: 2
Fore
SplineSet
337 559 m 1,0,-1
 214 559 l 1,1,-1
 146 646 l 1,2,-1
 78 559 l 1,3,-1
 -45 559 l 1,4,-1
 63 732 l 1,5,-1
 229 732 l 1,6,-1
 337 559 l 1,0,-1
231 500 m 1,7,-1
 231 0 l 1,8,-1
 61 0 l 1,9,-1
 61 500 l 1,10,-1
 231 500 l 1,7,-1
EndSplineSet
Substitution2: "'smcp' Lowercase to Small Capitals lookup 12 subtable" icircumflex.sc
Substitution2: "'aalt' Access All Alternates lookup 0 subtable" icircumflex.sc
EndChar

StartChar: idieresis
Encoding: 239 239 177
Width: 291
GlyphClass: 2
Flags: W
LayerCount: 2
Fore
SplineSet
49 554 m 0,0,1
 -31 554 -31 554 -31 633 c 128,-1,2
 -31 712 -31 712 49 712 c 0,3,4
 130 712 130 712 130 633 c 128,-1,5
 130 554 130 554 49 554 c 0,0,1
242 554 m 0,6,7
 161 554 161 554 161 633 c 128,-1,8
 161 712 161 712 242 712 c 0,9,10
 322 712 322 712 322 633 c 128,-1,11
 322 554 322 554 242 554 c 0,6,7
231 500 m 1,12,-1
 231 0 l 1,13,-1
 61 0 l 1,14,-1
 61 500 l 1,15,-1
 231 500 l 1,12,-1
EndSplineSet
Substitution2: "'smcp' Lowercase to Small Capitals lookup 12 subtable" idieresis.sc
Substitution2: "'aalt' Access All Alternates lookup 0 subtable" idieresis.sc
EndChar

StartChar: eth
Encoding: 240 240 178
Width: 604
GlyphClass: 2
Flags: W
LayerCount: 2
Fore
SplineSet
567 617 m 1,0,-1
 467 605 l 1,1,2
 562 481 562 481 562 303 c 0,3,4
 562 143 562 143 497.5 66.5 c 128,-1,5
 433 -10 433 -10 293 -10 c 0,6,7
 175 -10 175 -10 108 57 c 128,-1,8
 41 124 41 124 41 243 c 0,9,10
 41 360 41 360 108 427.5 c 128,-1,11
 175 495 175 495 285 495 c 0,12,13
 385 495 385 495 428 425 c 1,14,15
 407 515 407 515 352 579 c 1,16,-1
 189 544 l 1,17,-1
 178 600 l 1,18,-1
 313 620 l 1,19,20
 266 663 266 663 176 722 c 1,21,-1
 331 722 l 1,22,23
 387 692 387 692 433 645 c 1,24,-1
 553 673 l 1,25,-1
 567 617 l 1,0,-1
304 111 m 0,26,27
 401 111 401 111 401 243 c 0,28,29
 401 383 401 383 306 383 c 0,30,31
 213 383 213 383 213 243 c 0,32,33
 213 111 213 111 304 111 c 0,26,27
EndSplineSet
Substitution2: "'smcp' Lowercase to Small Capitals lookup 12 subtable" eth.sc
Substitution2: "'aalt' Access All Alternates lookup 0 subtable" eth.sc
EndChar

StartChar: ntilde
Encoding: 241 241 179
Width: 620
GlyphClass: 2
Flags: W
AnchorPoint: "Anchor-0" 319 0 basechar 0
LayerCount: 2
Fore
SplineSet
247 616 m 0,0,1
 216 616 216 616 210 560 c 1,2,-1
 114 560 l 1,3,4
 120 719 120 719 246 719 c 0,5,6
 279 719 279 719 303.5 704.5 c 128,-1,7
 328 690 328 690 344.5 676 c 128,-1,8
 361 662 361 662 376 662 c 0,9,10
 408 662 408 662 414 718 c 1,11,-1
 510 718 l 1,12,13
 504 559 504 559 378 559 c 0,14,15
 345 559 345 559 321 573.5 c 128,-1,16
 297 588 297 588 280 602 c 128,-1,17
 263 616 263 616 247 616 c 0,0,1
389 510 m 0,18,19
 468 510 468 510 515 464 c 128,-1,20
 562 418 562 418 562 333 c 2,21,-1
 562 0 l 1,22,-1
 392 0 l 1,23,-1
 392 286 l 2,24,25
 392 380 392 380 321 380 c 0,26,27
 281 380 281 380 256 351.5 c 128,-1,28
 231 323 231 323 231 264 c 2,29,-1
 231 0 l 1,30,-1
 61 0 l 1,31,-1
 61 500 l 1,32,-1
 213 500 l 1,33,-1
 218 404 l 1,34,35
 266 510 266 510 389 510 c 0,18,19
EndSplineSet
Substitution2: "Single Substitution lookup 57 subtable" ntilde.swsh
Substitution2: "'swsh' Swash lookup 38 subtable" ntilde.swsh
Substitution2: "'smcp' Lowercase to Small Capitals lookup 12 subtable" ntilde.sc
AlternateSubs2: "'aalt' Access All Alternates lookup 1 subtable" ntilde.sc ntilde.swsh
EndChar

StartChar: ograve
Encoding: 242 242 180
Width: 602
GlyphClass: 2
Flags: W
LayerCount: 2
Fore
SplineSet
301 738 m 1,0,-1
 368 565 l 1,1,-1
 244 565 l 1,2,-1
 143 738 l 1,3,-1
 301 738 l 1,0,-1
301 510 m 128,-1,5
 426 510 426 510 495.5 441.5 c 128,-1,6
 565 373 565 373 565 250 c 128,-1,7
 565 127 565 127 495.5 58.5 c 128,-1,8
 426 -10 426 -10 301 -10 c 128,-1,9
 176 -10 176 -10 106.5 58.5 c 128,-1,10
 37 127 37 127 37 250 c 128,-1,11
 37 373 37 373 106.5 441.5 c 128,-1,4
 176 510 176 510 301 510 c 128,-1,5
301 389 m 128,-1,13
 253 389 253 389 230 356 c 128,-1,14
 207 323 207 323 207 250 c 128,-1,15
 207 177 207 177 230 144 c 128,-1,16
 253 111 253 111 301 111 c 128,-1,17
 349 111 349 111 372 144 c 128,-1,18
 395 177 395 177 395 250 c 128,-1,19
 395 323 395 323 372 356 c 128,-1,12
 349 389 349 389 301 389 c 128,-1,13
EndSplineSet
Substitution2: "'smcp' Lowercase to Small Capitals lookup 12 subtable" ograve.sc
Substitution2: "'aalt' Access All Alternates lookup 0 subtable" ograve.sc
EndChar

StartChar: oacute
Encoding: 243 243 181
Width: 602
GlyphClass: 2
Flags: W
LayerCount: 2
Fore
SplineSet
291 738 m 1,0,-1
 449 738 l 1,1,-1
 348 565 l 1,2,-1
 224 565 l 1,3,-1
 291 738 l 1,0,-1
301 510 m 128,-1,5
 426 510 426 510 495.5 441.5 c 128,-1,6
 565 373 565 373 565 250 c 128,-1,7
 565 127 565 127 495.5 58.5 c 128,-1,8
 426 -10 426 -10 301 -10 c 128,-1,9
 176 -10 176 -10 106.5 58.5 c 128,-1,10
 37 127 37 127 37 250 c 128,-1,11
 37 373 37 373 106.5 441.5 c 128,-1,4
 176 510 176 510 301 510 c 128,-1,5
301 389 m 128,-1,13
 253 389 253 389 230 356 c 128,-1,14
 207 323 207 323 207 250 c 128,-1,15
 207 177 207 177 230 144 c 128,-1,16
 253 111 253 111 301 111 c 128,-1,17
 349 111 349 111 372 144 c 128,-1,18
 395 177 395 177 395 250 c 128,-1,19
 395 323 395 323 372 356 c 128,-1,12
 349 389 349 389 301 389 c 128,-1,13
EndSplineSet
Substitution2: "'smcp' Lowercase to Small Capitals lookup 12 subtable" oacute.sc
Substitution2: "'aalt' Access All Alternates lookup 0 subtable" oacute.sc
EndChar

StartChar: ocircumflex
Encoding: 244 244 182
Width: 602
GlyphClass: 2
Flags: W
LayerCount: 2
Fore
SplineSet
492 559 m 1,0,-1
 369 559 l 1,1,-1
 301 646 l 1,2,-1
 233 559 l 1,3,-1
 110 559 l 1,4,-1
 218 732 l 1,5,-1
 384 732 l 1,6,-1
 492 559 l 1,0,-1
301 510 m 128,-1,8
 426 510 426 510 495.5 441.5 c 128,-1,9
 565 373 565 373 565 250 c 128,-1,10
 565 127 565 127 495.5 58.5 c 128,-1,11
 426 -10 426 -10 301 -10 c 128,-1,12
 176 -10 176 -10 106.5 58.5 c 128,-1,13
 37 127 37 127 37 250 c 128,-1,14
 37 373 37 373 106.5 441.5 c 128,-1,7
 176 510 176 510 301 510 c 128,-1,8
301 389 m 128,-1,16
 253 389 253 389 230 356 c 128,-1,17
 207 323 207 323 207 250 c 128,-1,18
 207 177 207 177 230 144 c 128,-1,19
 253 111 253 111 301 111 c 128,-1,20
 349 111 349 111 372 144 c 128,-1,21
 395 177 395 177 395 250 c 128,-1,22
 395 323 395 323 372 356 c 128,-1,15
 349 389 349 389 301 389 c 128,-1,16
EndSplineSet
Substitution2: "'smcp' Lowercase to Small Capitals lookup 12 subtable" ocircumflex.sc
Substitution2: "'aalt' Access All Alternates lookup 0 subtable" ocircumflex.sc
EndChar

StartChar: otilde
Encoding: 245 245 183
Width: 602
GlyphClass: 2
Flags: W
LayerCount: 2
Fore
SplineSet
499 718 m 1,0,1
 493 559 493 559 367 559 c 0,2,3
 334 559 334 559 310 573.5 c 128,-1,4
 286 588 286 588 269 602 c 128,-1,5
 252 616 252 616 236 616 c 0,6,7
 205 616 205 616 199 560 c 1,8,-1
 103 560 l 1,9,10
 109 719 109 719 235 719 c 0,11,12
 268 719 268 719 292.5 704.5 c 128,-1,13
 317 690 317 690 333.5 676 c 128,-1,14
 350 662 350 662 365 662 c 0,15,16
 397 662 397 662 403 718 c 1,17,-1
 499 718 l 1,0,1
301 510 m 128,-1,19
 426 510 426 510 495.5 441.5 c 128,-1,20
 565 373 565 373 565 250 c 128,-1,21
 565 127 565 127 495.5 58.5 c 128,-1,22
 426 -10 426 -10 301 -10 c 128,-1,23
 176 -10 176 -10 106.5 58.5 c 128,-1,24
 37 127 37 127 37 250 c 128,-1,25
 37 373 37 373 106.5 441.5 c 128,-1,18
 176 510 176 510 301 510 c 128,-1,19
301 389 m 128,-1,27
 253 389 253 389 230 356 c 128,-1,28
 207 323 207 323 207 250 c 128,-1,29
 207 177 207 177 230 144 c 128,-1,30
 253 111 253 111 301 111 c 128,-1,31
 349 111 349 111 372 144 c 128,-1,32
 395 177 395 177 395 250 c 128,-1,33
 395 323 395 323 372 356 c 128,-1,26
 349 389 349 389 301 389 c 128,-1,27
EndSplineSet
Substitution2: "'smcp' Lowercase to Small Capitals lookup 12 subtable" otilde.sc
Substitution2: "'aalt' Access All Alternates lookup 0 subtable" otilde.sc
EndChar

StartChar: odieresis
Encoding: 246 246 184
Width: 602
GlyphClass: 2
Flags: W
LayerCount: 2
Fore
SplineSet
190 710 m 0,0,1
 230 710 230 710 253 689.5 c 128,-1,2
 276 669 276 669 276 633 c 128,-1,3
 276 597 276 597 253 576.5 c 128,-1,4
 230 556 230 556 190 556 c 0,5,6
 151 556 151 556 128.5 576.5 c 128,-1,7
 106 597 106 597 106 633 c 128,-1,8
 106 669 106 669 128.5 689.5 c 128,-1,9
 151 710 151 710 190 710 c 0,0,1
410 710 m 0,10,11
 450 710 450 710 473 689.5 c 128,-1,12
 496 669 496 669 496 633 c 128,-1,13
 496 597 496 597 473 576.5 c 128,-1,14
 450 556 450 556 410 556 c 0,15,16
 371 556 371 556 348.5 576.5 c 128,-1,17
 326 597 326 597 326 633 c 128,-1,18
 326 669 326 669 348.5 689.5 c 128,-1,19
 371 710 371 710 410 710 c 0,10,11
301 510 m 128,-1,21
 426 510 426 510 495.5 441.5 c 128,-1,22
 565 373 565 373 565 250 c 128,-1,23
 565 127 565 127 495.5 58.5 c 128,-1,24
 426 -10 426 -10 301 -10 c 128,-1,25
 176 -10 176 -10 106.5 58.5 c 128,-1,26
 37 127 37 127 37 250 c 128,-1,27
 37 373 37 373 106.5 441.5 c 128,-1,20
 176 510 176 510 301 510 c 128,-1,21
301 389 m 128,-1,29
 253 389 253 389 230 356 c 128,-1,30
 207 323 207 323 207 250 c 128,-1,31
 207 177 207 177 230 144 c 128,-1,32
 253 111 253 111 301 111 c 128,-1,33
 349 111 349 111 372 144 c 128,-1,34
 395 177 395 177 395 250 c 128,-1,35
 395 323 395 323 372 356 c 128,-1,28
 349 389 349 389 301 389 c 128,-1,29
EndSplineSet
Substitution2: "'smcp' Lowercase to Small Capitals lookup 12 subtable" odieresis.sc
Substitution2: "'aalt' Access All Alternates lookup 0 subtable" odieresis.sc
EndChar

StartChar: divide
Encoding: 247 247 185
Width: 604
GlyphClass: 2
Flags: W
LayerCount: 2
Fore
SplineSet
303 624 m 128,-1,1
 343 624 343 624 366 602 c 128,-1,2
 389 580 389 580 389 541 c 128,-1,3
 389 502 389 502 366 480 c 128,-1,4
 343 458 343 458 303 458 c 128,-1,5
 263 458 263 458 240 480 c 128,-1,6
 217 502 217 502 217 541 c 128,-1,7
 217 580 217 580 240 602 c 128,-1,0
 263 624 263 624 303 624 c 128,-1,1
554 386 m 1,8,-1
 554 264 l 1,9,-1
 50 264 l 1,10,-1
 50 386 l 1,11,-1
 554 386 l 1,8,-1
303 194 m 128,-1,13
 343 194 343 194 366 172 c 128,-1,14
 389 150 389 150 389 111 c 128,-1,15
 389 72 389 72 366 50 c 128,-1,16
 343 28 343 28 303 28 c 128,-1,17
 263 28 263 28 240 50 c 128,-1,18
 217 72 217 72 217 111 c 128,-1,19
 217 150 217 150 240 172 c 128,-1,12
 263 194 263 194 303 194 c 128,-1,13
EndSplineSet
EndChar

StartChar: oslash
Encoding: 248 248 186
Width: 602
GlyphClass: 2
Flags: W
LayerCount: 2
Fore
SplineSet
301 510 m 0,0,1
 392 510 392 510 455 473 c 1,2,-1
 493 521 l 1,3,-1
 560 521 l 1,4,-1
 496 441 l 1,5,6
 565 372 565 372 565 250 c 0,7,8
 565 127 565 127 495.5 58.5 c 128,-1,9
 426 -10 426 -10 301 -10 c 0,10,11
 214 -10 214 -10 156 23 c 1,12,-1
 118 -27 l 1,13,-1
 51 -27 l 1,14,-1
 112 53 l 1,15,16
 37 122 37 122 37 250 c 0,17,18
 37 373 37 373 106.5 441.5 c 128,-1,19
 176 510 176 510 301 510 c 0,0,1
222 178 m 1,20,-1
 223 178 l 1,21,-1
 246 213 l 1,22,-1
 362 366 l 1,23,24
 340 389 340 389 301 389 c 0,25,26
 253 389 253 389 230 356 c 128,-1,27
 207 323 207 323 207 250 c 0,28,29
 207 211 207 211 222 178 c 1,20,-1
301 111 m 0,30,31
 349 111 349 111 372 144 c 128,-1,32
 395 177 395 177 395 250 c 0,33,34
 395 286 395 286 383 310 c 1,35,-1
 382 310 l 1,36,-1
 360 278 l 1,37,-1
 247 128 l 1,38,39
 265 111 265 111 301 111 c 0,30,31
EndSplineSet
Substitution2: "'smcp' Lowercase to Small Capitals lookup 12 subtable" oslash.sc
Substitution2: "'aalt' Access All Alternates lookup 0 subtable" oslash.sc
EndChar

StartChar: ugrave
Encoding: 249 249 187
Width: 620
GlyphClass: 2
Flags: W
LayerCount: 2
Fore
SplineSet
373 565 m 1,0,-1
 249 565 l 1,1,-1
 148 738 l 1,2,-1
 306 738 l 1,3,-1
 373 565 l 1,0,-1
389 500 m 1,4,-1
 559 500 l 1,5,-1
 559 0 l 1,6,-1
 407 0 l 1,7,-1
 402 93 l 1,8,9
 355 -10 355 -10 229 -10 c 0,10,11
 58 -10 58 -10 58 166 c 2,12,-1
 58 500 l 1,13,-1
 228 500 l 1,14,-1
 228 209 l 2,15,16
 228 160 228 160 245 140 c 128,-1,17
 262 120 262 120 297 120 c 0,18,19
 339 120 339 120 364 148.5 c 128,-1,20
 389 177 389 177 389 235 c 2,21,-1
 389 500 l 1,4,-1
EndSplineSet
Substitution2: "'smcp' Lowercase to Small Capitals lookup 12 subtable" ugrave.sc
Substitution2: "'aalt' Access All Alternates lookup 0 subtable" ugrave.sc
EndChar

StartChar: uacute
Encoding: 250 250 188
Width: 620
GlyphClass: 2
Flags: W
LayerCount: 2
Fore
SplineSet
454 738 m 1,0,-1
 353 565 l 1,1,-1
 229 565 l 1,2,-1
 296 738 l 1,3,-1
 454 738 l 1,0,-1
389 500 m 1,4,-1
 559 500 l 1,5,-1
 559 0 l 1,6,-1
 407 0 l 1,7,-1
 402 93 l 1,8,9
 355 -10 355 -10 229 -10 c 0,10,11
 58 -10 58 -10 58 166 c 2,12,-1
 58 500 l 1,13,-1
 228 500 l 1,14,-1
 228 209 l 2,15,16
 228 160 228 160 245 140 c 128,-1,17
 262 120 262 120 297 120 c 0,18,19
 339 120 339 120 364 148.5 c 128,-1,20
 389 177 389 177 389 235 c 2,21,-1
 389 500 l 1,4,-1
EndSplineSet
Substitution2: "'smcp' Lowercase to Small Capitals lookup 12 subtable" uacute.sc
Substitution2: "'aalt' Access All Alternates lookup 0 subtable" uacute.sc
EndChar

StartChar: ucircumflex
Encoding: 251 251 189
Width: 620
GlyphClass: 2
Flags: W
LayerCount: 2
Fore
SplineSet
306 646 m 1,0,-1
 238 559 l 1,1,-1
 115 559 l 1,2,-1
 223 732 l 1,3,-1
 389 732 l 1,4,-1
 497 559 l 1,5,-1
 374 559 l 1,6,-1
 306 646 l 1,0,-1
389 500 m 1,7,-1
 559 500 l 1,8,-1
 559 0 l 1,9,-1
 407 0 l 1,10,-1
 402 93 l 1,11,12
 355 -10 355 -10 229 -10 c 0,13,14
 58 -10 58 -10 58 166 c 2,15,-1
 58 500 l 1,16,-1
 228 500 l 1,17,-1
 228 209 l 2,18,19
 228 160 228 160 245 140 c 128,-1,20
 262 120 262 120 297 120 c 0,21,22
 339 120 339 120 364 148.5 c 128,-1,23
 389 177 389 177 389 235 c 2,24,-1
 389 500 l 1,7,-1
EndSplineSet
Substitution2: "'smcp' Lowercase to Small Capitals lookup 12 subtable" ucircumflex.sc
Substitution2: "'aalt' Access All Alternates lookup 0 subtable" ucircumflex.sc
EndChar

StartChar: udieresis
Encoding: 252 252 190
Width: 620
GlyphClass: 2
Flags: W
LayerCount: 2
Fore
SplineSet
194 556 m 0,0,1
 155 556 155 556 132.5 576.5 c 128,-1,2
 110 597 110 597 110 633 c 128,-1,3
 110 669 110 669 132.5 689.5 c 128,-1,4
 155 710 155 710 194 710 c 0,5,6
 234 710 234 710 257 689.5 c 128,-1,7
 280 669 280 669 280 633 c 128,-1,8
 280 597 280 597 257 576.5 c 128,-1,9
 234 556 234 556 194 556 c 0,0,1
414 556 m 0,10,11
 375 556 375 556 352.5 576.5 c 128,-1,12
 330 597 330 597 330 633 c 128,-1,13
 330 669 330 669 352.5 689.5 c 128,-1,14
 375 710 375 710 414 710 c 0,15,16
 454 710 454 710 477 689.5 c 128,-1,17
 500 669 500 669 500 633 c 128,-1,18
 500 597 500 597 477 576.5 c 128,-1,19
 454 556 454 556 414 556 c 0,10,11
389 500 m 1,20,-1
 559 500 l 1,21,-1
 559 0 l 1,22,-1
 407 0 l 1,23,-1
 402 93 l 1,24,25
 355 -10 355 -10 229 -10 c 0,26,27
 58 -10 58 -10 58 166 c 2,28,-1
 58 500 l 1,29,-1
 228 500 l 1,30,-1
 228 209 l 2,31,32
 228 160 228 160 245 140 c 128,-1,33
 262 120 262 120 297 120 c 0,34,35
 339 120 339 120 364 148.5 c 128,-1,36
 389 177 389 177 389 235 c 2,37,-1
 389 500 l 1,20,-1
EndSplineSet
Substitution2: "'smcp' Lowercase to Small Capitals lookup 12 subtable" udieresis.sc
Substitution2: "'aalt' Access All Alternates lookup 0 subtable" udieresis.sc
EndChar

StartChar: yacute
Encoding: 253 253 191
Width: 570
GlyphClass: 2
Flags: W
LayerCount: 2
Fore
SplineSet
293 738 m 1,0,-1
 451 738 l 1,1,-1
 350 565 l 1,2,-1
 226 565 l 1,3,-1
 293 738 l 1,0,-1
570 500 m 1,4,-1
 387 0 l 2,5,6
 346 -119 346 -119 290.5 -167 c 128,-1,7
 235 -215 235 -215 139 -215 c 0,8,9
 54 -215 54 -215 3 -178 c 1,10,-1
 39 -64 l 1,11,12
 68 -90 68 -90 125 -90 c 0,13,14
 156 -90 156 -90 174 -79.5 c 128,-1,15
 192 -69 192 -69 203 -42 c 2,16,-1
 215 -11 l 1,17,-1
 157 125 l 1,18,-1
 8 500 l 1,19,-1
 195 500 l 1,20,-1
 272 215 l 1,21,-1
 296 109 l 1,22,-1
 323 219 l 1,23,-1
 400 500 l 1,24,-1
 570 500 l 1,4,-1
EndSplineSet
Substitution2: "Single Substitution lookup 57 subtable" yacute.swsh
Substitution2: "'swsh' Swash lookup 38 subtable" yacute.swsh
Substitution2: "'smcp' Lowercase to Small Capitals lookup 12 subtable" yacute.sc
AlternateSubs2: "'aalt' Access All Alternates lookup 1 subtable" yacute.sc yacute.swsh
EndChar

StartChar: thorn
Encoding: 254 254 192
Width: 628
GlyphClass: 2
Flags: W
LayerCount: 2
Fore
SplineSet
386 510 m 0,0,1
 476 510 476 510 532 445 c 128,-1,2
 588 380 588 380 588 255 c 0,3,4
 588 118 588 118 527.5 54 c 128,-1,5
 467 -10 467 -10 381 -10 c 0,6,7
 277 -10 277 -10 231 75 c 1,8,-1
 231 -210 l 1,9,-1
 61 -210 l 1,10,-1
 61 712 l 1,11,-1
 231 712 l 1,12,-1
 231 413 l 1,13,14
 277 510 277 510 386 510 c 0,0,1
323 115 m 0,15,16
 417 115 417 115 417 250 c 128,-1,17
 417 385 417 385 323 385 c 0,18,19
 280 385 280 385 255.5 352 c 128,-1,20
 231 319 231 319 231 255 c 2,21,-1
 231 245 l 2,22,23
 231 183 231 183 255 149 c 128,-1,24
 279 115 279 115 323 115 c 0,15,16
EndSplineSet
Substitution2: "'smcp' Lowercase to Small Capitals lookup 12 subtable" thorn.sc
Substitution2: "'aalt' Access All Alternates lookup 0 subtable" thorn.sc
EndChar

StartChar: ydieresis
Encoding: 255 255 193
Width: 570
GlyphClass: 2
Flags: W
LayerCount: 2
Fore
SplineSet
192 710 m 0,0,1
 232 710 232 710 255 689.5 c 128,-1,2
 278 669 278 669 278 633 c 128,-1,3
 278 597 278 597 255 576.5 c 128,-1,4
 232 556 232 556 192 556 c 0,5,6
 153 556 153 556 130.5 576.5 c 128,-1,7
 108 597 108 597 108 633 c 128,-1,8
 108 669 108 669 130.5 689.5 c 128,-1,9
 153 710 153 710 192 710 c 0,0,1
412 710 m 0,10,11
 452 710 452 710 475 689.5 c 128,-1,12
 498 669 498 669 498 633 c 128,-1,13
 498 597 498 597 475 576.5 c 128,-1,14
 452 556 452 556 412 556 c 0,15,16
 373 556 373 556 350.5 576.5 c 128,-1,17
 328 597 328 597 328 633 c 128,-1,18
 328 669 328 669 350.5 689.5 c 128,-1,19
 373 710 373 710 412 710 c 0,10,11
570 500 m 1,20,-1
 387 0 l 2,21,22
 346 -119 346 -119 290.5 -167 c 128,-1,23
 235 -215 235 -215 139 -215 c 0,24,25
 54 -215 54 -215 3 -178 c 1,26,-1
 39 -64 l 1,27,28
 68 -90 68 -90 125 -90 c 0,29,30
 156 -90 156 -90 174 -79.5 c 128,-1,31
 192 -69 192 -69 203 -42 c 2,32,-1
 215 -11 l 1,33,-1
 157 125 l 1,34,-1
 8 500 l 1,35,-1
 195 500 l 1,36,-1
 272 215 l 1,37,-1
 296 109 l 1,38,-1
 323 219 l 1,39,-1
 400 500 l 1,40,-1
 570 500 l 1,20,-1
EndSplineSet
Substitution2: "Single Substitution lookup 57 subtable" ydieresis.swsh
Substitution2: "'swsh' Swash lookup 38 subtable" ydieresis.swsh
Substitution2: "'smcp' Lowercase to Small Capitals lookup 12 subtable" ydieresis.sc
AlternateSubs2: "'aalt' Access All Alternates lookup 1 subtable" ydieresis.sc ydieresis.swsh
EndChar

StartChar: Amacron
Encoding: 256 256 194
Width: 677
GlyphClass: 2
Flags: W
LayerCount: 2
Fore
SplineSet
524 834 m 1,0,-1
 524 729 l 1,1,-1
 152 729 l 1,2,-1
 152 834 l 1,3,-1
 524 834 l 1,0,-1
496 0 m 1,4,-1
 451 149 l 1,5,-1
 223 149 l 1,6,-1
 177 0 l 1,7,-1
 4 0 l 1,8,-1
 236 660 l 1,9,-1
 442 660 l 1,10,-1
 673 0 l 1,11,-1
 496 0 l 1,4,-1
259 266 m 1,12,-1
 415 266 l 1,13,-1
 367 424 l 1,14,-1
 338 528 l 1,15,-1
 336 528 l 1,16,-1
 309 425 l 1,17,-1
 259 266 l 1,12,-1
EndSplineSet
Substitution2: "Single Substitution lookup 56 subtable" Amacron.swsh
Substitution2: "'swsh' Swash lookup 32 subtable" Amacron.swsh
Substitution2: "'c2sc' Capitals to Small Capitals lookup 11 subtable" amacron.sc
AlternateSubs2: "'aalt' Access All Alternates lookup 1 subtable" amacron.sc Amacron.swsh
EndChar

StartChar: amacron
Encoding: 257 257 195
Width: 581
GlyphClass: 2
Flags: W
LayerCount: 2
Fore
SplineSet
462 674 m 1,0,-1
 462 569 l 1,1,-1
 90 569 l 1,2,-1
 90 674 l 1,3,-1
 462 674 l 1,0,-1
544 97 m 0,4,5
 563 97 563 97 575 101 c 1,6,-1
 562 6 l 1,7,8
 533 -10 533 -10 494 -10 c 0,9,10
 386 -10 386 -10 365 67 c 1,11,12
 320 -10 320 -10 187 -10 c 0,13,14
 112 -10 112 -10 72 22 c 128,-1,15
 32 54 32 54 32 115 c 0,16,17
 32 179 32 179 77.5 218.5 c 128,-1,18
 123 258 123 258 227 279 c 2,19,-1
 340 301 l 1,20,-1
 340 319 l 2,21,22
 340 353 340 353 321 373 c 128,-1,23
 302 393 302 393 269 393 c 0,24,25
 189 393 189 393 176 316 c 1,26,-1
 38 356 l 1,27,28
 51 429 51 429 110 469.5 c 128,-1,29
 169 510 169 510 269 510 c 0,30,31
 508 510 508 510 508 318 c 2,32,-1
 508 136 l 2,33,34
 508 97 508 97 544 97 c 0,4,5
249 100 m 0,35,36
 284 100 284 100 312 119.5 c 128,-1,37
 340 139 340 139 340 171 c 2,38,-1
 340 214 l 1,39,-1
 259 195 l 2,40,41
 227 187 227 187 213.5 175.5 c 128,-1,42
 200 164 200 164 200 143 c 0,43,44
 200 100 200 100 249 100 c 0,35,36
EndSplineSet
Substitution2: "'smcp' Lowercase to Small Capitals lookup 12 subtable" amacron.sc
Substitution2: "'aalt' Access All Alternates lookup 0 subtable" amacron.sc
EndChar

StartChar: Abreve
Encoding: 258 258 196
Width: 677
GlyphClass: 2
Flags: W
LayerCount: 2
Fore
SplineSet
338 715 m 128,-1,1
 259 715 259 715 214 758.5 c 128,-1,2
 169 802 169 802 169 878 c 1,3,-1
 279 878 l 1,4,5
 279 847 279 847 295 828.5 c 128,-1,6
 311 810 311 810 338 810 c 128,-1,7
 365 810 365 810 381 828.5 c 128,-1,8
 397 847 397 847 397 878 c 1,9,-1
 507 878 l 1,10,11
 507 802 507 802 462 758.5 c 128,-1,0
 417 715 417 715 338 715 c 128,-1,1
496 0 m 1,12,-1
 451 149 l 1,13,-1
 223 149 l 1,14,-1
 177 0 l 1,15,-1
 4 0 l 1,16,-1
 236 660 l 1,17,-1
 442 660 l 1,18,-1
 673 0 l 1,19,-1
 496 0 l 1,12,-1
259 266 m 1,20,-1
 415 266 l 1,21,-1
 367 424 l 1,22,-1
 338 528 l 1,23,-1
 336 528 l 1,24,-1
 309 425 l 1,25,-1
 259 266 l 1,20,-1
EndSplineSet
Substitution2: "Single Substitution lookup 56 subtable" Abreve.swsh
Substitution2: "'swsh' Swash lookup 32 subtable" Abreve.swsh
Substitution2: "'c2sc' Capitals to Small Capitals lookup 11 subtable" abreve.sc
AlternateSubs2: "'aalt' Access All Alternates lookup 1 subtable" abreve.sc Abreve.swsh
EndChar

StartChar: abreve
Encoding: 259 259 197
Width: 581
GlyphClass: 2
Flags: W
LayerCount: 2
Fore
SplineSet
276 555 m 128,-1,1
 197 555 197 555 152 598.5 c 128,-1,2
 107 642 107 642 107 718 c 1,3,-1
 217 718 l 1,4,5
 217 687 217 687 233 668.5 c 128,-1,6
 249 650 249 650 276 650 c 128,-1,7
 303 650 303 650 319 668.5 c 128,-1,8
 335 687 335 687 335 718 c 1,9,-1
 445 718 l 1,10,11
 445 642 445 642 400 598.5 c 128,-1,0
 355 555 355 555 276 555 c 128,-1,1
544 97 m 0,12,13
 563 97 563 97 575 101 c 1,14,-1
 562 6 l 1,15,16
 533 -10 533 -10 494 -10 c 0,17,18
 386 -10 386 -10 365 67 c 1,19,20
 320 -10 320 -10 187 -10 c 0,21,22
 112 -10 112 -10 72 22 c 128,-1,23
 32 54 32 54 32 115 c 0,24,25
 32 179 32 179 77.5 218.5 c 128,-1,26
 123 258 123 258 227 279 c 2,27,-1
 340 301 l 1,28,-1
 340 319 l 2,29,30
 340 353 340 353 321 373 c 128,-1,31
 302 393 302 393 269 393 c 0,32,33
 189 393 189 393 176 316 c 1,34,-1
 38 356 l 1,35,36
 51 429 51 429 110 469.5 c 128,-1,37
 169 510 169 510 269 510 c 0,38,39
 508 510 508 510 508 318 c 2,40,-1
 508 136 l 2,41,42
 508 97 508 97 544 97 c 0,12,13
249 100 m 0,43,44
 284 100 284 100 312 119.5 c 128,-1,45
 340 139 340 139 340 171 c 2,46,-1
 340 214 l 1,47,-1
 259 195 l 2,48,49
 227 187 227 187 213.5 175.5 c 128,-1,50
 200 164 200 164 200 143 c 0,51,52
 200 100 200 100 249 100 c 0,43,44
EndSplineSet
Substitution2: "'smcp' Lowercase to Small Capitals lookup 12 subtable" abreve.sc
Substitution2: "'aalt' Access All Alternates lookup 0 subtable" abreve.sc
EndChar

StartChar: Aogonek
Encoding: 260 260 198
Width: 677
GlyphClass: 2
Flags: W
LayerCount: 2
Fore
SplineSet
657 -110 m 1,0,-1
 680 -192 l 1,1,2
 643 -215 643 -215 576 -215 c 0,3,4
 514 -215 514 -215 476 -186 c 128,-1,5
 438 -157 438 -157 438 -102 c 0,6,7
 438 -35 438 -35 501 0 c 1,8,-1
 496 0 l 1,9,-1
 451 149 l 1,10,-1
 223 149 l 1,11,-1
 177 0 l 1,12,-1
 4 0 l 1,13,-1
 236 660 l 1,14,-1
 442 660 l 1,15,-1
 673 0 l 1,16,17
 608 -11 608 -11 582 -30 c 128,-1,18
 556 -49 556 -49 556 -76 c 0,19,20
 556 -97 556 -97 570.5 -108.5 c 128,-1,21
 585 -120 585 -120 611 -120 c 0,22,23
 642 -120 642 -120 657 -110 c 1,0,-1
259 266 m 1,24,-1
 415 266 l 1,25,-1
 367 424 l 1,26,-1
 338 528 l 1,27,-1
 336 528 l 1,28,-1
 309 425 l 1,29,-1
 259 266 l 1,24,-1
EndSplineSet
Substitution2: "Single Substitution lookup 56 subtable" Aogonek.swsh
Substitution2: "'swsh' Swash lookup 32 subtable" Aogonek.swsh
Substitution2: "'c2sc' Capitals to Small Capitals lookup 11 subtable" aogonek.sc
AlternateSubs2: "'aalt' Access All Alternates lookup 1 subtable" aogonek.sc Aogonek.swsh
EndChar

StartChar: aogonek
Encoding: 261 261 199
Width: 581
GlyphClass: 2
Flags: W
LayerCount: 2
Fore
SplineSet
503 -120 m 0,0,1
 534 -120 534 -120 549 -110 c 1,2,-1
 572 -192 l 1,3,4
 535 -215 535 -215 470 -215 c 0,5,6
 408 -215 408 -215 370 -186.5 c 128,-1,7
 332 -158 332 -158 332 -102 c 0,8,9
 332 -17 332 -17 433 15 c 1,10,11
 386 32 386 32 373 83 c 1,12,13
 334 -10 334 -10 187 -10 c 0,14,15
 112 -10 112 -10 72 22 c 128,-1,16
 32 54 32 54 32 115 c 0,17,18
 32 179 32 179 77.5 218.5 c 128,-1,19
 123 258 123 258 227 279 c 2,20,-1
 340 301 l 1,21,-1
 340 319 l 2,22,23
 340 353 340 353 321 373 c 128,-1,24
 302 393 302 393 269 393 c 0,25,26
 189 393 189 393 176 316 c 1,27,-1
 38 356 l 1,28,29
 51 429 51 429 110 469.5 c 128,-1,30
 169 510 169 510 269 510 c 0,31,32
 508 510 508 510 508 318 c 2,33,-1
 508 136 l 2,34,35
 508 97 508 97 544 97 c 0,36,37
 563 97 563 97 575 101 c 1,38,-1
 562 6 l 1,39,40
 451 -18 451 -18 451 -75 c 0,41,42
 451 -120 451 -120 503 -120 c 0,0,1
249 100 m 0,43,44
 284 100 284 100 312 119.5 c 128,-1,45
 340 139 340 139 340 171 c 2,46,-1
 340 214 l 1,47,-1
 259 195 l 2,48,49
 227 187 227 187 213.5 175.5 c 128,-1,50
 200 164 200 164 200 143 c 0,51,52
 200 100 200 100 249 100 c 0,43,44
EndSplineSet
Substitution2: "'smcp' Lowercase to Small Capitals lookup 12 subtable" aogonek.sc
Substitution2: "'aalt' Access All Alternates lookup 0 subtable" aogonek.sc
EndChar

StartChar: Cacute
Encoding: 262 262 200
Width: 681
GlyphClass: 2
Flags: W
LayerCount: 2
Fore
SplineSet
346 882 m 1,0,-1
 507 882 l 1,1,-1
 415 723 l 1,2,-1
 291 723 l 1,3,-1
 346 882 l 1,0,-1
658 189 m 1,4,5
 630 89 630 89 554 39.5 c 128,-1,6
 478 -10 478 -10 369 -10 c 0,7,8
 218 -10 218 -10 131.5 80.5 c 128,-1,9
 45 171 45 171 45 330 c 128,-1,10
 45 489 45 489 131.5 579.5 c 128,-1,11
 218 670 218 670 368 670 c 0,12,13
 476 670 476 670 551 624.5 c 128,-1,14
 626 579 626 579 650 488 c 1,15,-1
 499 427 l 1,16,17
 485 487 485 487 456 511 c 128,-1,18
 427 535 427 535 374 535 c 0,19,20
 301 535 301 535 261 482.5 c 128,-1,21
 221 430 221 430 221 330 c 128,-1,22
 221 230 221 230 259.5 177.5 c 128,-1,23
 298 125 298 125 371 125 c 0,24,25
 479 125 479 125 502 233 c 1,26,-1
 658 189 l 1,4,5
EndSplineSet
Substitution2: "'c2sc' Capitals to Small Capitals lookup 11 subtable" cacute.sc
Substitution2: "'aalt' Access All Alternates lookup 0 subtable" cacute.sc
EndChar

StartChar: cacute
Encoding: 263 263 201
Width: 571
GlyphClass: 2
Flags: W
LayerCount: 2
Fore
SplineSet
287 738 m 1,0,-1
 445 738 l 1,1,-1
 344 565 l 1,2,-1
 220 565 l 1,3,-1
 287 738 l 1,0,-1
300 510 m 0,4,5
 413 510 413 510 470 467 c 128,-1,6
 527 424 527 424 541 355 c 1,7,-1
 383 303 l 1,8,9
 373 389 373 389 306 389 c 0,10,11
 207 389 207 389 207 248 c 0,12,13
 207 111 207 111 306 111 c 0,14,15
 377 111 377 111 389 192 c 1,16,-1
 542 143 l 1,17,18
 531 75 531 75 469.5 32.5 c 128,-1,19
 408 -10 408 -10 307 -10 c 0,20,21
 177 -10 177 -10 107 58 c 128,-1,22
 37 126 37 126 37 250 c 0,23,24
 37 373 37 373 106.5 441.5 c 128,-1,25
 176 510 176 510 300 510 c 0,4,5
EndSplineSet
Substitution2: "'smcp' Lowercase to Small Capitals lookup 12 subtable" cacute.sc
Substitution2: "'aalt' Access All Alternates lookup 0 subtable" cacute.sc
EndChar

StartChar: Ccaron
Encoding: 268 268 202
Width: 681
GlyphClass: 2
Flags: W
LayerCount: 2
Fore
SplineSet
552 888 m 1,0,-1
 441 721 l 1,1,-1
 277 721 l 1,2,-1
 166 888 l 1,3,-1
 292 888 l 1,4,-1
 359 800 l 1,5,-1
 426 888 l 1,6,-1
 552 888 l 1,0,-1
658 189 m 1,7,8
 630 89 630 89 554 39.5 c 128,-1,9
 478 -10 478 -10 369 -10 c 0,10,11
 218 -10 218 -10 131.5 80.5 c 128,-1,12
 45 171 45 171 45 330 c 128,-1,13
 45 489 45 489 131.5 579.5 c 128,-1,14
 218 670 218 670 368 670 c 0,15,16
 476 670 476 670 551 624.5 c 128,-1,17
 626 579 626 579 650 488 c 1,18,-1
 499 427 l 1,19,20
 485 487 485 487 456 511 c 128,-1,21
 427 535 427 535 374 535 c 0,22,23
 301 535 301 535 261 482.5 c 128,-1,24
 221 430 221 430 221 330 c 128,-1,25
 221 230 221 230 259.5 177.5 c 128,-1,26
 298 125 298 125 371 125 c 0,27,28
 479 125 479 125 502 233 c 1,29,-1
 658 189 l 1,7,8
EndSplineSet
Substitution2: "'c2sc' Capitals to Small Capitals lookup 11 subtable" ccaron.sc
Substitution2: "'aalt' Access All Alternates lookup 0 subtable" ccaron.sc
EndChar

StartChar: ccaron
Encoding: 269 269 203
Width: 571
GlyphClass: 2
Flags: W
LayerCount: 2
Fore
SplineSet
484 738 m 1,0,-1
 376 565 l 1,1,-1
 210 565 l 1,2,-1
 102 738 l 1,3,-1
 225 738 l 1,4,-1
 293 651 l 1,5,-1
 361 738 l 1,6,-1
 484 738 l 1,0,-1
300 510 m 0,7,8
 413 510 413 510 470 467 c 128,-1,9
 527 424 527 424 541 355 c 1,10,-1
 383 303 l 1,11,12
 373 389 373 389 306 389 c 0,13,14
 207 389 207 389 207 248 c 0,15,16
 207 111 207 111 306 111 c 0,17,18
 377 111 377 111 389 192 c 1,19,-1
 542 143 l 1,20,21
 531 75 531 75 469.5 32.5 c 128,-1,22
 408 -10 408 -10 307 -10 c 0,23,24
 177 -10 177 -10 107 58 c 128,-1,25
 37 126 37 126 37 250 c 0,26,27
 37 373 37 373 106.5 441.5 c 128,-1,28
 176 510 176 510 300 510 c 0,7,8
EndSplineSet
Substitution2: "'smcp' Lowercase to Small Capitals lookup 12 subtable" ccaron.sc
Substitution2: "'aalt' Access All Alternates lookup 0 subtable" ccaron.sc
EndChar

StartChar: Dcaron
Encoding: 270 270 204
Width: 718
GlyphClass: 2
Flags: W
LayerCount: 2
Fore
SplineSet
407 721 m 1,0,-1
 243 721 l 1,1,-1
 132 888 l 1,2,-1
 258 888 l 1,3,-1
 325 800 l 1,4,-1
 392 888 l 1,5,-1
 518 888 l 1,6,-1
 407 721 l 1,0,-1
353 660 m 2,7,8
 508 660 508 660 590.5 574.5 c 128,-1,9
 673 489 673 489 673 330 c 128,-1,10
 673 171 673 171 590.5 85.5 c 128,-1,11
 508 0 508 0 353 0 c 2,12,-1
 73 0 l 1,13,-1
 73 660 l 1,14,-1
 353 660 l 2,7,8
336 130 m 2,15,16
 419 130 419 130 458 180 c 128,-1,17
 497 230 497 230 497 330 c 128,-1,18
 497 430 497 430 458 480 c 128,-1,19
 419 530 419 530 336 530 c 2,20,-1
 245 530 l 1,21,-1
 245 130 l 1,22,-1
 336 130 l 2,15,16
EndSplineSet
Substitution2: "'c2sc' Capitals to Small Capitals lookup 11 subtable" dcaron.sc
Substitution2: "'aalt' Access All Alternates lookup 0 subtable" dcaron.sc
EndChar

StartChar: dcaron
Encoding: 271 271 205
Width: 714
GlyphClass: 2
Flags: W
LayerCount: 2
Fore
SplineSet
398 416 m 1,0,-1
 398 712 l 1,1,-1
 568 712 l 1,2,-1
 568 0 l 1,3,-1
 415 0 l 1,4,-1
 409 95 l 1,5,6
 387 46 387 46 344.5 18 c 128,-1,7
 302 -10 302 -10 246 -10 c 0,8,9
 149 -10 149 -10 94.5 58 c 128,-1,10
 40 126 40 126 40 248 c 0,11,12
 40 372 40 372 95 441 c 128,-1,13
 150 510 150 510 247 510 c 0,14,15
 352 510 352 510 398 416 c 1,0,-1
631 712 m 1,16,-1
 760 712 l 1,17,-1
 707 473 l 1,18,-1
 610 473 l 1,19,-1
 631 712 l 1,16,-1
305 115 m 0,20,21
 346 115 346 115 370.5 144.5 c 128,-1,22
 395 174 395 174 398 230 c 2,23,-1
 398 270 l 2,24,25
 395 325 395 325 370.5 355 c 128,-1,26
 346 385 346 385 305 385 c 0,27,28
 211 385 211 385 211 250 c 128,-1,29
 211 115 211 115 305 115 c 0,20,21
EndSplineSet
Substitution2: "'smcp' Lowercase to Small Capitals lookup 12 subtable" dcaron.sc
Substitution2: "'aalt' Access All Alternates lookup 0 subtable" dcaron.sc
EndChar

StartChar: Dcroat
Encoding: 272 272 206
Width: 741
GlyphClass: 2
Flags: W
LayerCount: 2
Fore
SplineSet
376 660 m 2,0,1
 531 660 531 660 614 574.5 c 128,-1,2
 697 489 697 489 697 330 c 128,-1,3
 697 171 697 171 614 85.5 c 128,-1,4
 531 0 531 0 376 0 c 2,5,-1
 96 0 l 1,6,-1
 96 273 l 1,7,-1
 13 273 l 1,8,-1
 13 387 l 1,9,-1
 96 387 l 1,10,-1
 96 660 l 1,11,-1
 376 660 l 2,0,1
359 130 m 2,12,13
 442 130 442 130 481 180 c 128,-1,14
 520 230 520 230 520 330 c 128,-1,15
 520 430 520 430 481 480 c 128,-1,16
 442 530 442 530 359 530 c 2,17,-1
 268 530 l 1,18,-1
 268 387 l 1,19,-1
 399 387 l 1,20,-1
 399 273 l 1,21,-1
 268 273 l 1,22,-1
 268 130 l 1,23,-1
 359 130 l 2,12,13
EndSplineSet
Substitution2: "'c2sc' Capitals to Small Capitals lookup 11 subtable" dcroat.sc
Substitution2: "'aalt' Access All Alternates lookup 0 subtable" dcroat.sc
EndChar

StartChar: dcroat
Encoding: 273 273 207
Width: 628
GlyphClass: 2
Flags: W
LayerCount: 2
Fore
SplineSet
644 635 m 1,0,-1
 644 538 l 1,1,-1
 568 538 l 1,2,-1
 568 0 l 1,3,-1
 415 0 l 1,4,-1
 409 95 l 1,5,6
 387 46 387 46 344.5 18 c 128,-1,7
 302 -10 302 -10 246 -10 c 0,8,9
 149 -10 149 -10 94.5 58 c 128,-1,10
 40 126 40 126 40 248 c 0,11,12
 40 372 40 372 95 441 c 128,-1,13
 150 510 150 510 247 510 c 0,14,15
 352 510 352 510 398 416 c 1,16,-1
 398 538 l 1,17,-1
 268 538 l 1,18,-1
 268 635 l 1,19,-1
 398 635 l 1,20,-1
 398 712 l 1,21,-1
 568 712 l 1,22,-1
 568 635 l 1,23,-1
 644 635 l 1,0,-1
305 115 m 0,24,25
 346 115 346 115 370.5 144.5 c 128,-1,26
 395 174 395 174 398 230 c 2,27,-1
 398 270 l 2,28,29
 395 325 395 325 370.5 355 c 128,-1,30
 346 385 346 385 305 385 c 0,31,32
 211 385 211 385 211 250 c 128,-1,33
 211 115 211 115 305 115 c 0,24,25
EndSplineSet
Substitution2: "'smcp' Lowercase to Small Capitals lookup 12 subtable" dcroat.sc
Substitution2: "'aalt' Access All Alternates lookup 0 subtable" dcroat.sc
EndChar

StartChar: Emacron
Encoding: 274 274 208
Width: 631
GlyphClass: 2
Flags: W
AnchorPoint: "Anchor-0" 333 0 basechar 0
LayerCount: 2
Fore
SplineSet
509 834 m 1,0,-1
 509 729 l 1,1,-1
 137 729 l 1,2,-1
 137 834 l 1,3,-1
 509 834 l 1,0,-1
245 133 m 1,4,-1
 600 133 l 1,5,-1
 600 0 l 1,6,-1
 73 0 l 1,7,-1
 73 660 l 1,8,-1
 587 660 l 1,9,-1
 587 527 l 1,10,-1
 245 527 l 1,11,-1
 245 393 l 1,12,-1
 517 393 l 1,13,-1
 517 268 l 1,14,-1
 245 268 l 1,15,-1
 245 133 l 1,4,-1
EndSplineSet
Substitution2: "Single Substitution lookup 57 subtable" Emacron.swsh.001
Substitution2: "Single Substitution lookup 56 subtable" Emacron.swsh
AlternateSubs2: "'swsh' Swash lookup 33 subtable" Emacron.swsh Emacron.swsh.001
Substitution2: "'c2sc' Capitals to Small Capitals lookup 11 subtable" emacron.sc
AlternateSubs2: "'aalt' Access All Alternates lookup 1 subtable" emacron.sc Emacron.swsh Emacron.swsh.001
EndChar

StartChar: emacron
Encoding: 275 275 209
Width: 582
GlyphClass: 2
Flags: W
AnchorPoint: "Anchor-0" 298 0 basechar 0
LayerCount: 2
Fore
SplineSet
481 674 m 1,0,-1
 481 569 l 1,1,-1
 109 569 l 1,2,-1
 109 674 l 1,3,-1
 481 674 l 1,0,-1
548 257 m 0,4,5
 548 223 548 223 543 201 c 1,6,-1
 202 201 l 1,7,8
 217 110 217 110 307 110 c 0,9,10
 382 110 382 110 399 165 c 1,11,-1
 537 121 l 1,12,13
 516 57 516 57 455.5 23.5 c 128,-1,14
 395 -10 395 -10 307 -10 c 0,15,16
 176 -10 176 -10 106.5 58 c 128,-1,17
 37 126 37 126 37 250 c 128,-1,18
 37 374 37 374 105 442 c 128,-1,19
 173 510 173 510 298 510 c 0,20,21
 419 510 419 510 483.5 443.5 c 128,-1,22
 548 377 548 377 548 257 c 0,4,5
297 391 m 0,23,24
 216 391 216 391 201 293 c 1,25,-1
 389 293 l 1,26,27
 377 391 377 391 297 391 c 0,23,24
EndSplineSet
Substitution2: "'smcp' Lowercase to Small Capitals lookup 12 subtable" emacron.sc
Substitution2: "'aalt' Access All Alternates lookup 0 subtable" emacron.sc
EndChar

StartChar: Edotaccent
Encoding: 278 278 210
Width: 631
GlyphClass: 2
Flags: W
AnchorPoint: "Anchor-0" 333 0 basechar 0
LayerCount: 2
Fore
SplineSet
323 721 m 0,0,1
 232 721 232 721 232 802 c 0,2,3
 232 882 232 882 323 882 c 0,4,5
 416 882 416 882 416 802 c 0,6,7
 416 721 416 721 323 721 c 0,0,1
245 133 m 1,8,-1
 600 133 l 1,9,-1
 600 0 l 1,10,-1
 73 0 l 1,11,-1
 73 660 l 1,12,-1
 587 660 l 1,13,-1
 587 527 l 1,14,-1
 245 527 l 1,15,-1
 245 393 l 1,16,-1
 517 393 l 1,17,-1
 517 268 l 1,18,-1
 245 268 l 1,19,-1
 245 133 l 1,8,-1
EndSplineSet
Substitution2: "Single Substitution lookup 57 subtable" Edotaccent.swsh.001
Substitution2: "Single Substitution lookup 56 subtable" Edotaccent.swsh
AlternateSubs2: "'swsh' Swash lookup 33 subtable" Edotaccent.swsh Edotaccent.swsh.001
Substitution2: "'c2sc' Capitals to Small Capitals lookup 11 subtable" edotaccent.sc
AlternateSubs2: "'aalt' Access All Alternates lookup 1 subtable" edotaccent.sc Edotaccent.swsh Edotaccent.swsh.001
EndChar

StartChar: edotaccent
Encoding: 279 279 211
Width: 582
GlyphClass: 2
Flags: W
AnchorPoint: "Anchor-0" 298 0 basechar 0
LayerCount: 2
Fore
SplineSet
295 561 m 0,0,1
 204 561 204 561 204 642 c 0,2,3
 204 722 204 722 295 722 c 0,4,5
 388 722 388 722 388 642 c 0,6,7
 388 561 388 561 295 561 c 0,0,1
548 257 m 0,8,9
 548 223 548 223 543 201 c 1,10,-1
 202 201 l 1,11,12
 217 110 217 110 307 110 c 0,13,14
 382 110 382 110 399 165 c 1,15,-1
 537 121 l 1,16,17
 516 57 516 57 455.5 23.5 c 128,-1,18
 395 -10 395 -10 307 -10 c 0,19,20
 176 -10 176 -10 106.5 58 c 128,-1,21
 37 126 37 126 37 250 c 128,-1,22
 37 374 37 374 105 442 c 128,-1,23
 173 510 173 510 298 510 c 0,24,25
 419 510 419 510 483.5 443.5 c 128,-1,26
 548 377 548 377 548 257 c 0,8,9
297 391 m 0,27,28
 216 391 216 391 201 293 c 1,29,-1
 389 293 l 1,30,31
 377 391 377 391 297 391 c 0,27,28
EndSplineSet
Substitution2: "'smcp' Lowercase to Small Capitals lookup 12 subtable" edotaccent.sc
Substitution2: "'aalt' Access All Alternates lookup 0 subtable" edotaccent.sc
EndChar

StartChar: Eogonek
Encoding: 280 280 212
Width: 631
GlyphClass: 2
Flags: W
AnchorPoint: "Anchor-0" 333 0 basechar 0
LayerCount: 2
Fore
SplineSet
585 -110 m 1,0,-1
 608 -192 l 1,1,2
 571 -215 571 -215 504 -215 c 0,3,4
 442 -215 442 -215 403.5 -186.5 c 128,-1,5
 365 -158 365 -158 365 -104 c 0,6,7
 365 -35 365 -35 444 0 c 1,8,-1
 73 0 l 1,9,-1
 73 660 l 1,10,-1
 587 660 l 1,11,-1
 587 527 l 1,12,-1
 245 527 l 1,13,-1
 245 393 l 1,14,-1
 517 393 l 1,15,-1
 517 268 l 1,16,-1
 245 268 l 1,17,-1
 245 133 l 1,18,-1
 600 133 l 1,19,-1
 600 0 l 1,20,-1
 601 0 l 1,21,22
 536 -12 536 -12 510 -30.5 c 128,-1,23
 484 -49 484 -49 484 -76 c 0,24,25
 484 -120 484 -120 539 -120 c 0,26,27
 570 -120 570 -120 585 -110 c 1,0,-1
EndSplineSet
Substitution2: "'c2sc' Capitals to Small Capitals lookup 11 subtable" eogonek.sc
Substitution2: "'aalt' Access All Alternates lookup 0 subtable" eogonek.sc
EndChar

StartChar: eogonek
Encoding: 281 281 213
Width: 582
GlyphClass: 2
Flags: W
AnchorPoint: "Anchor-0" 298 0 basechar 0
LayerCount: 2
Fore
SplineSet
548 257 m 0,0,1
 548 223 548 223 543 201 c 1,2,-1
 202 201 l 1,3,4
 217 110 217 110 307 110 c 0,5,6
 382 110 382 110 399 165 c 1,7,-1
 537 121 l 1,8,9
 506 27 506 27 394 0 c 1,10,11
 325 -35 325 -35 325 -74 c 0,12,13
 325 -96 325 -96 339.5 -108 c 128,-1,14
 354 -120 354 -120 379 -120 c 0,15,16
 410 -120 410 -120 425 -110 c 1,17,-1
 448 -192 l 1,18,19
 411 -215 411 -215 345 -215 c 0,20,21
 283 -215 283 -215 244.5 -186 c 128,-1,22
 206 -157 206 -157 206 -103 c 0,23,24
 206 -48 206 -48 260 -7 c 1,25,26
 152 5 152 5 94.5 71.5 c 128,-1,27
 37 138 37 138 37 250 c 0,28,29
 37 374 37 374 105 442 c 128,-1,30
 173 510 173 510 298 510 c 0,31,32
 419 510 419 510 483.5 443.5 c 128,-1,33
 548 377 548 377 548 257 c 0,0,1
297 391 m 0,34,35
 216 391 216 391 201 293 c 1,36,-1
 389 293 l 1,37,38
 377 391 377 391 297 391 c 0,34,35
EndSplineSet
Substitution2: "'smcp' Lowercase to Small Capitals lookup 12 subtable" eogonek.sc
Substitution2: "'aalt' Access All Alternates lookup 0 subtable" eogonek.sc
EndChar

StartChar: Ecaron
Encoding: 282 282 214
Width: 631
GlyphClass: 2
Flags: W
AnchorPoint: "Anchor-0" 333 0 basechar 0
LayerCount: 2
Fore
SplineSet
402 721 m 1,0,-1
 238 721 l 1,1,-1
 127 888 l 1,2,-1
 253 888 l 1,3,-1
 320 800 l 1,4,-1
 387 888 l 1,5,-1
 513 888 l 1,6,-1
 402 721 l 1,0,-1
245 133 m 1,7,-1
 600 133 l 1,8,-1
 600 0 l 1,9,-1
 73 0 l 1,10,-1
 73 660 l 1,11,-1
 587 660 l 1,12,-1
 587 527 l 1,13,-1
 245 527 l 1,14,-1
 245 393 l 1,15,-1
 517 393 l 1,16,-1
 517 268 l 1,17,-1
 245 268 l 1,18,-1
 245 133 l 1,7,-1
EndSplineSet
Substitution2: "Single Substitution lookup 57 subtable" Ecaron.swsh.001
Substitution2: "Single Substitution lookup 56 subtable" Ecaron.swsh
AlternateSubs2: "'swsh' Swash lookup 33 subtable" Ecaron.swsh Ecaron.swsh.001
Substitution2: "'c2sc' Capitals to Small Capitals lookup 11 subtable" ecaron.sc
AlternateSubs2: "'aalt' Access All Alternates lookup 1 subtable" ecaron.sc Ecaron.swsh Ecaron.swsh.001
EndChar

StartChar: ecaron
Encoding: 283 283 215
Width: 582
GlyphClass: 2
Flags: W
AnchorPoint: "Anchor-0" 298 0 basechar 0
LayerCount: 2
Fore
SplineSet
375 565 m 1,0,-1
 209 565 l 1,1,-1
 101 738 l 1,2,-1
 224 738 l 1,3,-1
 292 651 l 1,4,-1
 360 738 l 1,5,-1
 483 738 l 1,6,-1
 375 565 l 1,0,-1
548 257 m 0,7,8
 548 223 548 223 543 201 c 1,9,-1
 202 201 l 1,10,11
 217 110 217 110 307 110 c 0,12,13
 382 110 382 110 399 165 c 1,14,-1
 537 121 l 1,15,16
 516 57 516 57 455.5 23.5 c 128,-1,17
 395 -10 395 -10 307 -10 c 0,18,19
 176 -10 176 -10 106.5 58 c 128,-1,20
 37 126 37 126 37 250 c 128,-1,21
 37 374 37 374 105 442 c 128,-1,22
 173 510 173 510 298 510 c 0,23,24
 419 510 419 510 483.5 443.5 c 128,-1,25
 548 377 548 377 548 257 c 0,7,8
297 391 m 0,26,27
 216 391 216 391 201 293 c 1,28,-1
 389 293 l 1,29,30
 377 391 377 391 297 391 c 0,26,27
EndSplineSet
Substitution2: "'smcp' Lowercase to Small Capitals lookup 12 subtable" ecaron.sc
Substitution2: "'aalt' Access All Alternates lookup 0 subtable" ecaron.sc
EndChar

StartChar: Gbreve
Encoding: 286 286 216
Width: 723
GlyphClass: 2
Flags: W
AnchorPoint: "Anchor-0" 389 0 basechar 0
LayerCount: 2
Fore
SplineSet
367 715 m 128,-1,1
 288 715 288 715 243 758.5 c 128,-1,2
 198 802 198 802 198 878 c 1,3,-1
 308 878 l 1,4,5
 308 847 308 847 324 828.5 c 128,-1,6
 340 810 340 810 367 810 c 128,-1,7
 394 810 394 810 410 828.5 c 128,-1,8
 426 847 426 847 426 878 c 1,9,-1
 536 878 l 1,10,11
 536 802 536 802 491 758.5 c 128,-1,0
 446 715 446 715 367 715 c 128,-1,1
355 357 m 1,12,-1
 665 357 l 1,13,-1
 665 0 l 1,14,-1
 545 0 l 1,15,-1
 540 78 l 1,16,17
 483 -10 483 -10 351 -10 c 0,18,19
 214 -10 214 -10 129 79.5 c 128,-1,20
 44 169 44 169 44 329 c 0,21,22
 44 488 44 488 132 579 c 128,-1,23
 220 670 220 670 373 670 c 0,24,25
 486 670 486 670 555 630 c 128,-1,26
 624 590 624 590 664 501 c 1,27,-1
 505 438 l 1,28,29
 480 535 480 535 378 535 c 0,30,31
 302 535 302 535 261.5 483 c 128,-1,32
 221 431 221 431 221 330 c 0,33,34
 221 122 221 122 383 122 c 0,35,36
 444 122 444 122 481.5 150 c 128,-1,37
 519 178 519 178 519 231 c 2,38,-1
 519 241 l 1,39,-1
 355 241 l 1,40,-1
 355 357 l 1,12,-1
EndSplineSet
Substitution2: "'ss04' Style Set 4 lookup 50 subtable" Gbreve.ss04
Substitution2: "'salt' Stylistic Alternatives lookup 42 subtable" Gbreve.ss04
Substitution2: "'c2sc' Capitals to Small Capitals lookup 11 subtable" gbreve.sc
AlternateSubs2: "'aalt' Access All Alternates lookup 1 subtable" gbreve.sc Gbreve.ss04
EndChar

StartChar: gbreve
Encoding: 287 287 217
Width: 628
GlyphClass: 2
Flags: W
LayerCount: 2
Fore
SplineSet
310 555 m 128,-1,1
 231 555 231 555 186 598.5 c 128,-1,2
 141 642 141 642 141 718 c 1,3,-1
 251 718 l 1,4,5
 251 687 251 687 267 668.5 c 128,-1,6
 283 650 283 650 310 650 c 128,-1,7
 337 650 337 650 353 668.5 c 128,-1,8
 369 687 369 687 369 718 c 1,9,-1
 479 718 l 1,10,11
 479 642 479 642 434 598.5 c 128,-1,0
 389 555 389 555 310 555 c 128,-1,1
416 500 m 1,12,-1
 568 500 l 1,13,-1
 568 40 l 2,14,15
 568 -215 568 -215 287 -215 c 0,16,17
 78 -215 78 -215 55 -69 c 1,18,-1
 218 -26 l 1,19,20
 222 -108 222 -108 304 -108 c 0,21,22
 347 -108 347 -108 372 -80 c 128,-1,23
 397 -52 397 -52 397 -1 c 2,24,-1
 397 91 l 1,25,26
 346 14 346 14 246 14 c 0,27,28
 149 14 149 14 94.5 79 c 128,-1,29
 40 144 40 144 40 260 c 0,30,31
 40 378 40 378 94.5 444 c 128,-1,32
 149 510 149 510 246 510 c 0,33,34
 308 510 308 510 349.5 479.5 c 128,-1,35
 391 449 391 449 410 397 c 1,36,-1
 416 500 l 1,12,-1
305 138 m 0,37,38
 348 138 348 138 372.5 168.5 c 128,-1,39
 397 199 397 199 397 257 c 2,40,-1
 397 266 l 2,41,42
 397 323 397 323 373 354 c 128,-1,43
 349 385 349 385 305 385 c 0,44,45
 211 385 211 385 211 262 c 0,46,47
 211 138 211 138 305 138 c 0,37,38
EndSplineSet
Substitution2: "'ss01' Style Set 1 lookup 47 subtable" gbreve.ss01
Substitution2: "'salt' Stylistic Alternatives lookup 42 subtable" gbreve.ss01
Substitution2: "'smcp' Lowercase to Small Capitals lookup 12 subtable" gbreve.sc
AlternateSubs2: "'aalt' Access All Alternates lookup 1 subtable" gbreve.sc gbreve.ss01
EndChar

StartChar: uni0122
Encoding: 290 290 218
Width: 723
GlyphClass: 2
Flags: W
AnchorPoint: "Anchor-0" 389 0 basechar 0
LayerCount: 2
Fore
SplineSet
355 357 m 1,0,-1
 665 357 l 1,1,-1
 665 0 l 1,2,-1
 545 0 l 1,3,-1
 540 78 l 1,4,5
 483 -10 483 -10 351 -10 c 0,6,7
 214 -10 214 -10 129 79.5 c 128,-1,8
 44 169 44 169 44 329 c 0,9,10
 44 488 44 488 132 579 c 128,-1,11
 220 670 220 670 373 670 c 0,12,13
 486 670 486 670 555 630 c 128,-1,14
 624 590 624 590 664 501 c 1,15,-1
 505 438 l 1,16,17
 480 535 480 535 378 535 c 0,18,19
 302 535 302 535 261.5 483 c 128,-1,20
 221 431 221 431 221 330 c 0,21,22
 221 122 221 122 383 122 c 0,23,24
 444 122 444 122 481.5 150 c 128,-1,25
 519 178 519 178 519 231 c 2,26,-1
 519 241 l 1,27,-1
 355 241 l 1,28,-1
 355 357 l 1,0,-1
285 -241 m 1,29,-1
 317 -60 l 1,30,-1
 466 -60 l 1,31,-1
 395 -241 l 1,32,-1
 285 -241 l 1,29,-1
EndSplineSet
Substitution2: "'ss04' Style Set 4 lookup 50 subtable" Gcommaaccent.ss04
Substitution2: "'salt' Stylistic Alternatives lookup 42 subtable" Gcommaaccent.ss04
Substitution2: "'c2sc' Capitals to Small Capitals lookup 11 subtable" Gcommaaccent.sc
AlternateSubs2: "'aalt' Access All Alternates lookup 1 subtable" Gcommaaccent.sc Gcommaaccent.ss04
EndChar

StartChar: uni0123
Encoding: 291 291 219
Width: 628
GlyphClass: 2
Flags: W
LayerCount: 2
Fore
SplineSet
429 772 m 1,0,-1
 393 563 l 1,1,-1
 251 563 l 1,2,-1
 321 772 l 1,3,-1
 429 772 l 1,0,-1
416 500 m 1,4,-1
 568 500 l 1,5,-1
 568 40 l 2,6,7
 568 -215 568 -215 287 -215 c 0,8,9
 78 -215 78 -215 55 -69 c 1,10,-1
 218 -26 l 1,11,12
 222 -108 222 -108 304 -108 c 0,13,14
 347 -108 347 -108 372 -80 c 128,-1,15
 397 -52 397 -52 397 -1 c 2,16,-1
 397 91 l 1,17,18
 346 14 346 14 246 14 c 0,19,20
 149 14 149 14 94.5 79 c 128,-1,21
 40 144 40 144 40 260 c 0,22,23
 40 378 40 378 94.5 444 c 128,-1,24
 149 510 149 510 246 510 c 0,25,26
 308 510 308 510 349.5 479.5 c 128,-1,27
 391 449 391 449 410 397 c 1,28,-1
 416 500 l 1,4,-1
305 138 m 0,29,30
 348 138 348 138 372.5 168.5 c 128,-1,31
 397 199 397 199 397 257 c 2,32,-1
 397 266 l 2,33,34
 397 323 397 323 373 354 c 128,-1,35
 349 385 349 385 305 385 c 0,36,37
 211 385 211 385 211 262 c 0,38,39
 211 138 211 138 305 138 c 0,29,30
EndSplineSet
Substitution2: "'ss01' Style Set 1 lookup 47 subtable" gcommaaccent.ss01
Substitution2: "'salt' Stylistic Alternatives lookup 42 subtable" gcommaaccent.ss01
Substitution2: "'aalt' Access All Alternates lookup 0 subtable" gcommaaccent.ss01
EndChar

StartChar: Imacron
Encoding: 298 298 220
Width: 318
GlyphClass: 2
Flags: W
LayerCount: 2
Fore
SplineSet
300 834 m 1,0,-1
 300 729 l 1,1,-1
 17 729 l 1,2,-1
 17 834 l 1,3,-1
 300 834 l 1,0,-1
245 660 m 1,4,-1
 245 0 l 1,5,-1
 73 0 l 1,6,-1
 73 660 l 1,7,-1
 245 660 l 1,4,-1
EndSplineSet
Substitution2: "'c2sc' Capitals to Small Capitals lookup 11 subtable" imacron.sc
Substitution2: "'aalt' Access All Alternates lookup 0 subtable" imacron.sc
EndChar

